{
copyright = "Copyright (c) 2015, Cadson Demak (info@cadsondemak.com)";
customParameters = (
{
name = vendorID;
value = CDK;
},
{
name = description;
value = "Copyright (c) 2015, Cadson Demak (info@cadsondemak.com)";
},
{
name = license;

glyphs = (
{
glyphname = A;
lastChange = "2015-10-27 16:21:59 +0000";
layers = (
{
layerId = "A20AAD8A-5619-416D-9D3E-77802FB4F06A";
name = "Bold Italic";
paths = (
{
closed = 1;
nodes = (
"216 0 LINE",
"220 20 LINE",
"193 31 OFFCURVE",
"171 41 OFFCURVE",
"146 46 CURVE",
"415 534 LINE",
"480 48 LINE",
"468 46 OFFCURVE",
"443 39 OFFCURVE",
"399 25 CURVE",
"395 0 LINE",
"736 0 LINE",
"740 22 LINE",
"715 32 OFFCURVE",
"691 40 OFFCURVE",
"669 46 CURVE",
"564 704 LINE",
"425 704 LINE",
"54 49 LINE",
"50 48 OFFCURVE",
"1 35 OFFCURVE",
"-28 26 CURVE",
"-33 0 LINE"
);
},
{
closed = 1;
nodes = (
"515 176 LINE",
"526 235 LINE",
"201 235 LINE",
"189 176 LINE"
);
}
);
width = 780;
}
);
leftKerningGroup = A;
note = A;
rightKerningGroup = A;
unicode = 0041;
},
{
glyphname = Aacute;
lastChange = "2015-10-27 16:21:59 +0000";
layers = (
{
layerId = "A20AAD8A-5619-416D-9D3E-77802FB4F06A";
name = "Bold Italic";
paths = (
{
closed = 1;
nodes = (
"216 0 LINE",
"220 20 LINE",
"193 31 OFFCURVE",
"171 41 OFFCURVE",
"146 46 CURVE",
"415 534 LINE",
"480 48 LINE",
"468 46 OFFCURVE",
"443 39 OFFCURVE",
"399 25 CURVE",
"395 0 LINE",
"736 0 LINE",
"740 22 LINE",
"715 32 OFFCURVE",
"691 40 OFFCURVE",
"669 46 CURVE",
"564 704 LINE",
"425 704 LINE",
"54 49 LINE",
"50 48 OFFCURVE",
"1 35 OFFCURVE",
"-28 26 CURVE",
"-33 0 LINE"
);
},
{
closed = 1;
nodes = (
"515 176 LINE",
"526 235 LINE",
"201 235 LINE",
"189 176 LINE"
);
},
{
closed = 1;
nodes = (
"600 886 LINE SMOOTH",
"641 909 OFFCURVE",
"666 931 OFFCURVE",
"673 960 CURVE",
"677 982 OFFCURVE",
"666 1011 OFFCURVE",
"625 1011 CURVE SMOOTH",
"586 1011 OFFCURVE",
"550 975 OFFCURVE",
"544 969 CURVE",
"394 830 LINE",
"415 786 LINE"
);
}
);
width = 780;
}
);
leftKerningGroup = A;
note = Aacute;
rightKerningGroup = A;
unicode = 00C1;
},
{
glyphname = Abreve;
lastChange = "2015-10-27 16:22:00 +0000";
layers = (
{
layerId = "A20AAD8A-5619-416D-9D3E-77802FB4F06A";
name = "Bold Italic";
paths = (
{
closed = 1;
nodes = (
"216 0 LINE",
"220 20 LINE",
"193 31 OFFCURVE",
"171 41 OFFCURVE",
"146 46 CURVE",
"415 534 LINE",
"480 48 LINE",
"468 46 OFFCURVE",
"443 39 OFFCURVE",
"399 25 CURVE",
"395 0 LINE",
"736 0 LINE",
"740 22 LINE",
"715 32 OFFCURVE",
"691 40 OFFCURVE",
"669 46 CURVE",
"564 704 LINE",
"425 704 LINE",
"54 49 LINE",
"50 48 OFFCURVE",
"1 35 OFFCURVE",
"-28 26 CURVE",
"-33 0 LINE"
);
},
{
closed = 1;
nodes = (
"515 176 LINE",
"526 235 LINE",
"201 235 LINE",
"189 176 LINE"
);
},
{
closed = 1;
nodes = (
"613 786 OFFCURVE",
"692 831 OFFCURVE",
"730 927 CURVE",
"628 927 LINE",
"607 856 OFFCURVE",
"563 847 OFFCURVE",
"523 847 CURVE SMOOTH",
"484 847 OFFCURVE",
"444 856 OFFCURVE",
"451 927 CURVE",
"350 927 LINE",
"348 831 OFFCURVE",
"408 786 OFFCURVE",
"511 786 CURVE SMOOTH"
);
}
);
width = 780;
}
);
leftKerningGroup = A;
note = Abreve;
rightKerningGroup = A;
unicode = 0102;
},
{
glyphname = Abreveacute;
lastChange = "2015-10-27 16:21:59 +0000";
layers = (
{
layerId = "A20AAD8A-5619-416D-9D3E-77802FB4F06A";
name = "Bold Italic";
paths = (
{
closed = 1;
nodes = (
"216 0 LINE",
"220 20 LINE",
"193 31 OFFCURVE",
"171 41 OFFCURVE",
"146 46 CURVE",
"415 534 LINE",
"480 48 LINE",
"468 46 OFFCURVE",
"443 39 OFFCURVE",
"399 25 CURVE",
"395 0 LINE",
"736 0 LINE",
"740 22 LINE",
"715 32 OFFCURVE",
"691 40 OFFCURVE",
"669 46 CURVE",
"564 704 LINE",
"425 704 LINE",
"54 49 LINE",
"50 48 OFFCURVE",
"1 35 OFFCURVE",
"-28 26 CURVE",
"-33 0 LINE"
);
},
{
closed = 1;
nodes = (
"515 176 LINE",
"526 235 LINE",
"201 235 LINE",
"189 176 LINE"
);
},
{
closed = 1;
nodes = (
"612 791 OFFCURVE",
"690 836 OFFCURVE",
"728 932 CURVE",
"627 932 LINE",
"606 861 OFFCURVE",
"562 852 OFFCURVE",
"522 852 CURVE SMOOTH",
"483 852 OFFCURVE",
"443 861 OFFCURVE",
"450 932 CURVE",
"348 932 LINE",
"346 836 OFFCURVE",
"407 791 OFFCURVE",
"510 791 CURVE SMOOTH"
);
},
{
closed = 1;
nodes = (
"645 999 LINE SMOOTH",
"687 1019 OFFCURVE",
"718 1044 OFFCURVE",
"725 1073 CURVE",
"729 1095 OFFCURVE",
"719 1128 OFFCURVE",
"677 1128 CURVE SMOOTH",
"645 1128 OFFCURVE",
"613 1098 OFFCURVE",
"595 1079 CURVE SMOOTH",
"500 980 LINE",
"521 942 LINE"
);
}
);
width = 780;
}
);
leftKerningGroup = A;
note = Abreveacute;
rightKerningGroup = A;
unicode = 1EAE;
},
{
glyphname = Abrevedotbelow;
lastChange = "2015-10-27 16:21:59 +0000";
layers = (
{
layerId = "A20AAD8A-5619-416D-9D3E-77802FB4F06A";
name = "Bold Italic";
paths = (
{
closed = 1;
nodes = (
"216 0 LINE",
"220 20 LINE",
"193 31 OFFCURVE",
"171 41 OFFCURVE",
"146 46 CURVE",
"415 534 LINE",
"480 48 LINE",
"468 46 OFFCURVE",
"443 39 OFFCURVE",
"399 25 CURVE",
"395 0 LINE",
"736 0 LINE",
"740 22 LINE",
"715 32 OFFCURVE",
"691 40 OFFCURVE",
"669 46 CURVE",
"564 704 LINE",
"425 704 LINE",
"54 49 LINE",
"50 48 OFFCURVE",
"1 35 OFFCURVE",
"-28 26 CURVE",
"-33 0 LINE"
);
},
{
closed = 1;
nodes = (
"348 -195 OFFCURVE",
"382 -163 OFFCURVE",
"390 -123 CURVE SMOOTH",
"398 -83 OFFCURVE",
"378 -50 OFFCURVE",
"335 -50 CURVE SMOOTH",
"292 -50 OFFCURVE",
"259 -83 OFFCURVE",
"251 -123 CURVE SMOOTH",
"243 -163 OFFCURVE",
"262 -195 OFFCURVE",
"305 -195 CURVE SMOOTH"
);
},
{
closed = 1;
nodes = (
"515 176 LINE",
"526 235 LINE",
"201 235 LINE",
"189 176 LINE"
);
},
{
closed = 1;
nodes = (
"606 784 OFFCURVE",
"684 829 OFFCURVE",
"722 925 CURVE",
"620 925 LINE",
"599 854 OFFCURVE",
"555 845 OFFCURVE",
"516 845 CURVE SMOOTH",
"476 845 OFFCURVE",
"436 854 OFFCURVE",
"444 925 CURVE",
"343 925 LINE",
"340 829 OFFCURVE",
"400 784 OFFCURVE",
"503 784 CURVE SMOOTH"
);
}
);
width = 780;
}
);
leftKerningGroup = A;
note = Abrevedotbelow;
rightKerningGroup = A;
unicode = 1EB6;
},
{
glyphname = Abrevegrave;
lastChange = "2015-10-27 16:21:59 +0000";
layers = (
{
layerId = "A20AAD8A-5619-416D-9D3E-77802FB4F06A";
name = "Bold Italic";
paths = (
{
closed = 1;
nodes = (
"216 0 LINE",
"220 20 LINE",
"193 31 OFFCURVE",
"171 41 OFFCURVE",
"146 46 CURVE",
"415 534 LINE",
"480 48 LINE",
"468 46 OFFCURVE",
"443 39 OFFCURVE",
"399 25 CURVE",
"395 0 LINE",
"736 0 LINE",
"740 22 LINE",
"715 32 OFFCURVE",
"691 40 OFFCURVE",
"669 46 CURVE",
"564 704 LINE",
"425 704 LINE",
"54 49 LINE",
"50 48 OFFCURVE",
"1 35 OFFCURVE",
"-28 26 CURVE",
"-33 0 LINE"
);
},
{
closed = 1;
nodes = (
"515 176 LINE",
"526 235 LINE",
"201 235 LINE",
"189 176 LINE"
);
},
{
closed = 1;
nodes = (
"612 791 OFFCURVE",
"690 836 OFFCURVE",
"728 932 CURVE",
"627 932 LINE",
"606 861 OFFCURVE",
"562 852 OFFCURVE",
"522 852 CURVE SMOOTH",
"483 852 OFFCURVE",
"443 861 OFFCURVE",
"450 932 CURVE",
"348 932 LINE",
"346 836 OFFCURVE",
"407 791 OFFCURVE",
"510 791 CURVE SMOOTH"
);
},
{
closed = 1;
nodes = (
"597 980 LINE",
"542 1079 LINE SMOOTH",
"532 1098 OFFCURVE",
"512 1128 OFFCURVE",
"479 1128 CURVE SMOOTH",
"437 1128 OFFCURVE",
"414 1095 OFFCURVE",
"410 1073 CURVE",
"403 1044 OFFCURVE",
"424 1019 OFFCURVE",
"460 999 CURVE SMOOTH",
"561 942 LINE"
);
}
);
width = 780;
}
);
leftKerningGroup = A;
note = Abrevegrave;
rightKerningGroup = A;
unicode = 1EB0;
},
{
glyphname = Abrevehookabove;
lastChange = "2015-10-27 16:21:59 +0000";
layers = (
{
layerId = "A20AAD8A-5619-416D-9D3E-77802FB4F06A";
name = "Bold Italic";
paths = (
{
closed = 1;
nodes = (
"216 0 LINE",
"220 20 LINE",
"193 31 OFFCURVE",
"171 41 OFFCURVE",
"146 46 CURVE",
"415 534 LINE",
"480 48 LINE",
"468 46 OFFCURVE",
"443 39 OFFCURVE",
"399 25 CURVE",
"395 0 LINE",
"736 0 LINE",
"740 22 LINE",
"715 32 OFFCURVE",
"691 40 OFFCURVE",
"669 46 CURVE",
"564 704 LINE",
"425 704 LINE",
"54 49 LINE",
"50 48 OFFCURVE",
"1 35 OFFCURVE",
"-28 26 CURVE",
"-33 0 LINE"
);
},
{
closed = 1;
nodes = (
"515 176 LINE",
"526 235 LINE",
"201 235 LINE",
"189 176 LINE"
);
},
{
closed = 1;
nodes = (
"612 791 OFFCURVE",
"690 836 OFFCURVE",
"728 932 CURVE",
"627 932 LINE",
"606 861 OFFCURVE",
"562 852 OFFCURVE",
"522 852 CURVE SMOOTH",
"483 852 OFFCURVE",
"443 861 OFFCURVE",
"450 932 CURVE",
"348 932 LINE",
"346 836 OFFCURVE",
"407 791 OFFCURVE",
"510 791 CURVE SMOOTH"
);
},
{
closed = 1;
nodes = (
"577 969 LINE",
"594 1009 LINE",
"641 1014 OFFCURVE",
"684 1031 OFFCURVE",
"697 1093 CURVE SMOOTH",
"710 1161 OFFCURVE",
"657 1185 OFFCURVE",
"601 1185 CURVE SMOOTH",
"572 1185 OFFCURVE",
"542 1178 OFFCURVE",
"521 1168 CURVE",
"518 1126 LINE",
"538 1137 OFFCURVE",
"560 1141 OFFCURVE",
"575 1141 CURVE SMOOTH",
"612 1141 OFFCURVE",
"625 1118 OFFCURVE",
"620 1094 CURVE SMOOTH",
"612 1056 OFFCURVE",
"581 1047 OFFCURVE",
"564 1047 CURVE SMOOTH",
"524 1047 LINE",
"512 969 LINE"
);
}
);
width = 780;
}
);
leftKerningGroup = A;
note = Abrevehookabove;
rightKerningGroup = A;
unicode = 1EB2;
},
{
glyphname = Abrevetilde;
lastChange = "2015-10-27 16:22:00 +0000";
layers = (
{
layerId = "A20AAD8A-5619-416D-9D3E-77802FB4F06A";
name = "Bold Italic";
paths = (
{
closed = 1;
nodes = (
"216 0 LINE",
"220 20 LINE",
"193 31 OFFCURVE",
"171 41 OFFCURVE",
"146 46 CURVE",
"415 534 LINE",
"480 48 LINE",
"468 46 OFFCURVE",
"443 39 OFFCURVE",
"399 25 CURVE",
"395 0 LINE",
"736 0 LINE",
"740 22 LINE",
"715 32 OFFCURVE",
"691 40 OFFCURVE",
"669 46 CURVE",
"564 704 LINE",
"425 704 LINE",
"54 49 LINE",
"50 48 OFFCURVE",
"1 35 OFFCURVE",
"-28 26 CURVE",
"-33 0 LINE"
);
},
{
closed = 1;
nodes = (
"515 176 LINE",
"526 235 LINE",
"201 235 LINE",
"189 176 LINE"
);
},
{
closed = 1;
nodes = (
"612 791 OFFCURVE",
"690 836 OFFCURVE",
"728 932 CURVE",
"627 932 LINE",
"606 861 OFFCURVE",
"562 852 OFFCURVE",
"522 852 CURVE SMOOTH",
"483 852 OFFCURVE",
"443 861 OFFCURVE",
"450 932 CURVE",
"348 932 LINE",
"346 836 OFFCURVE",
"407 791 OFFCURVE",
"510 791 CURVE SMOOTH"
);
},
{
closed = 1;
nodes = (
"416 992 LINE",
"427 1021 OFFCURVE",
"454 1040 OFFCURVE",
"487 1040 CURVE SMOOTH",
"536 1040 OFFCURVE",
"559 992 OFFCURVE",
"618 992 CURVE SMOOTH",
"700 992 OFFCURVE",
"747 1042 OFFCURVE",
"769 1115 CURVE",
"708 1115 LINE",
"687 1069 OFFCURVE",
"650 1066 OFFCURVE",
"631 1066 CURVE SMOOTH",
"593 1066 OFFCURVE",
"581 1114 OFFCURVE",
"506 1114 CURVE SMOOTH",
"434 1114 OFFCURVE",
"381 1071 OFFCURVE",
"354 992 CURVE"
);
}
);
width = 780;
}
);
leftKerningGroup = A;
note = Abrevetilde;
rightKerningGroup = A;
unicode = 1EB4;
},
{
glyphname = Acaron;
lastChange = "2015-10-27 16:22:00 +0000";
layers = (
{
layerId = "A20AAD8A-5619-416D-9D3E-77802FB4F06A";
name = "Bold Italic";
paths = (
{
closed = 1;
nodes = (
"216 0 LINE",
"220 20 LINE",
"193 31 OFFCURVE",
"171 41 OFFCURVE",
"146 46 CURVE",
"415 534 LINE",
"480 48 LINE",
"468 46 OFFCURVE",
"443 39 OFFCURVE",
"399 25 CURVE",
"395 0 LINE",
"736 0 LINE",
"740 22 LINE",
"715 32 OFFCURVE",
"691 40 OFFCURVE",
"669 46 CURVE",
"564 704 LINE",
"425 704 LINE",
"54 49 LINE",
"50 48 OFFCURVE",
"1 35 OFFCURVE",
"-28 26 CURVE",
"-33 0 LINE"
);
},
{
closed = 1;
nodes = (
"515 176 LINE",
"526 235 LINE",
"201 235 LINE",
"189 176 LINE"
);
},
{
closed = 1;
nodes = (
"468 786 OFFCURVE",
"555 786 OFFCURVE",
"555 786 CURVE",
"582 819 OFFCURVE",
"700 913 OFFCURVE",
"751 942 CURVE",
"685 997 LINE",
"636 962 OFFCURVE",
"555 892 OFFCURVE",
"526 855 CURVE",
"526 855 OFFCURVE",
"523 855 OFFCURVE",
"523 855 CURVE",
"510 892 OFFCURVE",
"457 962 OFFCURVE",
"421 997 CURVE",
"336 942 LINE",
"375 913 OFFCURVE",
"454 819 OFFCURVE",
"468 786 CURVE"
);
}
);
width = 780;
}
);
leftKerningGroup = A;
note = Acaron;
rightKerningGroup = A;
unicode = 01CD;
},
{
glyphname = Acircumflex;
lastChange = "2015-10-27 16:22:00 +0000";
layers = (
{
layerId = "A20AAD8A-5619-416D-9D3E-77802FB4F06A";
name = "Bold Italic";
paths = (
{
closed = 1;
nodes = (
"216 0 LINE",
"220 20 LINE",
"193 31 OFFCURVE",
"171 41 OFFCURVE",
"146 46 CURVE",
"415 534 LINE",
"480 48 LINE",
"468 46 OFFCURVE",
"443 39 OFFCURVE",
"399 25 CURVE",
"395 0 LINE",
"736 0 LINE",
"740 22 LINE",
"715 32 OFFCURVE",
"691 40 OFFCURVE",
"669 46 CURVE",
"564 704 LINE",
"425 704 LINE",
"54 49 LINE",
"50 48 OFFCURVE",
"1 35 OFFCURVE",
"-28 26 CURVE",
"-33 0 LINE"
);
},
{
closed = 1;
nodes = (
"515 176 LINE",
"526 235 LINE",
"201 235 LINE",
"189 176 LINE"
);
},
{
closed = 1;
nodes = (
"428 821 OFFCURVE",
"510 891 OFFCURVE",
"539 928 CURVE",
"539 928 OFFCURVE",
"541 928 OFFCURVE",
"541 928 CURVE",
"555 891 OFFCURVE",
"608 821 OFFCURVE",
"643 786 CURVE",
"730 841 LINE",
"690 870 OFFCURVE",
"611 964 OFFCURVE",
"597 997 CURVE",
"597 997 OFFCURVE",
"510 997 OFFCURVE",
"510 997 CURVE",
"483 964 OFFCURVE",
"366 870 OFFCURVE",
"315 841 CURVE",
"380 786 LINE"
);
}
);
width = 780;
}
);
leftKerningGroup = A;
note = Acircumflex;
rightKerningGroup = A;
unicode = 00C2;
},
{
glyphname = Acircumflexacute;
lastChange = "2015-10-27 16:21:58 +0000";
layers = (
{
layerId = "A20AAD8A-5619-416D-9D3E-77802FB4F06A";
name = "Bold Italic";
paths = (
{
closed = 1;
nodes = (
"216 0 LINE",
"220 20 LINE",
"193 31 OFFCURVE",
"171 41 OFFCURVE",
"146 46 CURVE",
"415 534 LINE",
"480 48 LINE",
"468 46 OFFCURVE",
"443 39 OFFCURVE",
"399 25 CURVE",
"395 0 LINE",
"736 0 LINE",
"740 22 LINE",
"715 32 OFFCURVE",
"691 40 OFFCURVE",
"669 46 CURVE",
"564 704 LINE",
"425 704 LINE",
"54 49 LINE",
"50 48 OFFCURVE",
"1 35 OFFCURVE",
"-28 26 CURVE",
"-33 0 LINE"
);
},
{
closed = 1;
nodes = (
"515 176 LINE",
"526 235 LINE",
"201 235 LINE",
"189 176 LINE"
);
},
{
closed = 1;
nodes = (
"431 821 OFFCURVE",
"513 891 OFFCURVE",
"541 928 CURVE",
"541 928 OFFCURVE",
"544 928 OFFCURVE",
"544 928 CURVE",
"558 891 OFFCURVE",
"611 821 OFFCURVE",
"646 786 CURVE",
"732 841 LINE",
"692 870 OFFCURVE",
"613 964 OFFCURVE",
"600 997 CURVE",
"600 997 OFFCURVE",
"513 997 OFFCURVE",
"513 997 CURVE",
"486 964 OFFCURVE",
"368 870 OFFCURVE",
"317 841 CURVE",
"382 786 LINE"
);
},
{
closed = 1;
nodes = (
"820 994 LINE SMOOTH",
"863 1014 OFFCURVE",
"894 1039 OFFCURVE",
"900 1068 CURVE",
"904 1090 OFFCURVE",
"895 1123 OFFCURVE",
"852 1123 CURVE SMOOTH",
"820 1123 OFFCURVE",
"788 1093 OFFCURVE",
"770 1074 CURVE SMOOTH",
"675 975 LINE",
"696 937 LINE"
);
}
);
width = 780;
}
);
leftKerningGroup = A;
note = Acircumflexacute;
rightKerningGroup = A;
unicode = 1EA4;
},
{
glyphname = Acircumflexdotbelow;
lastChange = "2015-10-27 16:21:59 +0000";
layers = (
{
layerId = "A20AAD8A-5619-416D-9D3E-77802FB4F06A";
name = "Bold Italic";
paths = (
{
closed = 1;
nodes = (
"216 0 LINE",
"220 20 LINE",
"193 31 OFFCURVE",
"171 41 OFFCURVE",
"146 46 CURVE",
"415 534 LINE",
"480 48 LINE",
"468 46 OFFCURVE",
"443 39 OFFCURVE",
"399 25 CURVE",
"395 0 LINE",
"736 0 LINE",
"740 22 LINE",
"715 32 OFFCURVE",
"691 40 OFFCURVE",
"669 46 CURVE",
"564 704 LINE",
"425 704 LINE",
"54 49 LINE",
"50 48 OFFCURVE",
"1 35 OFFCURVE",
"-28 26 CURVE",
"-33 0 LINE"
);
},
{
closed = 1;
nodes = (
"358 -195 OFFCURVE",
"392 -163 OFFCURVE",
"399 -123 CURVE SMOOTH",
"408 -83 OFFCURVE",
"388 -50 OFFCURVE",
"345 -50 CURVE SMOOTH",
"301 -50 OFFCURVE",
"269 -83 OFFCURVE",
"260 -123 CURVE SMOOTH",
"252 -163 OFFCURVE",
"272 -195 OFFCURVE",
"315 -195 CURVE SMOOTH"
);
},
{
closed = 1;
nodes = (
"515 176 LINE",
"526 235 LINE",
"201 235 LINE",
"189 176 LINE"
);
},
{
closed = 1;
nodes = (
"430 820 OFFCURVE",
"512 890 OFFCURVE",
"540 927 CURVE",
"540 927 OFFCURVE",
"543 927 OFFCURVE",
"543 927 CURVE",
"557 890 OFFCURVE",
"610 820 OFFCURVE",
"645 785 CURVE",
"732 840 LINE",
"692 869 OFFCURVE",
"612 963 OFFCURVE",
"599 996 CURVE",
"599 996 OFFCURVE",
"512 996 OFFCURVE",
"512 996 CURVE",
"485 963 OFFCURVE",
"368 869 OFFCURVE",
"317 840 CURVE",
"382 785 LINE"
);
}
);
width = 780;
}
);
leftKerningGroup = A;
note = Acircumflexdotbelow;
rightKerningGroup = A;
unicode = 1EAC;
},
{
glyphname = Acircumflexgrave;
lastChange = "2015-10-27 16:22:00 +0000";
layers = (
{
layerId = "A20AAD8A-5619-416D-9D3E-77802FB4F06A";
name = "Bold Italic";
paths = (
{
closed = 1;
nodes = (
"216 0 LINE",
"220 20 LINE",
"193 31 OFFCURVE",
"171 41 OFFCURVE",
"146 46 CURVE",
"415 534 LINE",
"480 48 LINE",
"468 46 OFFCURVE",
"443 39 OFFCURVE",
"399 25 CURVE",
"395 0 LINE",
"736 0 LINE",
"740 22 LINE",
"715 32 OFFCURVE",
"691 40 OFFCURVE",
"669 46 CURVE",
"564 704 LINE",
"425 704 LINE",
"54 49 LINE",
"50 48 OFFCURVE",
"1 35 OFFCURVE",
"-28 26 CURVE",
"-33 0 LINE"
);
},
{
closed = 1;
nodes = (
"515 176 LINE",
"526 235 LINE",
"201 235 LINE",
"189 176 LINE"
);
},
{
closed = 1;
nodes = (
"429 975 LINE",
"374 1074 LINE SMOOTH",
"364 1093 OFFCURVE",
"344 1123 OFFCURVE",
"311 1123 CURVE SMOOTH",
"269 1123 OFFCURVE",
"246 1090 OFFCURVE",
"242 1068 CURVE",
"235 1039 OFFCURVE",
"256 1014 OFFCURVE",
"292 994 CURVE SMOOTH",
"393 937 LINE"
);
},
{
closed = 1;
nodes = (
"431 821 OFFCURVE",
"513 891 OFFCURVE",
"541 928 CURVE",
"541 928 OFFCURVE",
"544 928 OFFCURVE",
"544 928 CURVE",
"558 891 OFFCURVE",
"611 821 OFFCURVE",
"646 786 CURVE",
"732 841 LINE",
"692 870 OFFCURVE",
"613 964 OFFCURVE",
"600 997 CURVE",
"600 997 OFFCURVE",
"513 997 OFFCURVE",
"513 997 CURVE",
"486 964 OFFCURVE",
"368 870 OFFCURVE",
"317 841 CURVE",
"382 786 LINE"
);
}
);
width = 780;
}
);
leftKerningGroup = A;
note = Acircumflexgrave;
rightKerningGroup = A;
unicode = 1EA6;
},
{
glyphname = Acircumflexhookabove;
lastChange = "2015-10-27 16:21:59 +0000";
layers = (
{
layerId = "A20AAD8A-5619-416D-9D3E-77802FB4F06A";
name = "Bold Italic";
paths = (
{
closed = 1;
nodes = (
"216 0 LINE",
"220 20 LINE",
"193 31 OFFCURVE",
"171 41 OFFCURVE",
"146 46 CURVE",
"415 534 LINE",
"480 48 LINE",
"468 46 OFFCURVE",
"443 39 OFFCURVE",
"399 25 CURVE",
"395 0 LINE",
"736 0 LINE",
"740 22 LINE",
"715 32 OFFCURVE",
"691 40 OFFCURVE",
"669 46 CURVE",
"564 704 LINE",
"425 704 LINE",
"54 49 LINE",
"50 48 OFFCURVE",
"1 35 OFFCURVE",
"-28 26 CURVE",
"-33 0 LINE"
);
},
{
closed = 1;
nodes = (
"515 176 LINE",
"526 235 LINE",
"201 235 LINE",
"189 176 LINE"
);
},
{
closed = 1;
nodes = (
"431 821 OFFCURVE",
"513 891 OFFCURVE",
"541 928 CURVE",
"541 928 OFFCURVE",
"544 928 OFFCURVE",
"544 928 CURVE",
"558 891 OFFCURVE",
"611 821 OFFCURVE",
"646 786 CURVE",
"732 841 LINE",
"692 870 OFFCURVE",
"613 964 OFFCURVE",
"600 997 CURVE",
"600 997 OFFCURVE",
"513 997 OFFCURVE",
"513 997 CURVE",
"486 964 OFFCURVE",
"368 870 OFFCURVE",
"317 841 CURVE",
"382 786 LINE"
);
},
{
closed = 1;
nodes = (
"742 964 LINE",
"759 1004 LINE",
"806 1009 OFFCURVE",
"851 1026 OFFCURVE",
"863 1088 CURVE SMOOTH",
"876 1156 OFFCURVE",
"823 1180 OFFCURVE",
"766 1180 CURVE SMOOTH",
"737 1180 OFFCURVE",
"708 1173 OFFCURVE",
"686 1163 CURVE",
"684 1121 LINE",
"703 1132 OFFCURVE",
"725 1136 OFFCURVE",
"740 1136 CURVE SMOOTH",
"777 1136 OFFCURVE",
"790 1113 OFFCURVE",
"785 1089 CURVE SMOOTH",
"778 1051 OFFCURVE",
"746 1042 OFFCURVE",
"729 1042 CURVE SMOOTH",
"689 1042 LINE",
"677 964 LINE"
);
}
);
width = 780;
}
);
leftKerningGroup = A;
note = Acircumflexhookabove;
rightKerningGroup = A;
unicode = 1EA8;
},
{
glyphname = Acircumflextilde;
lastChange = "2015-10-27 16:21:59 +0000";
layers = (
{
layerId = "A20AAD8A-5619-416D-9D3E-77802FB4F06A";
name = "Bold Italic";
paths = (
{
closed = 1;
nodes = (
"216 0 LINE",
"220 20 LINE",
"193 31 OFFCURVE",
"171 41 OFFCURVE",
"146 46 CURVE",
"415 534 LINE",
"480 48 LINE",
"468 46 OFFCURVE",
"443 39 OFFCURVE",
"399 25 CURVE",
"395 0 LINE",
"736 0 LINE",
"740 22 LINE",
"715 32 OFFCURVE",
"691 40 OFFCURVE",
"669 46 CURVE",
"564 704 LINE",
"425 704 LINE",
"54 49 LINE",
"50 48 OFFCURVE",
"1 35 OFFCURVE",
"-28 26 CURVE",
"-33 0 LINE"
);
},
{
closed = 1;
nodes = (
"515 176 LINE",
"526 235 LINE",
"201 235 LINE",
"189 176 LINE"
);
},
{
closed = 1;
nodes = (
"431 821 OFFCURVE",
"513 891 OFFCURVE",
"541 928 CURVE",
"541 928 OFFCURVE",
"544 928 OFFCURVE",
"544 928 CURVE",
"558 891 OFFCURVE",
"611 821 OFFCURVE",
"646 786 CURVE",
"732 841 LINE",
"692 870 OFFCURVE",
"613 964 OFFCURVE",
"600 997 CURVE",
"600 997 OFFCURVE",
"513 997 OFFCURVE",
"513 997 CURVE",
"486 964 OFFCURVE",
"368 870 OFFCURVE",
"317 841 CURVE",
"382 786 LINE"
);
},
{
closed = 1;
nodes = (
"446 1040 LINE",
"457 1069 OFFCURVE",
"484 1088 OFFCURVE",
"516 1088 CURVE SMOOTH",
"565 1088 OFFCURVE",
"589 1040 OFFCURVE",
"649 1040 CURVE SMOOTH",
"731 1040 OFFCURVE",
"777 1090 OFFCURVE",
"799 1163 CURVE",
"737 1163 LINE",
"717 1117 OFFCURVE",
"680 1114 OFFCURVE",
"660 1114 CURVE SMOOTH",
"623 1114 OFFCURVE",
"612 1162 OFFCURVE",
"537 1162 CURVE SMOOTH",
"465 1162 OFFCURVE",
"411 1119 OFFCURVE",
"385 1040 CURVE"
);
}
);
width = 780;
}
);
leftKerningGroup = A;
note = Acircumflextilde;
rightKerningGroup = A;
unicode = 1EAA;
},
{
glyphname = Adieresis;
lastChange = "2015-10-27 16:22:00 +0000";
layers = (
{
layerId = "A20AAD8A-5619-416D-9D3E-77802FB4F06A";
name = "Bold Italic";
paths = (
{
closed = 1;
nodes = (
"216 0 LINE",
"220 20 LINE",
"193 31 OFFCURVE",
"171 41 OFFCURVE",
"146 46 CURVE",
"415 534 LINE",
"480 48 LINE",
"468 46 OFFCURVE",
"443 39 OFFCURVE",
"399 25 CURVE",
"395 0 LINE",
"736 0 LINE",
"740 22 LINE",
"715 32 OFFCURVE",
"691 40 OFFCURVE",
"669 46 CURVE",
"564 704 LINE",
"425 704 LINE",
"54 49 LINE",
"50 48 OFFCURVE",
"1 35 OFFCURVE",
"-28 26 CURVE",
"-33 0 LINE"
);
},
{
closed = 1;
nodes = (
"515 176 LINE",
"526 235 LINE",
"201 235 LINE",
"189 176 LINE"
);
},
{
closed = 1;
nodes = (
"413 786 OFFCURVE",
"445 818 OFFCURVE",
"454 858 CURVE SMOOTH",
"462 898 OFFCURVE",
"442 931 OFFCURVE",
"398 931 CURVE SMOOTH",
"356 931 OFFCURVE",
"324 898 OFFCURVE",
"316 858 CURVE SMOOTH",
"307 818 OFFCURVE",
"327 786 OFFCURVE",
"371 786 CURVE SMOOTH"
);
},
{
closed = 1;
nodes = (
"656 786 OFFCURVE",
"688 818 OFFCURVE",
"697 858 CURVE SMOOTH",
"705 898 OFFCURVE",
"684 931 OFFCURVE",
"641 931 CURVE SMOOTH",
"598 931 OFFCURVE",
"565 898 OFFCURVE",
"558 858 CURVE SMOOTH",
"549 818 OFFCURVE",
"569 786 OFFCURVE",
"612 786 CURVE SMOOTH"
);
}
);
width = 780;
}
);
leftKerningGroup = A;
note = Adieresis;
rightKerningGroup = A;
unicode = 00C4;
},
{
glyphname = Adotbelow;
lastChange = "2015-10-27 16:22:00 +0000";
layers = (
{
layerId = "A20AAD8A-5619-416D-9D3E-77802FB4F06A";
name = "Bold Italic";
paths = (
{
closed = 1;
nodes = (
"216 0 LINE",
"220 20 LINE",
"193 31 OFFCURVE",
"171 41 OFFCURVE",
"146 46 CURVE",
"415 534 LINE",
"480 48 LINE",
"468 46 OFFCURVE",
"443 39 OFFCURVE",
"399 25 CURVE",
"395 0 LINE",
"736 0 LINE",
"740 22 LINE",
"715 32 OFFCURVE",
"691 40 OFFCURVE",
"669 46 CURVE",
"564 704 LINE",
"425 704 LINE",
"54 49 LINE",
"50 48 OFFCURVE",
"1 35 OFFCURVE",
"-28 26 CURVE",
"-33 0 LINE"
);
},
{
closed = 1;
nodes = (
"355 -195 OFFCURVE",
"389 -163 OFFCURVE",
"396 -123 CURVE SMOOTH",
"405 -83 OFFCURVE",
"385 -50 OFFCURVE",
"342 -50 CURVE SMOOTH",
"299 -50 OFFCURVE",
"266 -83 OFFCURVE",
"257 -123 CURVE SMOOTH",
"250 -163 OFFCURVE",
"269 -195 OFFCURVE",
"312 -195 CURVE SMOOTH"
);
},
{
closed = 1;
nodes = (
"515 176 LINE",
"526 235 LINE",
"201 235 LINE",
"189 176 LINE"
);
}
);
width = 780;
}
);
leftKerningGroup = A;
note = Adotbelow;
rightKerningGroup = A;
unicode = 1EA0;
},
{
glyphname = Agrave;
lastChange = "2015-10-27 16:22:00 +0000";
layers = (
{
layerId = "A20AAD8A-5619-416D-9D3E-77802FB4F06A";
name = "Bold Italic";
paths = (
{
closed = 1;
nodes = (
"216 0 LINE",
"220 20 LINE",
"193 31 OFFCURVE",
"171 41 OFFCURVE",
"146 46 CURVE",
"415 534 LINE",
"480 48 LINE",
"468 46 OFFCURVE",
"443 39 OFFCURVE",
"399 25 CURVE",
"395 0 LINE",
"736 0 LINE",
"740 22 LINE",
"715 32 OFFCURVE",
"691 40 OFFCURVE",
"669 46 CURVE",
"564 704 LINE",
"425 704 LINE",
"54 49 LINE",
"50 48 OFFCURVE",
"1 35 OFFCURVE",
"-28 26 CURVE",
"-33 0 LINE"
);
},
{
closed = 1;
nodes = (
"515 176 LINE",
"526 235 LINE",
"201 235 LINE",
"189 176 LINE"
);
},
{
closed = 1;
nodes = (
"647 830 LINE",
"554 969 LINE SMOOTH",
"550 975 OFFCURVE",
"528 1011 OFFCURVE",
"489 1011 CURVE SMOOTH",
"446 1011 OFFCURVE",
"424 982 OFFCURVE",
"420 960 CURVE",
"414 931 OFFCURVE",
"431 909 OFFCURVE",
"464 886 CURVE SMOOTH",
"609 786 LINE"
);
}
);
width = 780;
}
);
leftKerningGroup = A;
note = Agrave;
rightKerningGroup = A;
unicode = 00C0;
},
{
glyphname = Ahookabove;
lastChange = "2015-10-27 16:21:58 +0000";
layers = (
{
layerId = "A20AAD8A-5619-416D-9D3E-77802FB4F06A";
name = "Bold Italic";
paths = (
{
closed = 1;
nodes = (
"216 0 LINE",
"220 20 LINE",
"193 31 OFFCURVE",
"171 41 OFFCURVE",
"146 46 CURVE",
"415 534 LINE",
"480 48 LINE",
"468 46 OFFCURVE",
"443 39 OFFCURVE",
"399 25 CURVE",
"395 0 LINE",
"736 0 LINE",
"740 22 LINE",
"715 32 OFFCURVE",
"691 40 OFFCURVE",
"669 46 CURVE",
"564 704 LINE",
"425 704 LINE",
"54 49 LINE",
"50 48 OFFCURVE",
"1 35 OFFCURVE",
"-28 26 CURVE",
"-33 0 LINE"
);
},
{
closed = 1;
nodes = (
"515 176 LINE",
"526 235 LINE",
"201 235 LINE",
"189 176 LINE"
);
},
{
closed = 1;
nodes = (
"562 786 LINE",
"586 859 LINE",
"639 864 OFFCURVE",
"688 883 OFFCURVE",
"703 951 CURVE SMOOTH",
"717 1025 OFFCURVE",
"657 1051 OFFCURVE",
"592 1051 CURVE SMOOTH",
"559 1051 OFFCURVE",
"524 1043 OFFCURVE",
"500 1032 CURVE",
"497 987 LINE",
"520 999 OFFCURVE",
"545 1003 OFFCURVE",
"563 1003 CURVE SMOOTH",
"604 1003 OFFCURVE",
"619 978 OFFCURVE",
"614 952 CURVE SMOOTH",
"606 910 OFFCURVE",
"570 900 OFFCURVE",
"550 900 CURVE SMOOTH",
"505 900 LINE",
"487 786 LINE"
);
}
);
width = 780;
}
);
leftKerningGroup = A;
note = Ahookabove;
rightKerningGroup = A;
unicode = 1EA2;
},
{
glyphname = Amacron;
lastChange = "2015-10-27 16:21:59 +0000";
layers = (
{
layerId = "A20AAD8A-5619-416D-9D3E-77802FB4F06A";
name = "Bold Italic";
paths = (
{
closed = 1;
nodes = (
"216 0 LINE",
"220 20 LINE",
"193 31 OFFCURVE",
"171 41 OFFCURVE",
"146 46 CURVE",
"415 534 LINE",
"480 48 LINE",
"468 46 OFFCURVE",
"443 39 OFFCURVE",
"399 25 CURVE",
"395 0 LINE",
"736 0 LINE",
"740 22 LINE",
"715 32 OFFCURVE",
"691 40 OFFCURVE",
"669 46 CURVE",
"564 704 LINE",
"425 704 LINE",
"54 49 LINE",
"50 48 OFFCURVE",
"1 35 OFFCURVE",
"-28 26 CURVE",
"-33 0 LINE"
);
},
{
closed = 1;
nodes = (
"515 176 LINE",
"526 235 LINE",
"201 235 LINE",
"189 176 LINE"
);
},
{
closed = 1;
nodes = (
"721 786 LINE",
"732 843 LINE",
"323 843 LINE",
"311 786 LINE"
);
}
);
width = 780;
}
);
leftKerningGroup = A;
note = Amacron;
rightKerningGroup = A;
unicode = 0100;
},
{
glyphname = Aogonek;
lastChange = "2015-10-27 16:21:59 +0000";
layers = (
{
layerId = "A20AAD8A-5619-416D-9D3E-77802FB4F06A";
name = "Bold Italic";
paths = (
{
closed = 1;
nodes = (
"216 0 LINE",
"220 20 LINE",
"193 31 OFFCURVE",
"171 41 OFFCURVE",
"146 46 CURVE",
"415 534 LINE",
"480 48 LINE",
"468 46 OFFCURVE",
"443 39 OFFCURVE",
"399 25 CURVE",
"395 0 LINE",
"736 0 LINE",
"740 22 LINE",
"715 32 OFFCURVE",
"691 40 OFFCURVE",
"669 46 CURVE",
"564 704 LINE",
"425 704 LINE",
"54 49 LINE",
"50 48 OFFCURVE",
"1 35 OFFCURVE",
"-28 26 CURVE",
"-33 0 LINE"
);
},
{
closed = 1;
nodes = (
"694 -218 OFFCURVE",
"747 -206 OFFCURVE",
"777 -186 CURVE",
"792 -109 LINE",
"761 -127 OFFCURVE",
"734 -134 OFFCURVE",
"715 -134 CURVE SMOOTH",
"679 -134 OFFCURVE",
"661 -110 OFFCURVE",
"667 -82 CURVE SMOOTH",
"673 -52 OFFCURVE",
"704 -17 OFFCURVE",
"726 0 CURVE",
"641 0 LINE",
"575 -17 OFFCURVE",
"528 -76 OFFCURVE",
"519 -122 CURVE SMOOTH",
"506 -184 OFFCURVE",
"554 -218 OFFCURVE",
"645 -218 CURVE SMOOTH"
);
},
{
closed = 1;
nodes = (
"515 176 LINE",
"526 235 LINE",
"201 235 LINE",
"189 176 LINE"
);
}
);
width = 780;
}
);
leftKerningGroup = A;
note = Aogonek;
rightKerningGroup = A;
unicode = 0104;
},
{
glyphname = Aring;
lastChange = "2015-10-27 16:21:59 +0000";
layers = (
{
layerId = "A20AAD8A-5619-416D-9D3E-77802FB4F06A";
name = "Bold Italic";
paths = (
{
closed = 1;
nodes = (
"216 0 LINE",
"220 20 LINE",
"193 31 OFFCURVE",
"171 41 OFFCURVE",
"146 46 CURVE",
"415 534 LINE",
"480 48 LINE",
"468 46 OFFCURVE",
"443 39 OFFCURVE",
"399 25 CURVE",
"395 0 LINE",
"736 0 LINE",
"740 22 LINE",
"715 32 OFFCURVE",
"691 40 OFFCURVE",
"669 46 CURVE",
"564 704 LINE",
"425 704 LINE",
"54 49 LINE",
"50 48 OFFCURVE",
"1 35 OFFCURVE",
"-28 26 CURVE",
"-33 0 LINE"
);
},
{
closed = 1;
nodes = (
"515 176 LINE",
"526 235 LINE",
"201 235 LINE",
"189 176 LINE"
);
},
{
closed = 1;
nodes = (
"572 750 OFFCURVE",
"626 795 OFFCURVE",
"639 861 CURVE SMOOTH",
"653 927 OFFCURVE",
"617 972 OFFCURVE",
"548 972 CURVE SMOOTH",
"479 972 OFFCURVE",
"424 927 OFFCURVE",
"411 861 CURVE SMOOTH",
"397 795 OFFCURVE",
"434 750 OFFCURVE",
"503 750 CURVE SMOOTH"
);
},
{
closed = 1;
nodes = (
"482 804 OFFCURVE",
"462 827 OFFCURVE",
"468 861 CURVE SMOOTH",
"475 895 OFFCURVE",
"505 918 OFFCURVE",
"537 918 CURVE SMOOTH",
"568 918 OFFCURVE",
"588 895 OFFCURVE",
"582 861 CURVE SMOOTH",
"575 827 OFFCURVE",
"545 804 OFFCURVE",
"514 804 CURVE SMOOTH"
);
}
);
width = 780;
}
);
leftKerningGroup = A;
note = Aring;
rightKerningGroup = A;
unicode = 00C5;
},
{
glyphname = Aringacute;
lastChange = "2015-10-27 16:22:00 +0000";
layers = (
{
layerId = "A20AAD8A-5619-416D-9D3E-77802FB4F06A";
name = "Bold Italic";
paths = (
{
closed = 1;
nodes = (
"216 0 LINE",
"220 20 LINE",
"193 31 OFFCURVE",
"171 41 OFFCURVE",
"146 46 CURVE",
"415 534 LINE",
"480 48 LINE",
"468 46 OFFCURVE",
"443 39 OFFCURVE",
"399 25 CURVE",
"395 0 LINE",
"736 0 LINE",
"740 22 LINE",
"715 32 OFFCURVE",
"691 40 OFFCURVE",
"669 46 CURVE",
"564 704 LINE",
"425 704 LINE",
"54 49 LINE",
"50 48 OFFCURVE",
"1 35 OFFCURVE",
"-28 26 CURVE",
"-33 0 LINE"
);
},
{
closed = 1;
nodes = (
"515 176 LINE",
"526 235 LINE",
"201 235 LINE",
"189 176 LINE"
);
},
{
closed = 1;
nodes = (
"572 750 OFFCURVE",
"626 795 OFFCURVE",
"639 861 CURVE SMOOTH",
"653 927 OFFCURVE",
"617 972 OFFCURVE",
"548 972 CURVE SMOOTH",
"479 972 OFFCURVE",
"424 927 OFFCURVE",
"411 861 CURVE SMOOTH",
"397 795 OFFCURVE",
"434 750 OFFCURVE",
"503 750 CURVE SMOOTH"
);
},
{
closed = 1;
nodes = (
"482 804 OFFCURVE",
"462 827 OFFCURVE",
"468 861 CURVE SMOOTH",
"475 895 OFFCURVE",
"505 918 OFFCURVE",
"537 918 CURVE SMOOTH",
"568 918 OFFCURVE",
"588 895 OFFCURVE",
"582 861 CURVE SMOOTH",
"575 827 OFFCURVE",
"545 804 OFFCURVE",
"514 804 CURVE SMOOTH"
);
},
{
closed = 1;
nodes = (
"642 1093 LINE SMOOTH",
"684 1116 OFFCURVE",
"708 1138 OFFCURVE",
"715 1167 CURVE",
"719 1189 OFFCURVE",
"708 1218 OFFCURVE",
"667 1218 CURVE SMOOTH",
"628 1218 OFFCURVE",
"592 1182 OFFCURVE",
"587 1176 CURVE",
"436 1037 LINE",
"457 993 LINE"
);
}
);
width = 780;
}
);
leftKerningGroup = A;
note = Aringacute;
rightKerningGroup = A;
unicode = 01FA;
},
{
glyphname = Atilde;
lastChange = "2015-10-27 16:21:59 +0000";
layers = (
{
layerId = "A20AAD8A-5619-416D-9D3E-77802FB4F06A";
name = "Bold Italic";
paths = (
{
closed = 1;
nodes = (
"216 0 LINE",
"220 20 LINE",
"193 31 OFFCURVE",
"171 41 OFFCURVE",
"146 46 CURVE",
"415 534 LINE",
"480 48 LINE",
"468 46 OFFCURVE",
"443 39 OFFCURVE",
"399 25 CURVE",
"395 0 LINE",
"736 0 LINE",
"740 22 LINE",
"715 32 OFFCURVE",
"691 40 OFFCURVE",
"669 46 CURVE",
"564 704 LINE",
"425 704 LINE",
"54 49 LINE",
"50 48 OFFCURVE",
"1 35 OFFCURVE",
"-28 26 CURVE",
"-33 0 LINE"
);
},
{
closed = 1;
nodes = (
"515 176 LINE",
"526 235 LINE",
"201 235 LINE",
"189 176 LINE"
);
},
{
closed = 1;
nodes = (
"384 786 LINE",
"395 817 OFFCURVE",
"415 836 OFFCURVE",
"443 836 CURVE SMOOTH",
"475 836 OFFCURVE",
"529 786 OFFCURVE",
"590 786 CURVE SMOOTH",
"677 786 OFFCURVE",
"725 839 OFFCURVE",
"747 915 CURVE",
"659 915 LINE",
"638 867 OFFCURVE",
"616 864 OFFCURVE",
"595 864 CURVE SMOOTH",
"556 864 OFFCURVE",
"531 914 OFFCURVE",
"453 914 CURVE SMOOTH",
"377 914 OFFCURVE",
"323 869 OFFCURVE",
"295 786 CURVE"
);
}
);
width = 780;
}
);
leftKerningGroup = A;
note = Atilde;
rightKerningGroup = A;
unicode = 00C3;
},
{
glyphname = AE;
lastChange = "2015-10-27 16:21:59 +0000";
layers = (
{
layerId = "A20AAD8A-5619-416D-9D3E-77802FB4F06A";
name = "Bold Italic";
paths = (
{
closed = 1;
nodes = (
"226 0 LINE",
"229 20 LINE",
"204 31 OFFCURVE",
"175 41 OFFCURVE",
"151 46 CURVE",
"248 176 LINE",
"456 176 LINE",
"429 45 LINE",
"406 41 OFFCURVE",
"372 33 OFFCURVE",
"340 22 CURVE",
"336 0 LINE",
"924 0 LINE",
"984 196 LINE",
"944 196 LINE",
"920 174 OFFCURVE",
"871 99 OFFCURVE",
"859 59 CURVE",
"621 59 LINE",
"677 330 LINE",
"823 330 LINE",
"821 313 OFFCURVE",
"822 274 OFFCURVE",
"826 241 CURVE",
"855 241 LINE",
"903 477 LINE",
"874 477 LINE",
"855 446 OFFCURVE",
"841 407 OFFCURVE",
"834 389 CURVE",
"688 389 LINE",
"740 641 LINE",
"971 641 LINE",
"966 607 OFFCURVE",
"977 527 OFFCURVE",
"987 503 CURVE",
"1027 503 LINE",
"1068 700 LINE",
"478 700 LINE",
"474 678 LINE",
"490 671 OFFCURVE",
"507 666 OFFCURVE",
"522 662 CURVE",
"52 47 LINE",
"28 41 OFFCURVE",
"3 33 OFFCURVE",
"-29 22 CURVE",
"-33 0 LINE"
);
},
{
closed = 1;
nodes = (
"534 558 LINE",
"468 235 LINE",
"292 235 LINE"
);
}
);
width = 1016;
}
);
leftKerningGroup = A;
note = AE;
unicode = 00C6;
},
{
glyphname = AEacute;
lastChange = "2015-10-27 16:22:00 +0000";
layers = (
{
layerId = "A20AAD8A-5619-416D-9D3E-77802FB4F06A";
name = "Bold Italic";
paths = (
{
closed = 1;
nodes = (
"226 0 LINE",
"229 20 LINE",
"204 31 OFFCURVE",
"175 41 OFFCURVE",
"151 46 CURVE",
"248 176 LINE",
"456 176 LINE",
"429 45 LINE",
"406 41 OFFCURVE",
"372 33 OFFCURVE",
"340 22 CURVE",
"336 0 LINE",
"924 0 LINE",
"984 196 LINE",
"944 196 LINE",
"920 174 OFFCURVE",
"871 99 OFFCURVE",
"859 59 CURVE",
"621 59 LINE",
"677 330 LINE",
"823 330 LINE",
"821 313 OFFCURVE",
"822 274 OFFCURVE",
"826 241 CURVE",
"855 241 LINE",
"903 477 LINE",
"874 477 LINE",
"855 446 OFFCURVE",
"841 407 OFFCURVE",
"834 389 CURVE",
"688 389 LINE",
"740 641 LINE",
"971 641 LINE",
"966 607 OFFCURVE",
"977 527 OFFCURVE",
"987 503 CURVE",
"1027 503 LINE",
"1068 700 LINE",
"478 700 LINE",
"474 678 LINE",
"490 671 OFFCURVE",
"507 666 OFFCURVE",
"522 662 CURVE",
"52 47 LINE",
"28 41 OFFCURVE",
"3 33 OFFCURVE",
"-29 22 CURVE",
"-33 0 LINE"
);
},
{
closed = 1;
nodes = (
"534 558 LINE",
"468 235 LINE",
"292 235 LINE"
);
},
{
closed = 1;
nodes = (
"893 886 LINE SMOOTH",
"934 909 OFFCURVE",
"959 931 OFFCURVE",
"966 960 CURVE",
"970 982 OFFCURVE",
"959 1011 OFFCURVE",
"918 1011 CURVE SMOOTH",
"878 1011 OFFCURVE",
"843 975 OFFCURVE",
"837 969 CURVE",
"686 830 LINE",
"708 786 LINE"
);
}
);
width = 1016;
}
);
leftKerningGroup = A;
note = AEacute;
unicode = 01FC;
},
{
glyphname = B;
lastChange = "2015-10-27 16:21:59 +0000";
layers = (
{
layerId = "A20AAD8A-5619-416D-9D3E-77802FB4F06A";
name = "Bold Italic";
paths = (
{
closed = 1;
nodes = (
"344 0 LINE SMOOTH",
"525 0 OFFCURVE",
"602 70 OFFCURVE",
"628 197 CURVE SMOOTH",
"641 260 OFFCURVE",
"615 338 OFFCURVE",
"515 367 CURVE",
"516 374 LINE",
"603 402 OFFCURVE",
"655 465 OFFCURVE",
"670 538 CURVE SMOOTH",
"691 642 OFFCURVE",
"639 700 OFFCURVE",
"456 700 CURVE SMOOTH",
"117 700 LINE",
"112 677 LINE",
"142 666 OFFCURVE",
"164 658 OFFCURVE",
"185 654 CURVE",
"61 49 LINE",
"51 47 OFFCURVE",
"34 42 OFFCURVE",
"-21 21 CURVE",
"-25 0 LINE"
);
},
{
closed = 1;
nodes = (
"313 339 LINE",
"372 339 LINE SMOOTH",
"432 339 OFFCURVE",
"456 294 OFFCURVE",
"438 204 CURVE SMOOTH",
"419 112 OFFCURVE",
"383 59 OFFCURVE",
"327 59 CURVE SMOOTH",
"255 59 LINE"
);
},
{
closed = 1;
nodes = (
"374 641 LINE",
"418 641 LINE SMOOTH",
"474 641 OFFCURVE",
"491 605 OFFCURVE",
"474 526 CURVE SMOOTH",
"459 448 OFFCURVE",
"420 397 OFFCURVE",
"364 397 CURVE SMOOTH",
"324 397 LINE"
);
}
);
width = 642;
}
);
note = B;
unicode = 0042;
},
{
glyphname = C;
lastChange = "2015-10-27 16:21:59 +0000";
layers = (
{
layerId = "A20AAD8A-5619-416D-9D3E-77802FB4F06A";
name = "Bold Italic";
paths = (
{
closed = 1;
nodes = (
"442 -10 OFFCURVE",
"535 18 OFFCURVE",
"600 67 CURVE",
"584 120 LINE",
"509 70 OFFCURVE",
"436 52 OFFCURVE",
"382 52 CURVE SMOOTH",
"270 52 OFFCURVE",
"222 159 OFFCURVE",
"261 350 CURVE SMOOTH",
"300 540 OFFCURVE",
"405 648 OFFCURVE",
"521 648 CURVE SMOOTH",
"561 648 OFFCURVE",
"596 641 OFFCURVE",
"629 610 CURVE",
"623 557 OFFCURVE",
"622 504 OFFCURVE",
"626 463 CURVE",
"670 463 LINE",
"719 625 LINE",
"677 678 OFFCURVE",
"612 710 OFFCURVE",
"486 710 CURVE SMOOTH",
"257 710 OFFCURVE",
"110 572 OFFCURVE",
"65 350 CURVE SMOOTH",
"20 128 OFFCURVE",
"109 -10 OFFCURVE",
"345 -10 CURVE SMOOTH"
);
}
);
width = 666;
}
);
leftKerningGroup = C;
note = C;
unicode = 0043;
},
{
glyphname = Cacute;
lastChange = "2015-10-27 16:21:59 +0000";
layers = (
{
layerId = "A20AAD8A-5619-416D-9D3E-77802FB4F06A";
name = "Bold Italic";
paths = (
{
closed = 1;
nodes = (
"442 -10 OFFCURVE",
"535 18 OFFCURVE",
"600 67 CURVE",
"584 120 LINE",
"509 70 OFFCURVE",
"436 52 OFFCURVE",
"382 52 CURVE SMOOTH",
"270 52 OFFCURVE",
"222 159 OFFCURVE",
"261 350 CURVE SMOOTH",
"300 540 OFFCURVE",
"405 648 OFFCURVE",
"521 648 CURVE SMOOTH",
"561 648 OFFCURVE",
"596 641 OFFCURVE",
"629 610 CURVE",
"623 557 OFFCURVE",
"622 504 OFFCURVE",
"626 463 CURVE",
"670 463 LINE",
"719 625 LINE",
"677 678 OFFCURVE",
"612 710 OFFCURVE",
"486 710 CURVE SMOOTH",
"257 710 OFFCURVE",
"110 572 OFFCURVE",
"65 350 CURVE SMOOTH",
"20 128 OFFCURVE",
"109 -10 OFFCURVE",
"345 -10 CURVE SMOOTH"
);
},
{
closed = 1;
nodes = (
"652 886 LINE SMOOTH",
"693 909 OFFCURVE",
"718 931 OFFCURVE",
"725 960 CURVE",
"729 982 OFFCURVE",
"718 1011 OFFCURVE",
"677 1011 CURVE SMOOTH",
"637 1011 OFFCURVE",
"602 975 OFFCURVE",
"596 969 CURVE",
"445 830 LINE",
"467 786 LINE"
);
}
);
width = 666;
}
);
leftKerningGroup = C;
note = Cacute;
unicode = 0106;
},
{
glyphname = Ccaron;
lastChange = "2015-10-27 16:21:59 +0000";
layers = (
{
layerId = "A20AAD8A-5619-416D-9D3E-77802FB4F06A";
name = "Bold Italic";
paths = (
{
closed = 1;
nodes = (
"442 -10 OFFCURVE",
"535 18 OFFCURVE",
"600 67 CURVE",
"584 120 LINE",
"509 70 OFFCURVE",
"436 52 OFFCURVE",
"382 52 CURVE SMOOTH",
"270 52 OFFCURVE",
"222 159 OFFCURVE",
"261 350 CURVE SMOOTH",
"300 540 OFFCURVE",
"405 648 OFFCURVE",
"521 648 CURVE SMOOTH",
"561 648 OFFCURVE",
"596 641 OFFCURVE",
"629 610 CURVE",
"623 557 OFFCURVE",
"622 504 OFFCURVE",
"626 463 CURVE",
"670 463 LINE",
"719 625 LINE",
"677 678 OFFCURVE",
"612 710 OFFCURVE",
"486 710 CURVE SMOOTH",
"257 710 OFFCURVE",
"110 572 OFFCURVE",
"65 350 CURVE SMOOTH",
"20 128 OFFCURVE",
"109 -10 OFFCURVE",
"345 -10 CURVE SMOOTH"
);
},
{
closed = 1;
nodes = (
"488 786 OFFCURVE",
"575 786 OFFCURVE",
"575 786 CURVE",
"602 819 OFFCURVE",
"720 913 OFFCURVE",
"771 942 CURVE",
"706 997 LINE",
"657 962 OFFCURVE",
"575 892 OFFCURVE",
"546 855 CURVE",
"546 855 OFFCURVE",
"543 855 OFFCURVE",
"543 855 CURVE",
"530 892 OFFCURVE",
"477 962 OFFCURVE",
"442 997 CURVE",
"356 942 LINE",
"396 913 OFFCURVE",
"474 819 OFFCURVE",
"488 786 CURVE"
);
}
);
width = 666;
}
);
leftKerningGroup = C;
note = Ccaron;
unicode = 010C;
},
{
glyphname = Ccedilla;
lastChange = "2015-10-27 16:22:00 +0000";
layers = (
{
layerId = "A20AAD8A-5619-416D-9D3E-77802FB4F06A";
name = "Bold Italic";
paths = (
{
closed = 1;
nodes = (
"442 -10 OFFCURVE",
"535 18 OFFCURVE",
"600 67 CURVE",
"584 120 LINE",
"509 70 OFFCURVE",
"436 52 OFFCURVE",
"382 52 CURVE SMOOTH",
"270 52 OFFCURVE",
"222 159 OFFCURVE",
"261 350 CURVE SMOOTH",
"300 540 OFFCURVE",
"405 648 OFFCURVE",
"521 648 CURVE SMOOTH",
"561 648 OFFCURVE",
"596 641 OFFCURVE",
"629 610 CURVE",
"623 557 OFFCURVE",
"622 504 OFFCURVE",
"626 463 CURVE",
"670 463 LINE",
"719 625 LINE",
"677 678 OFFCURVE",
"612 710 OFFCURVE",
"486 710 CURVE SMOOTH",
"257 710 OFFCURVE",
"110 572 OFFCURVE",
"65 350 CURVE SMOOTH",
"20 128 OFFCURVE",
"109 -10 OFFCURVE",
"345 -10 CURVE SMOOTH"
);
},
{
closed = 1;
nodes = (
"327 -281 OFFCURVE",
"407 -240 OFFCURVE",
"423 -161 CURVE SMOOTH",
"431 -121 OFFCURVE",
"415 -73 OFFCURVE",
"339 -65 CURVE",
"334 -65 OFFCURVE",
"324 -64 OFFCURVE",
"319 -64 CURVE",
"380 25 LINE",
"303 25 LINE",
"232 -78 LINE",
"252 -115 LINE",
"259 -114 OFFCURVE",
"267 -114 OFFCURVE",
"274 -114 CURVE SMOOTH",
"305 -114 OFFCURVE",
"342 -123 OFFCURVE",
"334 -161 CURVE SMOOTH",
"324 -205 OFFCURVE",
"283 -218 OFFCURVE",
"241 -218 CURVE SMOOTH",
"209 -218 OFFCURVE",
"178 -209 OFFCURVE",
"160 -195 CURVE",
"123 -241 LINE",
"151 -266 OFFCURVE",
"201 -281 OFFCURVE",
"244 -281 CURVE SMOOTH"
);
}
);
width = 666;
}
);
leftKerningGroup = C;
note = Ccedilla;
unicode = 00C7;
},
{
glyphname = Ccircumflex;
lastChange = "2015-10-27 16:21:59 +0000";
layers = (
{
layerId = "A20AAD8A-5619-416D-9D3E-77802FB4F06A";
name = "Bold Italic";
paths = (
{
closed = 1;
nodes = (
"442 -10 OFFCURVE",
"535 18 OFFCURVE",
"600 67 CURVE",
"584 120 LINE",
"509 70 OFFCURVE",
"436 52 OFFCURVE",
"382 52 CURVE SMOOTH",
"270 52 OFFCURVE",
"222 159 OFFCURVE",
"261 350 CURVE SMOOTH",
"300 540 OFFCURVE",
"405 648 OFFCURVE",
"521 648 CURVE SMOOTH",
"561 648 OFFCURVE",
"596 641 OFFCURVE",
"629 610 CURVE",
"623 557 OFFCURVE",
"622 504 OFFCURVE",
"626 463 CURVE",
"670 463 LINE",
"719 625 LINE",
"677 678 OFFCURVE",
"612 710 OFFCURVE",
"486 710 CURVE SMOOTH",
"257 710 OFFCURVE",
"110 572 OFFCURVE",
"65 350 CURVE SMOOTH",
"20 128 OFFCURVE",
"109 -10 OFFCURVE",
"345 -10 CURVE SMOOTH"
);
},
{
closed = 1;
nodes = (
"436 821 OFFCURVE",
"517 891 OFFCURVE",
"546 928 CURVE",
"546 928 OFFCURVE",
"549 928 OFFCURVE",
"549 928 CURVE",
"563 891 OFFCURVE",
"615 821 OFFCURVE",
"651 786 CURVE",
"737 841 LINE",
"698 870 OFFCURVE",
"618 964 OFFCURVE",
"605 997 CURVE",
"605 997 OFFCURVE",
"517 997 OFFCURVE",
"517 997 CURVE",
"491 964 OFFCURVE",
"373 870 OFFCURVE",
"323 841 CURVE",
"388 786 LINE"
);
}
);
width = 666;
}
);
leftKerningGroup = C;
note = Ccircumflex;
unicode = 0108;
},
{
glyphname = Cdotaccent;
lastChange = "2015-10-27 16:21:59 +0000";
layers = (
{
layerId = "A20AAD8A-5619-416D-9D3E-77802FB4F06A";
name = "Bold Italic";
paths = (
{
closed = 1;
nodes = (
"442 -10 OFFCURVE",
"535 18 OFFCURVE",
"600 67 CURVE",
"584 120 LINE",
"509 70 OFFCURVE",
"436 52 OFFCURVE",
"382 52 CURVE SMOOTH",
"270 52 OFFCURVE",
"222 159 OFFCURVE",
"261 350 CURVE SMOOTH",
"300 540 OFFCURVE",
"405 648 OFFCURVE",
"521 648 CURVE SMOOTH",
"561 648 OFFCURVE",
"596 641 OFFCURVE",
"629 610 CURVE",
"623 557 OFFCURVE",
"622 504 OFFCURVE",
"626 463 CURVE",
"670 463 LINE",
"719 625 LINE",
"677 678 OFFCURVE",
"612 710 OFFCURVE",
"486 710 CURVE SMOOTH",
"257 710 OFFCURVE",
"110 572 OFFCURVE",
"65 350 CURVE SMOOTH",
"20 128 OFFCURVE",
"109 -10 OFFCURVE",
"345 -10 CURVE SMOOTH"
);
},
{
closed = 1;
nodes = (
"582 786 OFFCURVE",
"614 818 OFFCURVE",
"623 858 CURVE SMOOTH",
"631 898 OFFCURVE",
"611 931 OFFCURVE",
"567 931 CURVE SMOOTH",
"524 931 OFFCURVE",
"492 898 OFFCURVE",
"484 858 CURVE SMOOTH",
"475 818 OFFCURVE",
"495 786 OFFCURVE",
"539 786 CURVE SMOOTH"
);
}
);
width = 666;
}
);
leftKerningGroup = C;
note = Cdotaccent;
unicode = 010A;
},
{
glyphname = D;
lastChange = "2015-10-27 16:21:59 +0000";
layers = (
{
layerId = "A20AAD8A-5619-416D-9D3E-77802FB4F06A";
name = "Bold Italic";
paths = (
{
closed = 1;
nodes = (
"321 0 LINE SMOOTH",
"553 0 OFFCURVE",
"671 127 OFFCURVE",
"717 350 CURVE SMOOTH",
"762 573 OFFCURVE",
"696 700 OFFCURVE",
"464 700 CURVE SMOOTH",
"127 700 LINE",
"123 678 LINE",
"149 669 OFFCURVE",
"172 660 OFFCURVE",
"193 655 CURVE",
"69 48 LINE",
"58 46 OFFCURVE",
"22 34 OFFCURVE",
"-11 24 CURVE",
"-15 0 LINE"
);
},
{
closed = 1;
nodes = (
"379 641 LINE",
"451 641 LINE SMOOTH",
"548 641 OFFCURVE",
"557 524 OFFCURVE",
"521 350 CURVE SMOOTH",
"486 176 OFFCURVE",
"430 59 OFFCURVE",
"330 59 CURVE SMOOTH",
"260 59 LINE"
);
}
);
width = 717;
}
);
note = D;
rightKerningGroup = D;
unicode = 0044;
},
{
glyphname = Eth;
lastChange = "2015-10-27 16:22:00 +0000";
layers = (
{
layerId = "A20AAD8A-5619-416D-9D3E-77802FB4F06A";
name = "Bold Italic";
paths = (
{
closed = 1;
nodes = (
"321 0 LINE SMOOTH",
"553 0 OFFCURVE",
"671 127 OFFCURVE",
"717 350 CURVE SMOOTH",
"762 573 OFFCURVE",
"696 700 OFFCURVE",
"464 700 CURVE SMOOTH",
"127 700 LINE",
"123 678 LINE",
"149 669 OFFCURVE",
"172 660 OFFCURVE",
"193 655 CURVE",
"69 48 LINE",
"58 46 OFFCURVE",
"22 34 OFFCURVE",
"-11 24 CURVE",
"-15 0 LINE"
);
},
{
closed = 1;
nodes = (
"434 305 LINE",
"446 363 LINE",
"77 363 LINE",
"64 305 LINE"
);
},
{
closed = 1;
nodes = (
"379 641 LINE",
"451 641 LINE SMOOTH",
"548 641 OFFCURVE",
"557 524 OFFCURVE",
"521 350 CURVE SMOOTH",
"486 176 OFFCURVE",
"430 59 OFFCURVE",
"330 59 CURVE SMOOTH",
"260 59 LINE"
);
}
);
width = 717;
}
);
note = Eth;
rightKerningGroup = D;
unicode = 00D0;
},
{
glyphname = Dcaron;
lastChange = "2015-10-27 16:21:59 +0000";
layers = (
{
layerId = "A20AAD8A-5619-416D-9D3E-77802FB4F06A";
name = "Bold Italic";
paths = (
{
closed = 1;
nodes = (
"321 0 LINE SMOOTH",
"553 0 OFFCURVE",
"671 127 OFFCURVE",
"717 350 CURVE SMOOTH",
"762 573 OFFCURVE",
"696 700 OFFCURVE",
"464 700 CURVE SMOOTH",
"127 700 LINE",
"123 678 LINE",
"149 669 OFFCURVE",
"172 660 OFFCURVE",
"193 655 CURVE",
"69 48 LINE",
"58 46 OFFCURVE",
"22 34 OFFCURVE",
"-11 24 CURVE",
"-15 0 LINE"
);
},
{
closed = 1;
nodes = (
"379 641 LINE",
"451 641 LINE SMOOTH",
"548 641 OFFCURVE",
"557 524 OFFCURVE",
"521 350 CURVE SMOOTH",
"486 176 OFFCURVE",
"430 59 OFFCURVE",
"330 59 CURVE SMOOTH",
"260 59 LINE"
);
},
{
closed = 1;
nodes = (
"419 786 OFFCURVE",
"506 786 OFFCURVE",
"506 786 CURVE",
"533 819 OFFCURVE",
"651 913 OFFCURVE",
"702 942 CURVE",
"636 997 LINE",
"588 962 OFFCURVE",
"506 892 OFFCURVE",
"477 855 CURVE",
"477 855 OFFCURVE",
"474 855 OFFCURVE",
"474 855 CURVE",
"461 892 OFFCURVE",
"408 962 OFFCURVE",
"372 997 CURVE",
"287 942 LINE",
"326 913 OFFCURVE",
"405 819 OFFCURVE",
"419 786 CURVE"
);
}
);
width = 717;
}
);
note = Dcaron;
rightKerningGroup = D;
unicode = 010E;
},
{
glyphname = Dcroat;
lastChange = "2015-10-27 16:21:59 +0000";
layers = (
{
layerId = "A20AAD8A-5619-416D-9D3E-77802FB4F06A";
name = "Bold Italic";
paths = (
{
closed = 1;
nodes = (
"321 0 LINE SMOOTH",
"553 0 OFFCURVE",
"671 127 OFFCURVE",
"717 350 CURVE SMOOTH",
"762 573 OFFCURVE",
"696 700 OFFCURVE",
"464 700 CURVE SMOOTH",
"127 700 LINE",
"123 678 LINE",
"149 669 OFFCURVE",
"172 660 OFFCURVE",
"193 655 CURVE",
"69 48 LINE",
"58 46 OFFCURVE",
"22 34 OFFCURVE",
"-11 24 CURVE",
"-15 0 LINE"
);
},
{
closed = 1;
nodes = (
"434 305 LINE",
"446 363 LINE",
"77 363 LINE",
"64 305 LINE"
);
},
{
closed = 1;
nodes = (
"379 641 LINE",
"451 641 LINE SMOOTH",
"548 641 OFFCURVE",
"557 524 OFFCURVE",
"521 350 CURVE SMOOTH",
"486 176 OFFCURVE",
"430 59 OFFCURVE",
"330 59 CURVE SMOOTH",
"260 59 LINE"
);
}
);
width = 717;
}
);
note = Dcroat;
rightKerningGroup = D;
unicode = 0110;
},
{
glyphname = Ddotbelow;
lastChange = "2015-10-27 16:21:59 +0000";
layers = (
{
layerId = "A20AAD8A-5619-416D-9D3E-77802FB4F06A";
name = "Bold Italic";
paths = (
{
closed = 1;
nodes = (
"321 0 LINE SMOOTH",
"553 0 OFFCURVE",
"671 127 OFFCURVE",
"717 350 CURVE SMOOTH",
"762 573 OFFCURVE",
"696 700 OFFCURVE",
"464 700 CURVE SMOOTH",
"127 700 LINE",
"123 678 LINE",
"149 669 OFFCURVE",
"172 660 OFFCURVE",
"193 655 CURVE",
"69 48 LINE",
"58 46 OFFCURVE",
"22 34 OFFCURVE",
"-11 24 CURVE",
"-15 0 LINE"
);
},
{
closed = 1;
nodes = (
"324 -195 OFFCURVE",
"357 -163 OFFCURVE",
"365 -123 CURVE SMOOTH",
"373 -83 OFFCURVE",
"353 -50 OFFCURVE",
"310 -50 CURVE SMOOTH",
"267 -50 OFFCURVE",
"234 -83 OFFCURVE",
"226 -123 CURVE SMOOTH",
"218 -163 OFFCURVE",
"237 -195 OFFCURVE",
"280 -195 CURVE SMOOTH"
);
},
{
closed = 1;
nodes = (
"379 641 LINE",
"451 641 LINE SMOOTH",
"548 641 OFFCURVE",
"557 524 OFFCURVE",
"521 350 CURVE SMOOTH",
"486 176 OFFCURVE",
"430 59 OFFCURVE",
"330 59 CURVE SMOOTH",
"260 59 LINE"
);
}
);
width = 717;
}
);
note = Ddotbelow;
rightKerningGroup = D;
unicode = 1E0C;
},
{
glyphname = Dlinebelow;
lastChange = "2015-10-27 16:21:59 +0000";
layers = (
{
layerId = "A20AAD8A-5619-416D-9D3E-77802FB4F06A";
name = "Bold Italic";
paths = (
{
closed = 1;
nodes = (
"321 0 LINE SMOOTH",
"553 0 OFFCURVE",
"671 127 OFFCURVE",
"717 350 CURVE SMOOTH",
"762 573 OFFCURVE",
"696 700 OFFCURVE",
"464 700 CURVE SMOOTH",
"127 700 LINE",
"123 678 LINE",
"149 669 OFFCURVE",
"172 660 OFFCURVE",
"193 655 CURVE",
"69 48 LINE",
"58 46 OFFCURVE",
"22 34 OFFCURVE",
"-11 24 CURVE",
"-15 0 LINE"
);
},
{
closed = 1;
nodes = (
"502 -112 LINE",
"514 -55 LINE",
"104 -55 LINE",
"92 -112 LINE"
);
},
{
closed = 1;
nodes = (
"379 641 LINE",
"451 641 LINE SMOOTH",
"548 641 OFFCURVE",
"557 524 OFFCURVE",
"521 350 CURVE SMOOTH",
"486 176 OFFCURVE",
"430 59 OFFCURVE",
"330 59 CURVE SMOOTH",
"260 59 LINE"
);
}
);
width = 717;
}
);
note = Dlinebelow;
rightKerningGroup = D;
unicode = 1E0E;
},
{
glyphname = E;
lastChange = "2015-10-27 16:21:59 +0000";
layers = (
{
layerId = "A20AAD8A-5619-416D-9D3E-77802FB4F06A";
name = "Bold Italic";
paths = (
{
closed = 1;
nodes = (
"573 0 LINE",
"633 196 LINE",
"592 196 LINE",
"568 174 OFFCURVE",
"519 99 OFFCURVE",
"508 59 CURVE",
"273 59 LINE",
"392 641 LINE",
"619 641 LINE",
"614 607 OFFCURVE",
"626 527 OFFCURVE",
"636 503 CURVE",
"676 503 LINE",
"716 700 LINE",
"127 700 LINE",
"123 678 LINE",
"150 667 OFFCURVE",
"181 659 OFFCURVE",
"203 655 CURVE",
"78 45 LINE",
"55 41 OFFCURVE",
"21 33 OFFCURVE",
"-12 22 CURVE",
"-15 0 LINE"
);
},
{
closed = 1;
nodes = (
"504 243 LINE",
"552 479 LINE",
"522 479 LINE",
"505 448 OFFCURVE",
"490 409 OFFCURVE",
"484 391 CURVE",
"270 391 LINE",
"257 332 LINE",
"471 332 LINE",
"469 315 OFFCURVE",
"470 276 OFFCURVE",
"474 243 CURVE"
);
}
);
width = 664;
}
);
note = E;
unicode = 0045;
},
{
glyphname = Eacute;
lastChange = "2015-10-27 16:21:59 +0000";
layers = (
{
layerId = "A20AAD8A-5619-416D-9D3E-77802FB4F06A";
name = "Bold Italic";
paths = (
{
closed = 1;
nodes = (
"573 0 LINE",
"633 196 LINE",
"592 196 LINE",
"568 174 OFFCURVE",
"519 99 OFFCURVE",
"508 59 CURVE",
"273 59 LINE",
"392 641 LINE",
"619 641 LINE",
"614 607 OFFCURVE",
"626 527 OFFCURVE",
"636 503 CURVE",
"676 503 LINE",
"716 700 LINE",
"127 700 LINE",
"123 678 LINE",
"150 667 OFFCURVE",
"181 659 OFFCURVE",
"203 655 CURVE",
"78 45 LINE",
"55 41 OFFCURVE",
"21 33 OFFCURVE",
"-12 22 CURVE",
"-15 0 LINE"
);
},
{
closed = 1;
nodes = (
"504 243 LINE",
"552 479 LINE",
"522 479 LINE",
"505 448 OFFCURVE",
"490 409 OFFCURVE",
"484 391 CURVE",
"270 391 LINE",
"257 332 LINE",
"471 332 LINE",
"469 315 OFFCURVE",
"470 276 OFFCURVE",
"474 243 CURVE"
);
},
{
closed = 1;
nodes = (
"598 886 LINE SMOOTH",
"639 909 OFFCURVE",
"664 931 OFFCURVE",
"671 960 CURVE",
"675 982 OFFCURVE",
"664 1011 OFFCURVE",
"623 1011 CURVE SMOOTH",
"584 1011 OFFCURVE",
"548 975 OFFCURVE",
"542 969 CURVE",
"392 830 LINE",
"413 786 LINE"
);
}
);
width = 664;
}
);
note = Eacute;
unicode = 00C9;
},
{
glyphname = Ebreve;
lastChange = "2015-10-27 16:22:00 +0000";
layers = (
{
layerId = "A20AAD8A-5619-416D-9D3E-77802FB4F06A";
name = "Bold Italic";
paths = (
{
closed = 1;
nodes = (
"573 0 LINE",
"633 196 LINE",
"592 196 LINE",
"568 174 OFFCURVE",
"519 99 OFFCURVE",
"508 59 CURVE",
"273 59 LINE",
"392 641 LINE",
"619 641 LINE",
"614 607 OFFCURVE",
"626 527 OFFCURVE",
"636 503 CURVE",
"676 503 LINE",
"716 700 LINE",
"127 700 LINE",
"123 678 LINE",
"150 667 OFFCURVE",
"181 659 OFFCURVE",
"203 655 CURVE",
"78 45 LINE",
"55 41 OFFCURVE",
"21 33 OFFCURVE",
"-12 22 CURVE",
"-15 0 LINE"
);
},
{
closed = 1;
nodes = (
"504 243 LINE",
"552 479 LINE",
"522 479 LINE",
"505 448 OFFCURVE",
"490 409 OFFCURVE",
"484 391 CURVE",
"270 391 LINE",
"257 332 LINE",
"471 332 LINE",
"469 315 OFFCURVE",
"470 276 OFFCURVE",
"474 243 CURVE"
);
},
{
closed = 1;
nodes = (
"607 786 OFFCURVE",
"685 831 OFFCURVE",
"723 927 CURVE",
"621 927 LINE",
"600 856 OFFCURVE",
"556 847 OFFCURVE",
"516 847 CURVE SMOOTH",
"477 847 OFFCURVE",
"437 856 OFFCURVE",
"444 927 CURVE",
"344 927 LINE",
"341 831 OFFCURVE",
"401 786 OFFCURVE",
"504 786 CURVE SMOOTH"
);
}
);
width = 664;
}
);
note = Ebreve;
unicode = 0114;
},
{
glyphname = Ecaron;
lastChange = "2015-10-27 16:21:59 +0000";
layers = (
{
layerId = "A20AAD8A-5619-416D-9D3E-77802FB4F06A";
name = "Bold Italic";
paths = (
{
closed = 1;
nodes = (
"573 0 LINE",
"633 196 LINE",
"592 196 LINE",
"568 174 OFFCURVE",
"519 99 OFFCURVE",
"508 59 CURVE",
"273 59 LINE",
"392 641 LINE",
"619 641 LINE",
"614 607 OFFCURVE",
"626 527 OFFCURVE",
"636 503 CURVE",
"676 503 LINE",
"716 700 LINE",
"127 700 LINE",
"123 678 LINE",
"150 667 OFFCURVE",
"181 659 OFFCURVE",
"203 655 CURVE",
"78 45 LINE",
"55 41 OFFCURVE",
"21 33 OFFCURVE",
"-12 22 CURVE",
"-15 0 LINE"
);
},
{
closed = 1;
nodes = (
"504 243 LINE",
"552 479 LINE",
"522 479 LINE",
"505 448 OFFCURVE",
"490 409 OFFCURVE",
"484 391 CURVE",
"270 391 LINE",
"257 332 LINE",
"471 332 LINE",
"469 315 OFFCURVE",
"470 276 OFFCURVE",
"474 243 CURVE"
);
},
{
closed = 1;
nodes = (
"456 786 OFFCURVE",
"543 786 OFFCURVE",
"543 786 CURVE",
"570 819 OFFCURVE",
"688 913 OFFCURVE",
"739 942 CURVE",
"674 997 LINE",
"625 962 OFFCURVE",
"543 892 OFFCURVE",
"515 855 CURVE",
"515 855 OFFCURVE",
"512 855 OFFCURVE",
"512 855 CURVE",
"498 892 OFFCURVE",
"445 962 OFFCURVE",
"410 997 CURVE",
"324 942 LINE",
"364 913 OFFCURVE",
"443 819 OFFCURVE",
"456 786 CURVE"
);
}
);
width = 664;
}
);
note = Ecaron;
unicode = 011A;
},
{
glyphname = Ecircumflex;
lastChange = "2015-10-27 16:22:00 +0000";
layers = (
{
layerId = "A20AAD8A-5619-416D-9D3E-77802FB4F06A";
name = "Bold Italic";
paths = (
{
closed = 1;
nodes = (
"573 0 LINE",
"633 196 LINE",
"592 196 LINE",
"568 174 OFFCURVE",
"519 99 OFFCURVE",
"508 59 CURVE",
"273 59 LINE",
"392 641 LINE",
"619 641 LINE",
"614 607 OFFCURVE",
"626 527 OFFCURVE",
"636 503 CURVE",
"676 503 LINE",
"716 700 LINE",
"127 700 LINE",
"123 678 LINE",
"150 667 OFFCURVE",
"181 659 OFFCURVE",
"203 655 CURVE",
"78 45 LINE",
"55 41 OFFCURVE",
"21 33 OFFCURVE",
"-12 22 CURVE",
"-15 0 LINE"
);
},
{
closed = 1;
nodes = (
"504 243 LINE",
"552 479 LINE",
"522 479 LINE",
"505 448 OFFCURVE",
"490 409 OFFCURVE",
"484 391 CURVE",
"270 391 LINE",
"257 332 LINE",
"471 332 LINE",
"469 315 OFFCURVE",
"470 276 OFFCURVE",
"474 243 CURVE"
);
},
{
closed = 1;
nodes = (
"410 821 OFFCURVE",
"492 891 OFFCURVE",
"520 928 CURVE",
"520 928 OFFCURVE",
"523 928 OFFCURVE",
"523 928 CURVE",
"537 891 OFFCURVE",
"589 821 OFFCURVE",
"625 786 CURVE",
"711 841 LINE",
"672 870 OFFCURVE",
"592 964 OFFCURVE",
"579 997 CURVE",
"579 997 OFFCURVE",
"492 997 OFFCURVE",
"492 997 CURVE",
"465 964 OFFCURVE",
"348 870 OFFCURVE",
"297 841 CURVE",
"362 786 LINE"
);
}
);
width = 664;
}
);
note = Ecircumflex;
unicode = 00CA;
},
{
glyphname = Ecircumflexacute;
lastChange = "2015-10-27 16:21:59 +0000";
layers = (
{
layerId = "A20AAD8A-5619-416D-9D3E-77802FB4F06A";
name = "Bold Italic";
paths = (
{
closed = 1;
nodes = (
"573 0 LINE",
"633 196 LINE",
"592 196 LINE",
"568 174 OFFCURVE",
"519 99 OFFCURVE",
"508 59 CURVE",
"273 59 LINE",
"392 641 LINE",
"619 641 LINE",
"614 607 OFFCURVE",
"626 527 OFFCURVE",
"636 503 CURVE",
"676 503 LINE",
"716 700 LINE",
"127 700 LINE",
"123 678 LINE",
"150 667 OFFCURVE",
"181 659 OFFCURVE",
"203 655 CURVE",
"78 45 LINE",
"55 41 OFFCURVE",
"21 33 OFFCURVE",
"-12 22 CURVE",
"-15 0 LINE"
);
},
{
closed = 1;
nodes = (
"504 243 LINE",
"552 479 LINE",
"522 479 LINE",
"505 448 OFFCURVE",
"490 409 OFFCURVE",
"484 391 CURVE",
"270 391 LINE",
"257 332 LINE",
"471 332 LINE",
"469 315 OFFCURVE",
"470 276 OFFCURVE",
"474 243 CURVE"
);
},
{
closed = 1;
nodes = (
"383 821 OFFCURVE",
"465 891 OFFCURVE",
"493 928 CURVE",
"493 928 OFFCURVE",
"496 928 OFFCURVE",
"496 928 CURVE",
"510 891 OFFCURVE",
"563 821 OFFCURVE",
"598 786 CURVE",
"684 841 LINE",
"644 870 OFFCURVE",
"565 964 OFFCURVE",
"552 997 CURVE",
"552 997 OFFCURVE",
"465 997 OFFCURVE",
"465 997 CURVE",
"438 964 OFFCURVE",
"320 870 OFFCURVE",
"269 841 CURVE",
"334 786 LINE"
);
},
{
closed = 1;
nodes = (
"772 994 LINE SMOOTH",
"815 1014 OFFCURVE",
"846 1039 OFFCURVE",
"852 1068 CURVE",
"856 1090 OFFCURVE",
"847 1123 OFFCURVE",
"804 1123 CURVE SMOOTH",
"772 1123 OFFCURVE",
"740 1093 OFFCURVE",
"722 1074 CURVE SMOOTH",
"627 975 LINE",
"648 937 LINE"
);
}
);
width = 664;
}
);
note = Ecircumflexacute;
unicode = 1EBE;
},
{
glyphname = Ecircumflexdotbelow;
lastChange = "2015-10-27 16:21:58 +0000";
layers = (
{
layerId = "A20AAD8A-5619-416D-9D3E-77802FB4F06A";
name = "Bold Italic";
paths = (
{
closed = 1;
nodes = (
"573 0 LINE",
"633 196 LINE",
"592 196 LINE",
"568 174 OFFCURVE",
"519 99 OFFCURVE",
"508 59 CURVE",
"273 59 LINE",
"392 641 LINE",
"619 641 LINE",
"614 607 OFFCURVE",
"626 527 OFFCURVE",
"636 503 CURVE",
"676 503 LINE",
"716 700 LINE",
"127 700 LINE",
"123 678 LINE",
"150 667 OFFCURVE",
"181 659 OFFCURVE",
"203 655 CURVE",
"78 45 LINE",
"55 41 OFFCURVE",
"21 33 OFFCURVE",
"-12 22 CURVE",
"-15 0 LINE"
);
},
{
closed = 1;
nodes = (
"313 -195 OFFCURVE",
"347 -163 OFFCURVE",
"354 -123 CURVE SMOOTH",
"363 -83 OFFCURVE",
"343 -50 OFFCURVE",
"300 -50 CURVE SMOOTH",
"256 -50 OFFCURVE",
"224 -83 OFFCURVE",
"215 -123 CURVE SMOOTH",
"207 -163 OFFCURVE",
"227 -195 OFFCURVE",
"270 -195 CURVE SMOOTH"
);
},
{
closed = 1;
nodes = (
"504 243 LINE",
"552 479 LINE",
"522 479 LINE",
"505 448 OFFCURVE",
"490 409 OFFCURVE",
"484 391 CURVE",
"270 391 LINE",
"257 332 LINE",
"471 332 LINE",
"469 315 OFFCURVE",
"470 276 OFFCURVE",
"474 243 CURVE"
);
},
{
closed = 1;
nodes = (
"382 821 OFFCURVE",
"464 891 OFFCURVE",
"492 928 CURVE",
"492 928 OFFCURVE",
"495 928 OFFCURVE",
"495 928 CURVE",
"509 891 OFFCURVE",
"562 821 OFFCURVE",
"597 786 CURVE",
"684 841 LINE",
"644 870 OFFCURVE",
"564 964 OFFCURVE",
"551 997 CURVE",
"551 997 OFFCURVE",
"464 997 OFFCURVE",
"464 997 CURVE",
"437 964 OFFCURVE",
"320 870 OFFCURVE",
"269 841 CURVE",
"334 786 LINE"
);
}
);
width = 664;
}
);
note = Ecircumflexdotbelow;
unicode = 1EC6;
},
{
glyphname = Ecircumflexgrave;
lastChange = "2015-10-27 16:21:59 +0000";
layers = (
{
layerId = "A20AAD8A-5619-416D-9D3E-77802FB4F06A";
name = "Bold Italic";
paths = (
{
closed = 1;
nodes = (
"573 0 LINE",
"633 196 LINE",
"592 196 LINE",
"568 174 OFFCURVE",
"519 99 OFFCURVE",
"508 59 CURVE",
"273 59 LINE",
"392 641 LINE",
"619 641 LINE",
"614 607 OFFCURVE",
"626 527 OFFCURVE",
"636 503 CURVE",
"676 503 LINE",
"716 700 LINE",
"127 700 LINE",
"123 678 LINE",
"150 667 OFFCURVE",
"181 659 OFFCURVE",
"203 655 CURVE",
"78 45 LINE",
"55 41 OFFCURVE",
"21 33 OFFCURVE",
"-12 22 CURVE",
"-15 0 LINE"
);
},
{
closed = 1;
nodes = (
"504 243 LINE",
"552 479 LINE",
"522 479 LINE",
"505 448 OFFCURVE",
"490 409 OFFCURVE",
"484 391 CURVE",
"270 391 LINE",
"257 332 LINE",
"471 332 LINE",
"469 315 OFFCURVE",
"470 276 OFFCURVE",
"474 243 CURVE"
);
},
{
closed = 1;
nodes = (
"381 975 LINE",
"326 1074 LINE SMOOTH",
"316 1093 OFFCURVE",
"296 1123 OFFCURVE",
"263 1123 CURVE SMOOTH",
"221 1123 OFFCURVE",
"198 1090 OFFCURVE",
"194 1068 CURVE",
"187 1039 OFFCURVE",
"208 1014 OFFCURVE",
"244 994 CURVE SMOOTH",
"345 937 LINE"
);
},
{
closed = 1;
nodes = (
"383 821 OFFCURVE",
"465 891 OFFCURVE",
"493 928 CURVE",
"493 928 OFFCURVE",
"496 928 OFFCURVE",
"496 928 CURVE",
"510 891 OFFCURVE",
"563 821 OFFCURVE",
"598 786 CURVE",
"684 841 LINE",
"644 870 OFFCURVE",
"565 964 OFFCURVE",
"552 997 CURVE",
"552 997 OFFCURVE",
"465 997 OFFCURVE",
"465 997 CURVE",
"438 964 OFFCURVE",
"320 870 OFFCURVE",
"269 841 CURVE",
"334 786 LINE"
);
}
);
width = 664;
}
);
note = Ecircumflexgrave;
unicode = 1EC0;
},
{
glyphname = Ecircumflexhookabove;
lastChange = "2015-10-27 16:21:59 +0000";
layers = (
{
layerId = "A20AAD8A-5619-416D-9D3E-77802FB4F06A";
name = "Bold Italic";
paths = (
{
closed = 1;
nodes = (
"573 0 LINE",
"633 196 LINE",
"592 196 LINE",
"568 174 OFFCURVE",
"519 99 OFFCURVE",
"508 59 CURVE",
"273 59 LINE",
"392 641 LINE",
"619 641 LINE",
"614 607 OFFCURVE",
"626 527 OFFCURVE",
"636 503 CURVE",
"676 503 LINE",
"716 700 LINE",
"127 700 LINE",
"123 678 LINE",
"150 667 OFFCURVE",
"181 659 OFFCURVE",
"203 655 CURVE",
"78 45 LINE",
"55 41 OFFCURVE",
"21 33 OFFCURVE",
"-12 22 CURVE",
"-15 0 LINE"
);
},
{
closed = 1;
nodes = (
"504 243 LINE",
"552 479 LINE",
"522 479 LINE",
"505 448 OFFCURVE",
"490 409 OFFCURVE",
"484 391 CURVE",
"270 391 LINE",
"257 332 LINE",
"471 332 LINE",
"469 315 OFFCURVE",
"470 276 OFFCURVE",
"474 243 CURVE"
);
},
{
closed = 1;
nodes = (
"383 821 OFFCURVE",
"465 891 OFFCURVE",
"493 928 CURVE",
"493 928 OFFCURVE",
"496 928 OFFCURVE",
"496 928 CURVE",
"510 891 OFFCURVE",
"563 821 OFFCURVE",
"598 786 CURVE",
"684 841 LINE",
"644 870 OFFCURVE",
"565 964 OFFCURVE",
"552 997 CURVE",
"552 997 OFFCURVE",
"465 997 OFFCURVE",
"465 997 CURVE",
"438 964 OFFCURVE",
"320 870 OFFCURVE",
"269 841 CURVE",
"334 786 LINE"
);
},
{
closed = 1;
nodes = (
"694 964 LINE",
"711 1004 LINE",
"758 1009 OFFCURVE",
"803 1026 OFFCURVE",
"815 1088 CURVE SMOOTH",
"828 1156 OFFCURVE",
"775 1180 OFFCURVE",
"718 1180 CURVE SMOOTH",
"689 1180 OFFCURVE",
"660 1173 OFFCURVE",
"638 1163 CURVE",
"636 1121 LINE",
"655 1132 OFFCURVE",
"677 1136 OFFCURVE",
"692 1136 CURVE SMOOTH",
"729 1136 OFFCURVE",
"742 1113 OFFCURVE",
"737 1089 CURVE SMOOTH",
"730 1051 OFFCURVE",
"698 1042 OFFCURVE",
"681 1042 CURVE SMOOTH",
"641 1042 LINE",
"629 964 LINE"
);
}
);
width = 664;
}
);
note = Ecircumflexhookabove;
unicode = 1EC2;
},
{
glyphname = Ecircumflextilde;
lastChange = "2015-10-27 16:21:59 +0000";
layers = (
{
layerId = "A20AAD8A-5619-416D-9D3E-77802FB4F06A";
name = "Bold Italic";
paths = (
{
closed = 1;
nodes = (
"573 0 LINE",
"633 196 LINE",
"592 196 LINE",
"568 174 OFFCURVE",
"519 99 OFFCURVE",
"508 59 CURVE",
"273 59 LINE",
"392 641 LINE",
"619 641 LINE",
"614 607 OFFCURVE",
"626 527 OFFCURVE",
"636 503 CURVE",
"676 503 LINE",
"716 700 LINE",
"127 700 LINE",
"123 678 LINE",
"150 667 OFFCURVE",
"181 659 OFFCURVE",
"203 655 CURVE",
"78 45 LINE",
"55 41 OFFCURVE",
"21 33 OFFCURVE",
"-12 22 CURVE",
"-15 0 LINE"
);
},
{
closed = 1;
nodes = (
"504 243 LINE",
"552 479 LINE",
"522 479 LINE",
"505 448 OFFCURVE",
"490 409 OFFCURVE",
"484 391 CURVE",
"270 391 LINE",
"257 332 LINE",
"471 332 LINE",
"469 315 OFFCURVE",
"470 276 OFFCURVE",
"474 243 CURVE"
);
},
{
closed = 1;
nodes = (
"383 821 OFFCURVE",
"465 891 OFFCURVE",
"493 928 CURVE",
"493 928 OFFCURVE",
"496 928 OFFCURVE",
"496 928 CURVE",
"510 891 OFFCURVE",
"563 821 OFFCURVE",
"598 786 CURVE",
"684 841 LINE",
"644 870 OFFCURVE",
"565 964 OFFCURVE",
"552 997 CURVE",
"552 997 OFFCURVE",
"465 997 OFFCURVE",
"465 997 CURVE",
"438 964 OFFCURVE",
"320 870 OFFCURVE",
"269 841 CURVE",
"334 786 LINE"
);
},
{
closed = 1;
nodes = (
"398 1040 LINE",
"409 1069 OFFCURVE",
"436 1088 OFFCURVE",
"468 1088 CURVE SMOOTH",
"517 1088 OFFCURVE",
"541 1040 OFFCURVE",
"601 1040 CURVE SMOOTH",
"683 1040 OFFCURVE",
"729 1090 OFFCURVE",
"751 1163 CURVE",
"689 1163 LINE",
"669 1117 OFFCURVE",
"632 1114 OFFCURVE",
"612 1114 CURVE SMOOTH",
"575 1114 OFFCURVE",
"564 1162 OFFCURVE",
"489 1162 CURVE SMOOTH",
"417 1162 OFFCURVE",
"363 1119 OFFCURVE",
"337 1040 CURVE"
);
}
);
width = 664;
}
);
note = Ecircumflextilde;
unicode = 1EC4;
},
{
glyphname = Edieresis;
lastChange = "2015-10-27 16:22:00 +0000";
layers = (
{
layerId = "A20AAD8A-5619-416D-9D3E-77802FB4F06A";
name = "Bold Italic";
paths = (
{
closed = 1;
nodes = (
"573 0 LINE",
"633 196 LINE",
"592 196 LINE",
"568 174 OFFCURVE",
"519 99 OFFCURVE",
"508 59 CURVE",
"273 59 LINE",
"392 641 LINE",
"619 641 LINE",
"614 607 OFFCURVE",
"626 527 OFFCURVE",
"636 503 CURVE",
"676 503 LINE",
"716 700 LINE",
"127 700 LINE",
"123 678 LINE",
"150 667 OFFCURVE",
"181 659 OFFCURVE",
"203 655 CURVE",
"78 45 LINE",
"55 41 OFFCURVE",
"21 33 OFFCURVE",
"-12 22 CURVE",
"-15 0 LINE"
);
},
{
closed = 1;
nodes = (
"504 243 LINE",
"552 479 LINE",
"522 479 LINE",
"505 448 OFFCURVE",
"490 409 OFFCURVE",
"484 391 CURVE",
"270 391 LINE",
"257 332 LINE",
"471 332 LINE",
"469 315 OFFCURVE",
"470 276 OFFCURVE",
"474 243 CURVE"
);
},
{
closed = 1;
nodes = (
"430 786 OFFCURVE",
"463 818 OFFCURVE",
"471 858 CURVE SMOOTH",
"479 898 OFFCURVE",
"459 931 OFFCURVE",
"416 931 CURVE SMOOTH",
"373 931 OFFCURVE",
"341 898 OFFCURVE",
"333 858 CURVE SMOOTH",
"324 818 OFFCURVE",
"345 786 OFFCURVE",
"388 786 CURVE SMOOTH"
);
},
{
closed = 1;
nodes = (
"673 786 OFFCURVE",
"706 818 OFFCURVE",
"714 858 CURVE SMOOTH",
"722 898 OFFCURVE",
"702 931 OFFCURVE",
"659 931 CURVE SMOOTH",
"615 931 OFFCURVE",
"583 898 OFFCURVE",
"575 858 CURVE SMOOTH",
"566 818 OFFCURVE",
"587 786 OFFCURVE",
"630 786 CURVE SMOOTH"
);
}
);
width = 664;
}
);
note = Edieresis;
unicode = 00CB;
},
{
glyphname = Edotaccent;
lastChange = "2015-10-27 16:22:00 +0000";
layers = (
{
layerId = "A20AAD8A-5619-416D-9D3E-77802FB4F06A";
name = "Bold Italic";
paths = (
{
closed = 1;
nodes = (
"573 0 LINE",
"633 196 LINE",
"592 196 LINE",
"568 174 OFFCURVE",
"519 99 OFFCURVE",
"508 59 CURVE",
"273 59 LINE",
"392 641 LINE",
"619 641 LINE",
"614 607 OFFCURVE",
"626 527 OFFCURVE",
"636 503 CURVE",
"676 503 LINE",
"716 700 LINE",
"127 700 LINE",
"123 678 LINE",
"150 667 OFFCURVE",
"181 659 OFFCURVE",
"203 655 CURVE",
"78 45 LINE",
"55 41 OFFCURVE",
"21 33 OFFCURVE",
"-12 22 CURVE",
"-15 0 LINE"
);
},
{
closed = 1;
nodes = (
"504 243 LINE",
"552 479 LINE",
"522 479 LINE",
"505 448 OFFCURVE",
"490 409 OFFCURVE",
"484 391 CURVE",
"270 391 LINE",
"257 332 LINE",
"471 332 LINE",
"469 315 OFFCURVE",
"470 276 OFFCURVE",
"474 243 CURVE"
);
},
{
closed = 1;
nodes = (
"551 786 OFFCURVE",
"584 818 OFFCURVE",
"592 858 CURVE SMOOTH",
"600 898 OFFCURVE",
"580 931 OFFCURVE",
"537 931 CURVE SMOOTH",
"493 931 OFFCURVE",
"461 898 OFFCURVE",
"453 858 CURVE SMOOTH",
"444 818 OFFCURVE",
"465 786 OFFCURVE",
"508 786 CURVE SMOOTH"
);
}
);
width = 664;
}
);
note = Edotaccent;
unicode = 0116;
},
{
glyphname = Edotbelow;
lastChange = "2015-10-27 16:21:59 +0000";
layers = (
{
layerId = "A20AAD8A-5619-416D-9D3E-77802FB4F06A";
name = "Bold Italic";
paths = (
{
closed = 1;
nodes = (
"573 0 LINE",
"633 196 LINE",
"592 196 LINE",
"568 174 OFFCURVE",
"519 99 OFFCURVE",
"508 59 CURVE",
"273 59 LINE",
"392 641 LINE",
"619 641 LINE",
"614 607 OFFCURVE",
"626 527 OFFCURVE",
"636 503 CURVE",
"676 503 LINE",
"716 700 LINE",
"127 700 LINE",
"123 678 LINE",
"150 667 OFFCURVE",
"181 659 OFFCURVE",
"203 655 CURVE",
"78 45 LINE",
"55 41 OFFCURVE",
"21 33 OFFCURVE",
"-12 22 CURVE",
"-15 0 LINE"
);
},
{
closed = 1;
nodes = (
"297 -195 OFFCURVE",
"330 -163 OFFCURVE",
"338 -123 CURVE SMOOTH",
"347 -83 OFFCURVE",
"326 -50 OFFCURVE",
"283 -50 CURVE SMOOTH",
"240 -50 OFFCURVE",
"207 -83 OFFCURVE",
"199 -123 CURVE SMOOTH",
"191 -163 OFFCURVE",
"210 -195 OFFCURVE",
"253 -195 CURVE SMOOTH"
);
},
{
closed = 1;
nodes = (
"504 243 LINE",
"552 479 LINE",
"522 479 LINE",
"505 448 OFFCURVE",
"490 409 OFFCURVE",
"484 391 CURVE",
"270 391 LINE",
"257 332 LINE",
"471 332 LINE",
"469 315 OFFCURVE",
"470 276 OFFCURVE",
"474 243 CURVE"
);
}
);
width = 664;
}
);
note = Edotbelow;
unicode = 1EB8;
},
{
glyphname = Egrave;
lastChange = "2015-10-27 16:21:59 +0000";
layers = (
{
layerId = "A20AAD8A-5619-416D-9D3E-77802FB4F06A";
name = "Bold Italic";
paths = (
{
closed = 1;
nodes = (
"573 0 LINE",
"633 196 LINE",
"592 196 LINE",
"568 174 OFFCURVE",
"519 99 OFFCURVE",
"508 59 CURVE",
"273 59 LINE",
"392 641 LINE",
"619 641 LINE",
"614 607 OFFCURVE",
"626 527 OFFCURVE",
"636 503 CURVE",
"676 503 LINE",
"716 700 LINE",
"127 700 LINE",
"123 678 LINE",
"150 667 OFFCURVE",
"181 659 OFFCURVE",
"203 655 CURVE",
"78 45 LINE",
"55 41 OFFCURVE",
"21 33 OFFCURVE",
"-12 22 CURVE",
"-15 0 LINE"
);
},
{
closed = 1;
nodes = (
"504 243 LINE",
"552 479 LINE",
"522 479 LINE",
"505 448 OFFCURVE",
"490 409 OFFCURVE",
"484 391 CURVE",
"270 391 LINE",
"257 332 LINE",
"471 332 LINE",
"469 315 OFFCURVE",
"470 276 OFFCURVE",
"474 243 CURVE"
);
},
{
closed = 1;
nodes = (
"629 830 LINE",
"536 969 LINE SMOOTH",
"532 975 OFFCURVE",
"510 1011 OFFCURVE",
"470 1011 CURVE SMOOTH",
"428 1011 OFFCURVE",
"406 982 OFFCURVE",
"402 960 CURVE",
"396 931 OFFCURVE",
"413 909 OFFCURVE",
"445 886 CURVE SMOOTH",
"590 786 LINE"
);
}
);
width = 664;
}
);
note = Egrave;
unicode = 00C8;
},
{
glyphname = Ehookabove;
lastChange = "2015-10-27 16:21:59 +0000";
layers = (
{
layerId = "A20AAD8A-5619-416D-9D3E-77802FB4F06A";
name = "Bold Italic";
paths = (
{
closed = 1;
nodes = (
"573 0 LINE",
"633 196 LINE",
"592 196 LINE",
"568 174 OFFCURVE",
"519 99 OFFCURVE",
"508 59 CURVE",
"273 59 LINE",
"392 641 LINE",
"619 641 LINE",
"614 607 OFFCURVE",
"626 527 OFFCURVE",
"636 503 CURVE",
"676 503 LINE",
"716 700 LINE",
"127 700 LINE",
"123 678 LINE",
"150 667 OFFCURVE",
"181 659 OFFCURVE",
"203 655 CURVE",
"78 45 LINE",
"55 41 OFFCURVE",
"21 33 OFFCURVE",
"-12 22 CURVE",
"-15 0 LINE"
);
},
{
closed = 1;
nodes = (
"504 243 LINE",
"552 479 LINE",
"522 479 LINE",
"505 448 OFFCURVE",
"490 409 OFFCURVE",
"484 391 CURVE",
"270 391 LINE",
"257 332 LINE",
"471 332 LINE",
"469 315 OFFCURVE",
"470 276 OFFCURVE",
"474 243 CURVE"
);
},
{
closed = 1;
nodes = (
"525 786 LINE",
"549 859 LINE",
"603 864 OFFCURVE",
"652 883 OFFCURVE",
"666 951 CURVE SMOOTH",
"681 1025 OFFCURVE",
"620 1051 OFFCURVE",
"556 1051 CURVE SMOOTH",
"522 1051 OFFCURVE",
"488 1043 OFFCURVE",
"464 1032 CURVE",
"461 987 LINE",
"484 999 OFFCURVE",
"509 1003 OFFCURVE",
"526 1003 CURVE SMOOTH",
"567 1003 OFFCURVE",
"583 978 OFFCURVE",
"578 952 CURVE SMOOTH",
"569 910 OFFCURVE",
"534 900 OFFCURVE",
"514 900 CURVE SMOOTH",
"468 900 LINE",
"450 786 LINE"
);
}
);
width = 664;
}
);
note = Ehookabove;
unicode = 1EBA;
},
{
glyphname = Emacron;
lastChange = "2015-10-27 16:21:59 +0000";
layers = (
{
layerId = "A20AAD8A-5619-416D-9D3E-77802FB4F06A";
name = "Bold Italic";
paths = (
{
closed = 1;
nodes = (
"573 0 LINE",
"633 196 LINE",
"592 196 LINE",
"568 174 OFFCURVE",
"519 99 OFFCURVE",
"508 59 CURVE",
"273 59 LINE",
"392 641 LINE",
"619 641 LINE",
"614 607 OFFCURVE",
"626 527 OFFCURVE",
"636 503 CURVE",
"676 503 LINE",
"716 700 LINE",
"127 700 LINE",
"123 678 LINE",
"150 667 OFFCURVE",
"181 659 OFFCURVE",
"203 655 CURVE",
"78 45 LINE",
"55 41 OFFCURVE",
"21 33 OFFCURVE",
"-12 22 CURVE",
"-15 0 LINE"
);
},
{
closed = 1;
nodes = (
"504 243 LINE",
"552 479 LINE",
"522 479 LINE",
"505 448 OFFCURVE",
"490 409 OFFCURVE",
"484 391 CURVE",
"270 391 LINE",
"257 332 LINE",
"471 332 LINE",
"469 315 OFFCURVE",
"470 276 OFFCURVE",
"474 243 CURVE"
);
},
{
closed = 1;
nodes = (
"701 786 LINE",
"712 843 LINE",
"302 843 LINE",
"291 786 LINE"
);
}
);
width = 664;
}
);
note = Emacron;
unicode = 0112;
},
{
glyphname = Eogonek;
lastChange = "2015-10-27 16:21:59 +0000";
layers = (
{
layerId = "A20AAD8A-5619-416D-9D3E-77802FB4F06A";
name = "Bold Italic";
paths = (
{
closed = 1;
nodes = (
"573 0 LINE",
"633 196 LINE",
"592 196 LINE",
"568 174 OFFCURVE",
"519 99 OFFCURVE",
"508 59 CURVE",
"273 59 LINE",
"392 641 LINE",
"619 641 LINE",
"614 607 OFFCURVE",
"626 527 OFFCURVE",
"636 503 CURVE",
"676 503 LINE",
"716 700 LINE",
"127 700 LINE",
"123 678 LINE",
"150 667 OFFCURVE",
"181 659 OFFCURVE",
"203 655 CURVE",
"78 45 LINE",
"55 41 OFFCURVE",
"21 33 OFFCURVE",
"-12 22 CURVE",
"-15 0 LINE"
);
},
{
closed = 1;
nodes = (
"505 -218 OFFCURVE",
"558 -206 OFFCURVE",
"588 -186 CURVE",
"603 -109 LINE",
"572 -127 OFFCURVE",
"545 -134 OFFCURVE",
"526 -134 CURVE SMOOTH",
"490 -134 OFFCURVE",
"472 -110 OFFCURVE",
"478 -82 CURVE SMOOTH",
"484 -52 OFFCURVE",
"515 -17 OFFCURVE",
"537 0 CURVE",
"452 0 LINE",
"386 -17 OFFCURVE",
"339 -76 OFFCURVE",
"330 -122 CURVE SMOOTH",
"317 -184 OFFCURVE",
"365 -218 OFFCURVE",
"456 -218 CURVE SMOOTH"
);
},
{
closed = 1;
nodes = (
"504 243 LINE",
"552 479 LINE",
"522 479 LINE",
"505 448 OFFCURVE",
"490 409 OFFCURVE",
"484 391 CURVE",
"270 391 LINE",
"257 332 LINE",
"471 332 LINE",
"469 315 OFFCURVE",
"470 276 OFFCURVE",
"474 243 CURVE"
);
}
);
width = 664;
}
);
note = Eogonek;
unicode = 0118;
},
{
glyphname = Etilde;
lastChange = "2015-10-27 16:21:58 +0000";
layers = (
{
layerId = "A20AAD8A-5619-416D-9D3E-77802FB4F06A";
name = "Bold Italic";
paths = (
{
closed = 1;
nodes = (
"573 0 LINE",
"633 196 LINE",
"592 196 LINE",
"568 174 OFFCURVE",
"519 99 OFFCURVE",
"508 59 CURVE",
"273 59 LINE",
"392 641 LINE",
"619 641 LINE",
"614 607 OFFCURVE",
"626 527 OFFCURVE",
"636 503 CURVE",
"676 503 LINE",
"716 700 LINE",
"127 700 LINE",
"123 678 LINE",
"150 667 OFFCURVE",
"181 659 OFFCURVE",
"203 655 CURVE",
"78 45 LINE",
"55 41 OFFCURVE",
"21 33 OFFCURVE",
"-12 22 CURVE",
"-15 0 LINE"
);
},
{
closed = 1;
nodes = (
"504 243 LINE",
"552 479 LINE",
"522 479 LINE",
"505 448 OFFCURVE",
"490 409 OFFCURVE",
"484 391 CURVE",
"270 391 LINE",
"257 332 LINE",
"471 332 LINE",
"469 315 OFFCURVE",
"470 276 OFFCURVE",
"474 243 CURVE"
);
},
{
closed = 1;
nodes = (
"354 786 LINE",
"365 817 OFFCURVE",
"385 836 OFFCURVE",
"413 836 CURVE SMOOTH",
"445 836 OFFCURVE",
"499 786 OFFCURVE",
"561 786 CURVE SMOOTH",
"647 786 OFFCURVE",
"695 839 OFFCURVE",
"717 915 CURVE",
"629 915 LINE",
"609 867 OFFCURVE",
"587 864 OFFCURVE",
"565 864 CURVE SMOOTH",
"526 864 OFFCURVE",
"501 914 OFFCURVE",
"423 914 CURVE SMOOTH",
"348 914 OFFCURVE",
"293 869 OFFCURVE",
"265 786 CURVE"
);
}
);
width = 664;
}
);
note = Etilde;
unicode = 1EBC;
},
{
glyphname = F;
lastChange = "2015-10-27 16:21:59 +0000";
layers = (
{
layerId = "A20AAD8A-5619-416D-9D3E-77802FB4F06A";
name = "Bold Italic";
paths = (
{
closed = 1;
nodes = (
"346 0 LINE",
"349 22 LINE",
"323 33 OFFCURVE",
"291 41 OFFCURVE",
"270 45 CURVE",
"392 641 LINE",
"600 641 LINE",
"595 607 OFFCURVE",
"607 527 OFFCURVE",
"616 503 CURVE",
"657 503 LINE",
"697 700 LINE",
"127 700 LINE",
"123 678 LINE",
"150 667 OFFCURVE",
"181 659 OFFCURVE",
"203 655 CURVE",
"78 45 LINE",
"55 41 OFFCURVE",
"21 33 OFFCURVE",
"-12 22 CURVE",
"-15 0 LINE"
);
},
{
closed = 1;
nodes = (
"495 201 LINE",
"543 437 LINE",
"514 437 LINE",
"496 406 OFFCURVE",
"482 367 OFFCURVE",
"475 349 CURVE",
"162 349 LINE",
"150 290 LINE",
"463 290 LINE",
"462 273 OFFCURVE",
"462 234 OFFCURVE",
"466 201 CURVE"
);
}
);
width = 616;
}
);
note = F;
unicode = 0046;
},
{
glyphname = G;
lastChange = "2015-10-27 16:22:00 +0000";
layers = (
{
layerId = "A20AAD8A-5619-416D-9D3E-77802FB4F06A";
name = "Bold Italic";
paths = (
{
closed = 1;
nodes = (
"447 -10 OFFCURVE",
"564 11 OFFCURVE",
"622 48 CURVE",
"672 295 LINE",
"684 299 OFFCURVE",
"727 314 OFFCURVE",
"745 326 CURVE",
"748 343 LINE",
"420 343 LINE",
"416 319 LINE",
"440 311 OFFCURVE",
"464 304 OFFCURVE",
"487 298 CURVE",
"437 55 LINE",
"422 53 OFFCURVE",
"400 52 OFFCURVE",
"388 52 CURVE SMOOTH",
"276 52 OFFCURVE",
"222 159 OFFCURVE",
"261 350 CURVE SMOOTH",
"300 540 OFFCURVE",
"414 648 OFFCURVE",
"534 648 CURVE SMOOTH",
"573 648 OFFCURVE",
"628 641 OFFCURVE",
"660 610 CURVE",
"655 557 OFFCURVE",
"654 507 OFFCURVE",
"658 463 CURVE",
"702 463 LINE",
"751 625 LINE",
"708 678 OFFCURVE",
"624 710 OFFCURVE",
"498 710 CURVE SMOOTH",
"270 710 OFFCURVE",
"110 572 OFFCURVE",
"65 350 CURVE SMOOTH",
"20 128 OFFCURVE",
"115 -10 OFFCURVE",
"350 -10 CURVE SMOOTH"
);
}
);
width = 726;
}
);
leftKerningGroup = G;
note = G;
unicode = 0047;
},
{
glyphname = Gbreve;
lastChange = "2015-10-27 16:22:00 +0000";
layers = (
{
layerId = "A20AAD8A-5619-416D-9D3E-77802FB4F06A";
name = "Bold Italic";
paths = (
{
closed = 1;
nodes = (
"447 -10 OFFCURVE",
"564 11 OFFCURVE",
"622 48 CURVE",
"672 295 LINE",
"684 299 OFFCURVE",
"727 314 OFFCURVE",
"745 326 CURVE",
"748 343 LINE",
"420 343 LINE",
"416 319 LINE",
"440 311 OFFCURVE",
"464 304 OFFCURVE",
"487 298 CURVE",
"437 55 LINE",
"422 53 OFFCURVE",
"400 52 OFFCURVE",
"388 52 CURVE SMOOTH",
"276 52 OFFCURVE",
"222 159 OFFCURVE",
"261 350 CURVE SMOOTH",
"300 540 OFFCURVE",
"414 648 OFFCURVE",
"534 648 CURVE SMOOTH",
"573 648 OFFCURVE",
"628 641 OFFCURVE",
"660 610 CURVE",
"655 557 OFFCURVE",
"654 507 OFFCURVE",
"658 463 CURVE",
"702 463 LINE",
"751 625 LINE",
"708 678 OFFCURVE",
"624 710 OFFCURVE",
"498 710 CURVE SMOOTH",
"270 710 OFFCURVE",
"110 572 OFFCURVE",
"65 350 CURVE SMOOTH",
"20 128 OFFCURVE",
"115 -10 OFFCURVE",
"350 -10 CURVE SMOOTH"
);
},
{
closed = 1;
nodes = (
"621 786 OFFCURVE",
"700 831 OFFCURVE",
"737 927 CURVE",
"636 927 LINE",
"614 856 OFFCURVE",
"570 847 OFFCURVE",
"531 847 CURVE SMOOTH",
"492 847 OFFCURVE",
"451 856 OFFCURVE",
"459 927 CURVE",
"358 927 LINE",
"355 831 OFFCURVE",
"416 786 OFFCURVE",
"518 786 CURVE SMOOTH"
);
}
);
width = 726;
}
);
leftKerningGroup = G;
note = Gbreve;
unicode = 011E;
},
{
glyphname = Gcaron;
lastChange = "2015-10-27 16:21:59 +0000";
layers = (
{
layerId = "A20AAD8A-5619-416D-9D3E-77802FB4F06A";
name = "Bold Italic";
paths = (
{
closed = 1;
nodes = (
"447 -10 OFFCURVE",
"564 11 OFFCURVE",
"622 48 CURVE",
"672 295 LINE",
"684 299 OFFCURVE",
"727 314 OFFCURVE",
"745 326 CURVE",
"748 343 LINE",
"420 343 LINE",
"416 319 LINE",
"440 311 OFFCURVE",
"464 304 OFFCURVE",
"487 298 CURVE",
"437 55 LINE",
"422 53 OFFCURVE",
"400 52 OFFCURVE",
"388 52 CURVE SMOOTH",
"276 52 OFFCURVE",
"222 159 OFFCURVE",
"261 350 CURVE SMOOTH",
"300 540 OFFCURVE",
"414 648 OFFCURVE",
"534 648 CURVE SMOOTH",
"573 648 OFFCURVE",
"628 641 OFFCURVE",
"660 610 CURVE",
"655 557 OFFCURVE",
"654 507 OFFCURVE",
"658 463 CURVE",
"702 463 LINE",
"751 625 LINE",
"708 678 OFFCURVE",
"624 710 OFFCURVE",
"498 710 CURVE SMOOTH",
"270 710 OFFCURVE",
"110 572 OFFCURVE",
"65 350 CURVE SMOOTH",
"20 128 OFFCURVE",
"115 -10 OFFCURVE",
"350 -10 CURVE SMOOTH"
);
},
{
closed = 1;
nodes = (
"440 786 OFFCURVE",
"527 786 OFFCURVE",
"527 786 CURVE",
"554 819 OFFCURVE",
"672 913 OFFCURVE",
"723 942 CURVE",
"658 997 LINE",
"609 962 OFFCURVE",
"527 892 OFFCURVE",
"498 855 CURVE",
"498 855 OFFCURVE",
"495 855 OFFCURVE",
"495 855 CURVE",
"482 892 OFFCURVE",
"429 962 OFFCURVE",
"394 997 CURVE",
"308 942 LINE",
"348 913 OFFCURVE",
"426 819 OFFCURVE",
"440 786 CURVE"
);
}
);
width = 726;
}
);
leftKerningGroup = G;
note = Gcaron;
unicode = 01E6;
},
{
glyphname = Gcircumflex;
lastChange = "2015-10-27 16:22:00 +0000";
layers = (
{
layerId = "A20AAD8A-5619-416D-9D3E-77802FB4F06A";
name = "Bold Italic";
paths = (
{
closed = 1;
nodes = (
"447 -10 OFFCURVE",
"564 11 OFFCURVE",
"622 48 CURVE",
"672 295 LINE",
"684 299 OFFCURVE",
"727 314 OFFCURVE",
"745 326 CURVE",
"748 343 LINE",
"420 343 LINE",
"416 319 LINE",
"440 311 OFFCURVE",
"464 304 OFFCURVE",
"487 298 CURVE",
"437 55 LINE",
"422 53 OFFCURVE",
"400 52 OFFCURVE",
"388 52 CURVE SMOOTH",
"276 52 OFFCURVE",
"222 159 OFFCURVE",
"261 350 CURVE SMOOTH",
"300 540 OFFCURVE",
"414 648 OFFCURVE",
"534 648 CURVE SMOOTH",
"573 648 OFFCURVE",
"628 641 OFFCURVE",
"660 610 CURVE",
"655 557 OFFCURVE",
"654 507 OFFCURVE",
"658 463 CURVE",
"702 463 LINE",
"751 625 LINE",
"708 678 OFFCURVE",
"624 710 OFFCURVE",
"498 710 CURVE SMOOTH",
"270 710 OFFCURVE",
"110 572 OFFCURVE",
"65 350 CURVE SMOOTH",
"20 128 OFFCURVE",
"115 -10 OFFCURVE",
"350 -10 CURVE SMOOTH"
);
},
{
closed = 1;
nodes = (
"447 821 OFFCURVE",
"529 891 OFFCURVE",
"558 928 CURVE",
"558 928 OFFCURVE",
"561 928 OFFCURVE",
"561 928 CURVE",
"574 891 OFFCURVE",
"627 821 OFFCURVE",
"662 786 CURVE",
"749 841 LINE",
"709 870 OFFCURVE",
"630 964 OFFCURVE",
"616 997 CURVE",
"616 997 OFFCURVE",
"529 997 OFFCURVE",
"529 997 CURVE",
"502 964 OFFCURVE",
"385 870 OFFCURVE",
"334 841 CURVE",
"399 786 LINE"
);
}
);
width = 726;
}
);
leftKerningGroup = G;
note = Gcircumflex;
unicode = 011C;
},
{
glyphname = Gcommaaccent;
lastChange = "2015-10-27 16:22:00 +0000";
layers = (
{
layerId = "A20AAD8A-5619-416D-9D3E-77802FB4F06A";
name = "Bold Italic";
paths = (
{
closed = 1;
nodes = (
"447 -10 OFFCURVE",
"564 11 OFFCURVE",
"622 48 CURVE",
"672 295 LINE",
"684 299 OFFCURVE",
"727 314 OFFCURVE",
"745 326 CURVE",
"748 343 LINE",
"420 343 LINE",
"416 319 LINE",
"440 311 OFFCURVE",
"464 304 OFFCURVE",
"487 298 CURVE",
"437 55 LINE",
"422 53 OFFCURVE",
"400 52 OFFCURVE",
"388 52 CURVE SMOOTH",
"276 52 OFFCURVE",
"222 159 OFFCURVE",
"261 350 CURVE SMOOTH",
"300 540 OFFCURVE",
"414 648 OFFCURVE",
"534 648 CURVE SMOOTH",
"573 648 OFFCURVE",
"628 641 OFFCURVE",
"660 610 CURVE",
"655 557 OFFCURVE",
"654 507 OFFCURVE",
"658 463 CURVE",
"702 463 LINE",
"751 625 LINE",
"708 678 OFFCURVE",
"624 710 OFFCURVE",
"498 710 CURVE SMOOTH",
"270 710 OFFCURVE",
"110 572 OFFCURVE",
"65 350 CURVE SMOOTH",
"20 128 OFFCURVE",
"115 -10 OFFCURVE",
"350 -10 CURVE SMOOTH"
);
},
{
closed = 1;
nodes = (
"336 -356 OFFCURVE",
"404 -264 OFFCURVE",
"423 -174 CURVE SMOOTH",
"432 -130 OFFCURVE",
"412 -89 OFFCURVE",
"352 -89 CURVE SMOOTH",
"308 -89 OFFCURVE",
"263 -119 OFFCURVE",
"253 -168 CURVE SMOOTH",
"245 -209 OFFCURVE",
"273 -246 OFFCURVE",
"313 -251 CURVE",
"295 -297 OFFCURVE",
"243 -344 OFFCURVE",
"214 -368 CURVE",
"262 -412 LINE"
);
}
);
width = 726;
}
);
leftKerningGroup = G;
note = Gcommaaccent;
unicode = 0122;
},
{
glyphname = Gdotaccent;
lastChange = "2015-10-27 16:21:59 +0000";
layers = (
{
layerId = "A20AAD8A-5619-416D-9D3E-77802FB4F06A";
name = "Bold Italic";
paths = (
{
closed = 1;
nodes = (
"447 -10 OFFCURVE",
"564 11 OFFCURVE",
"622 48 CURVE",
"672 295 LINE",
"684 299 OFFCURVE",
"727 314 OFFCURVE",
"745 326 CURVE",
"748 343 LINE",
"420 343 LINE",
"416 319 LINE",
"440 311 OFFCURVE",
"464 304 OFFCURVE",
"487 298 CURVE",
"437 55 LINE",
"422 53 OFFCURVE",
"400 52 OFFCURVE",
"388 52 CURVE SMOOTH",
"276 52 OFFCURVE",
"222 159 OFFCURVE",
"261 350 CURVE SMOOTH",
"300 540 OFFCURVE",
"414 648 OFFCURVE",
"534 648 CURVE SMOOTH",
"573 648 OFFCURVE",
"628 641 OFFCURVE",
"660 610 CURVE",
"655 557 OFFCURVE",
"654 507 OFFCURVE",
"658 463 CURVE",
"702 463 LINE",
"751 625 LINE",
"708 678 OFFCURVE",
"624 710 OFFCURVE",
"498 710 CURVE SMOOTH",
"270 710 OFFCURVE",
"110 572 OFFCURVE",
"65 350 CURVE SMOOTH",
"20 128 OFFCURVE",
"115 -10 OFFCURVE",
"350 -10 CURVE SMOOTH"
);
},
{
closed = 1;
nodes = (
"581 786 OFFCURVE",
"613 818 OFFCURVE",
"622 858 CURVE SMOOTH",
"630 898 OFFCURVE",
"610 931 OFFCURVE",
"566 931 CURVE SMOOTH",
"523 931 OFFCURVE",
"491 898 OFFCURVE",
"483 858 CURVE SMOOTH",
"474 818 OFFCURVE",
"494 786 OFFCURVE",
"538 786 CURVE SMOOTH"
);
}
);
width = 726;
}
);
leftKerningGroup = G;
note = Gdotaccent;
unicode = 0120;
},
{
glyphname = Gmacron;
lastChange = "2015-10-27 16:21:59 +0000";
layers = (
{
layerId = "A20AAD8A-5619-416D-9D3E-77802FB4F06A";
name = "Bold Italic";
paths = (
{
closed = 1;
nodes = (
"447 -10 OFFCURVE",
"564 11 OFFCURVE",
"622 48 CURVE",
"672 295 LINE",
"684 299 OFFCURVE",
"727 314 OFFCURVE",
"745 326 CURVE",
"748 343 LINE",
"420 343 LINE",
"416 319 LINE",
"440 311 OFFCURVE",
"464 304 OFFCURVE",
"487 298 CURVE",
"437 55 LINE",
"422 53 OFFCURVE",
"400 52 OFFCURVE",
"388 52 CURVE SMOOTH",
"276 52 OFFCURVE",
"222 159 OFFCURVE",
"261 350 CURVE SMOOTH",
"300 540 OFFCURVE",
"414 648 OFFCURVE",
"534 648 CURVE SMOOTH",
"573 648 OFFCURVE",
"628 641 OFFCURVE",
"660 610 CURVE",
"655 557 OFFCURVE",
"654 507 OFFCURVE",
"658 463 CURVE",
"702 463 LINE",
"751 625 LINE",
"708 678 OFFCURVE",
"624 710 OFFCURVE",
"498 710 CURVE SMOOTH",
"270 710 OFFCURVE",
"110 572 OFFCURVE",
"65 350 CURVE SMOOTH",
"20 128 OFFCURVE",
"115 -10 OFFCURVE",
"350 -10 CURVE SMOOTH"
);
},
{
closed = 1;
nodes = (
"689 786 LINE",
"701 843 LINE",
"291 843 LINE",
"279 786 LINE"
);
}
);
width = 726;
}
);
leftKerningGroup = G;
note = Gmacron;
unicode = 1E20;
},
{
glyphname = H;
lastChange = "2015-10-27 16:21:59 +0000";
layers = (
{
layerId = "A20AAD8A-5619-416D-9D3E-77802FB4F06A";
name = "Bold Italic";
paths = (
{
closed = 1;
nodes = (
"756 0 LINE",
"759 22 LINE",
"732 33 OFFCURVE",
"710 40 OFFCURVE",
"688 45 CURVE",
"812 652 LINE",
"824 654 OFFCURVE",
"859 666 OFFCURVE",
"893 676 CURVE",
"898 700 LINE",
"557 700 LINE",
"553 678 LINE",
"579 669 OFFCURVE",
"601 661 OFFCURVE",
"621 656 CURVE",
"496 47 LINE",
"492 45 OFFCURVE",
"489 46 OFFCURVE",
"419 19 CURVE",
"415 0 LINE"
);
},
{
closed = 1;
nodes = (
"324 0 LINE",
"328 22 LINE",
"302 31 OFFCURVE",
"280 39 OFFCURVE",
"260 44 CURVE",
"384 653 LINE",
"390 655 OFFCURVE",
"393 654 OFFCURVE",
"463 681 CURVE",
"467 700 LINE",
"127 700 LINE",
"123 678 LINE",
"150 667 OFFCURVE",
"171 660 OFFCURVE",
"193 655 CURVE",
"69 48 LINE",
"58 46 OFFCURVE",
"22 34 OFFCURVE",
"-11 24 CURVE",
"-15 0 LINE"
);
},
{
closed = 1;
nodes = (
"647 326 LINE",
"659 385 LINE",
"238 385 LINE",
"227 326 LINE"
);
}
);
width = 817;
}
);
note = H;
unicode = 0048;
},
{
glyphname = Hbar;
lastChange = "2015-10-27 16:21:58 +0000";
layers = (
{
layerId = "A20AAD8A-5619-416D-9D3E-77802FB4F06A";
name = "Bold Italic";
paths = (
{
closed = 1;
nodes = (
"756 0 LINE",
"759 22 LINE",
"732 33 OFFCURVE",
"710 40 OFFCURVE",
"688 45 CURVE",
"812 652 LINE",
"824 654 OFFCURVE",
"859 666 OFFCURVE",
"893 676 CURVE",
"898 700 LINE",
"557 700 LINE",
"553 678 LINE",
"579 669 OFFCURVE",
"601 661 OFFCURVE",
"621 656 CURVE",
"496 47 LINE",
"492 45 OFFCURVE",
"489 46 OFFCURVE",
"419 19 CURVE",
"415 0 LINE"
);
},
{
closed = 1;
nodes = (
"324 0 LINE",
"328 22 LINE",
"302 31 OFFCURVE",
"280 39 OFFCURVE",
"260 44 CURVE",
"384 653 LINE",
"390 655 OFFCURVE",
"393 654 OFFCURVE",
"463 681 CURVE",
"467 700 LINE",
"127 700 LINE",
"123 678 LINE",
"150 667 OFFCURVE",
"171 660 OFFCURVE",
"193 655 CURVE",
"69 48 LINE",
"58 46 OFFCURVE",
"22 34 OFFCURVE",
"-11 24 CURVE",
"-15 0 LINE"
);
},
{
closed = 1;
nodes = (
"647 326 LINE",
"659 385 LINE",
"238 385 LINE",
"227 326 LINE"
);
},
{
closed = 1;
nodes = (
"836 487 LINE",
"849 546 LINE",
"113 546 LINE",
"101 487 LINE"
);
}
);
width = 817;
}
);
note = Hbar;
unicode = 0126;
},
{
glyphname = Hbrevebelow;
lastChange = "2015-10-27 16:22:00 +0000";
layers = (
{
layerId = "A20AAD8A-5619-416D-9D3E-77802FB4F06A";
name = "Bold Italic";
paths = (
{
closed = 1;
nodes = (
"756 0 LINE",
"759 22 LINE",
"732 33 OFFCURVE",
"710 40 OFFCURVE",
"688 45 CURVE",
"812 652 LINE",
"824 654 OFFCURVE",
"859 666 OFFCURVE",
"893 676 CURVE",
"898 700 LINE",
"557 700 LINE",
"553 678 LINE",
"579 669 OFFCURVE",
"601 661 OFFCURVE",
"621 656 CURVE",
"496 47 LINE",
"492 45 OFFCURVE",
"489 46 OFFCURVE",
"419 19 CURVE",
"415 0 LINE"
);
},
{
closed = 1;
nodes = (
"433 -191 OFFCURVE",
"512 -146 OFFCURVE",
"549 -50 CURVE",
"447 -50 LINE",
"426 -121 OFFCURVE",
"382 -130 OFFCURVE",
"344 -130 CURVE SMOOTH",
"304 -130 OFFCURVE",
"264 -121 OFFCURVE",
"272 -50 CURVE",
"170 -50 LINE",
"167 -146 OFFCURVE",
"228 -191 OFFCURVE",
"331 -191 CURVE SMOOTH"
);
},
{
closed = 1;
nodes = (
"324 0 LINE",
"328 22 LINE",
"302 31 OFFCURVE",
"280 39 OFFCURVE",
"260 44 CURVE",
"384 653 LINE",
"390 655 OFFCURVE",
"393 654 OFFCURVE",
"463 681 CURVE",
"467 700 LINE",
"127 700 LINE",
"123 678 LINE",
"150 667 OFFCURVE",
"171 660 OFFCURVE",
"193 655 CURVE",
"69 48 LINE",
"58 46 OFFCURVE",
"22 34 OFFCURVE",
"-11 24 CURVE",
"-15 0 LINE"
);
},
{
closed = 1;
nodes = (
"647 326 LINE",
"659 385 LINE",
"238 385 LINE",
"227 326 LINE"
);
}
);
width = 817;
}
);
note = Hbrevebelow;
unicode = 1E2A;
},
{
glyphname = Hcircumflex;
lastChange = "2015-10-27 16:21:59 +0000";
layers = (
{
layerId = "A20AAD8A-5619-416D-9D3E-77802FB4F06A";
name = "Bold Italic";
paths = (
{
closed = 1;
nodes = (
"756 0 LINE",
"759 22 LINE",
"732 33 OFFCURVE",
"710 40 OFFCURVE",
"688 45 CURVE",
"812 652 LINE",
"824 654 OFFCURVE",
"859 666 OFFCURVE",
"893 676 CURVE",
"898 700 LINE",
"557 700 LINE",
"553 678 LINE",
"579 669 OFFCURVE",
"601 661 OFFCURVE",
"621 656 CURVE",
"496 47 LINE",
"492 45 OFFCURVE",
"489 46 OFFCURVE",
"419 19 CURVE",
"415 0 LINE"
);
},
{
closed = 1;
nodes = (
"324 0 LINE",
"328 22 LINE",
"302 31 OFFCURVE",
"280 39 OFFCURVE",
"260 44 CURVE",
"384 653 LINE",
"390 655 OFFCURVE",
"393 654 OFFCURVE",
"463 681 CURVE",
"467 700 LINE",
"127 700 LINE",
"123 678 LINE",
"150 667 OFFCURVE",
"171 660 OFFCURVE",
"193 655 CURVE",
"69 48 LINE",
"58 46 OFFCURVE",
"22 34 OFFCURVE",
"-11 24 CURVE",
"-15 0 LINE"
);
},
{
closed = 1;
nodes = (
"647 326 LINE",
"659 385 LINE",
"238 385 LINE",
"227 326 LINE"
);
},
{
closed = 1;
nodes = (
"446 821 OFFCURVE",
"528 891 OFFCURVE",
"557 928 CURVE",
"557 928 OFFCURVE",
"560 928 OFFCURVE",
"560 928 CURVE",
"573 891 OFFCURVE",
"626 821 OFFCURVE",
"661 786 CURVE",
"748 841 LINE",
"708 870 OFFCURVE",
"629 964 OFFCURVE",
"615 997 CURVE",
"615 997 OFFCURVE",
"528 997 OFFCURVE",
"528 997 CURVE",
"501 964 OFFCURVE",
"384 870 OFFCURVE",
"333 841 CURVE",
"398 786 LINE"
);
}
);
width = 817;
}
);
note = Hcircumflex;
unicode = 0124;
},
{
glyphname = Hdotbelow;
lastChange = "2015-10-27 16:21:59 +0000";
layers = (
{
layerId = "A20AAD8A-5619-416D-9D3E-77802FB4F06A";
name = "Bold Italic";
paths = (
{
closed = 1;
nodes = (
"756 0 LINE",
"759 22 LINE",
"732 33 OFFCURVE",
"710 40 OFFCURVE",
"688 45 CURVE",
"812 652 LINE",
"824 654 OFFCURVE",
"859 666 OFFCURVE",
"893 676 CURVE",
"898 700 LINE",
"557 700 LINE",
"553 678 LINE",
"579 669 OFFCURVE",
"601 661 OFFCURVE",
"621 656 CURVE",
"496 47 LINE",
"492 45 OFFCURVE",
"489 46 OFFCURVE",
"419 19 CURVE",
"415 0 LINE"
);
},
{
closed = 1;
nodes = (
"373 -195 OFFCURVE",
"407 -163 OFFCURVE",
"415 -123 CURVE SMOOTH",
"423 -83 OFFCURVE",
"403 -50 OFFCURVE",
"360 -50 CURVE SMOOTH",
"317 -50 OFFCURVE",
"284 -83 OFFCURVE",
"276 -123 CURVE SMOOTH",
"268 -163 OFFCURVE",
"287 -195 OFFCURVE",
"330 -195 CURVE SMOOTH"
);
},
{
closed = 1;
nodes = (
"324 0 LINE",
"328 22 LINE",
"302 31 OFFCURVE",
"280 39 OFFCURVE",
"260 44 CURVE",
"384 653 LINE",
"390 655 OFFCURVE",
"393 654 OFFCURVE",
"463 681 CURVE",
"467 700 LINE",
"127 700 LINE",
"123 678 LINE",
"150 667 OFFCURVE",
"171 660 OFFCURVE",
"193 655 CURVE",
"69 48 LINE",
"58 46 OFFCURVE",
"22 34 OFFCURVE",
"-11 24 CURVE",
"-15 0 LINE"
);
},
{
closed = 1;
nodes = (
"647 326 LINE",
"659 385 LINE",
"238 385 LINE",
"227 326 LINE"
);
}
);
width = 817;
}
);
note = Hdotbelow;
unicode = 1E24;
},
{
glyphname = I;
lastChange = "2015-10-27 16:22:00 +0000";
layers = (
{
layerId = "A20AAD8A-5619-416D-9D3E-77802FB4F06A";
name = "Bold Italic";
paths = (
{
closed = 1;
nodes = (
"329 0 LINE",
"333 23 LINE",
"308 31 OFFCURVE",
"281 41 OFFCURVE",
"261 45 CURVE",
"385 653 LINE",
"467 675 LINE",
"471 700 LINE",
"127 700 LINE",
"122 677 LINE",
"147 669 OFFCURVE",
"175 659 OFFCURVE",
"194 655 CURVE",
"69 47 LINE",
"-11 25 LINE",
"-15 0 LINE"
);
}
);
width = 391;
}
);
note = I;
unicode = 0049;
},
{
glyphname = IJ;
lastChange = "2015-10-27 16:22:00 +0000";
layers = (
{
layerId = "A20AAD8A-5619-416D-9D3E-77802FB4F06A";
name = "Bold Italic";
paths = (
{
closed = 1;
nodes = (
"660 -10 OFFCURVE",
"784 39 OFFCURVE",
"812 176 CURVE SMOOTH",
"909 652 LINE",
"920 654 OFFCURVE",
"955 666 OFFCURVE",
"988 676 CURVE",
"993 700 LINE",
"652 700 LINE",
"647 676 LINE",
"671 667 OFFCURVE",
"691 659 OFFCURVE",
"717 653 CURVE",
"618 165 LINE SMOOTH",
"602 89 OFFCURVE",
"554 62 OFFCURVE",
"508 62 CURVE SMOOTH",
"466 62 OFFCURVE",
"425 82 OFFCURVE",
"405 102 CURVE",
"368 54 LINE",
"405 12 OFFCURVE",
"478 -10 OFFCURVE",
"548 -10 CURVE SMOOTH"
);
},
{
closed = 1;
nodes = (
"329 0 LINE",
"333 23 LINE",
"308 31 OFFCURVE",
"281 41 OFFCURVE",
"261 45 CURVE",
"385 653 LINE",
"467 675 LINE",
"471 700 LINE",
"127 700 LINE",
"122 677 LINE",
"147 669 OFFCURVE",
"175 659 OFFCURVE",
"194 655 CURVE",
"69 47 LINE",
"-11 25 LINE",
"-15 0 LINE"
);
}
);
width = 912;
}
);
note = IJ;
rightKerningGroup = J;
unicode = 0132;
},
{
glyphname = Iacute;
lastChange = "2015-10-27 16:22:00 +0000";
layers = (
{
layerId = "A20AAD8A-5619-416D-9D3E-77802FB4F06A";
name = "Bold Italic";
paths = (
{
closed = 1;
nodes = (
"329 0 LINE",
"333 23 LINE",
"308 31 OFFCURVE",
"281 41 OFFCURVE",
"261 45 CURVE",
"385 653 LINE",
"467 675 LINE",
"471 700 LINE",
"127 700 LINE",
"122 677 LINE",
"147 669 OFFCURVE",
"175 659 OFFCURVE",
"194 655 CURVE",
"69 47 LINE",
"-11 25 LINE",
"-15 0 LINE"
);
},
{
closed = 1;
nodes = (
"404 886 LINE SMOOTH",
"445 909 OFFCURVE",
"470 931 OFFCURVE",
"477 960 CURVE",
"481 982 OFFCURVE",
"470 1011 OFFCURVE",
"429 1011 CURVE SMOOTH",
"390 1011 OFFCURVE",
"354 975 OFFCURVE",
"348 969 CURVE",
"198 830 LINE",
"219 786 LINE"
);
}
);
width = 391;
}
);
note = Iacute;
unicode = 00CD;
},
{
glyphname = Ibreve;
lastChange = "2015-10-27 16:22:00 +0000";
layers = (
{
layerId = "A20AAD8A-5619-416D-9D3E-77802FB4F06A";
name = "Bold Italic";
paths = (
{
closed = 1;
nodes = (
"329 0 LINE",
"333 23 LINE",
"308 31 OFFCURVE",
"281 41 OFFCURVE",
"261 45 CURVE",
"385 653 LINE",
"467 675 LINE",
"471 700 LINE",
"127 700 LINE",
"122 677 LINE",
"147 669 OFFCURVE",
"175 659 OFFCURVE",
"194 655 CURVE",
"69 47 LINE",
"-11 25 LINE",
"-15 0 LINE"
);
},
{
closed = 1;
nodes = (
"419 786 OFFCURVE",
"497 831 OFFCURVE",
"535 927 CURVE",
"433 927 LINE",
"412 856 OFFCURVE",
"368 847 OFFCURVE",
"328 847 CURVE SMOOTH",
"289 847 OFFCURVE",
"249 856 OFFCURVE",
"256 927 CURVE",
"156 927 LINE",
"153 831 OFFCURVE",
"213 786 OFFCURVE",
"316 786 CURVE SMOOTH"
);
}
);
width = 391;
}
);
note = Ibreve;
unicode = 012C;
},
{
glyphname = Icaron;
lastChange = "2015-10-27 16:21:58 +0000";
layers = (
{
layerId = "A20AAD8A-5619-416D-9D3E-77802FB4F06A";
name = "Bold Italic";
paths = (
{
closed = 1;
nodes = (
"329 0 LINE",
"333 23 LINE",
"308 31 OFFCURVE",
"281 41 OFFCURVE",
"261 45 CURVE",
"385 653 LINE",
"467 675 LINE",
"471 700 LINE",
"127 700 LINE",
"122 677 LINE",
"147 669 OFFCURVE",
"175 659 OFFCURVE",
"194 655 CURVE",
"69 47 LINE",
"-11 25 LINE",
"-15 0 LINE"
);
},
{
closed = 1;
nodes = (
"273 786 OFFCURVE",
"360 786 OFFCURVE",
"360 786 CURVE",
"387 819 OFFCURVE",
"505 913 OFFCURVE",
"556 942 CURVE",
"491 997 LINE",
"442 962 OFFCURVE",
"360 892 OFFCURVE",
"331 855 CURVE",
"331 855 OFFCURVE",
"328 855 OFFCURVE",
"328 855 CURVE",
"315 892 OFFCURVE",
"262 962 OFFCURVE",
"227 997 CURVE",
"141 942 LINE",
"180 913 OFFCURVE",
"259 819 OFFCURVE",
"273 786 CURVE"
);
}
);
width = 391;
}
);
note = Icaron;
unicode = 01CF;
},
{
glyphname = Icircumflex;
lastChange = "2015-10-27 16:21:59 +0000";
layers = (
{
layerId = "A20AAD8A-5619-416D-9D3E-77802FB4F06A";
name = "Bold Italic";
paths = (
{
closed = 1;
nodes = (
"329 0 LINE",
"333 23 LINE",
"308 31 OFFCURVE",
"281 41 OFFCURVE",
"261 45 CURVE",
"385 653 LINE",
"467 675 LINE",
"471 700 LINE",
"127 700 LINE",
"122 677 LINE",
"147 669 OFFCURVE",
"175 659 OFFCURVE",
"194 655 CURVE",
"69 47 LINE",
"-11 25 LINE",
"-15 0 LINE"
);
},
{
closed = 1;
nodes = (
"233 821 OFFCURVE",
"315 891 OFFCURVE",
"344 928 CURVE",
"344 928 OFFCURVE",
"347 928 OFFCURVE",
"347 928 CURVE",
"360 891 OFFCURVE",
"413 821 OFFCURVE",
"448 786 CURVE",
"535 841 LINE",
"495 870 OFFCURVE",
"416 964 OFFCURVE",
"402 997 CURVE",
"402 997 OFFCURVE",
"315 997 OFFCURVE",
"315 997 CURVE",
"288 964 OFFCURVE",
"171 870 OFFCURVE",
"120 841 CURVE",
"185 786 LINE"
);
}
);
width = 391;
}
);
note = Icircumflex;
unicode = 00CE;
},
{
glyphname = Idieresis;
lastChange = "2015-10-27 16:22:00 +0000";
layers = (
{
layerId = "A20AAD8A-5619-416D-9D3E-77802FB4F06A";
name = "Bold Italic";
paths = (
{
closed = 1;
nodes = (
"329 0 LINE",
"333 23 LINE",
"308 31 OFFCURVE",
"281 41 OFFCURVE",
"261 45 CURVE",
"385 653 LINE",
"467 675 LINE",
"471 700 LINE",
"127 700 LINE",
"122 677 LINE",
"147 669 OFFCURVE",
"175 659 OFFCURVE",
"194 655 CURVE",
"69 47 LINE",
"-11 25 LINE",
"-15 0 LINE"
);
},
{
closed = 1;
nodes = (
"237 786 OFFCURVE",
"270 818 OFFCURVE",
"278 858 CURVE SMOOTH",
"286 898 OFFCURVE",
"266 931 OFFCURVE",
"223 931 CURVE SMOOTH",
"180 931 OFFCURVE",
"148 898 OFFCURVE",
"140 858 CURVE SMOOTH",
"132 818 OFFCURVE",
"152 786 OFFCURVE",
"195 786 CURVE SMOOTH"
);
},
{
closed = 1;
nodes = (
"480 786 OFFCURVE",
"513 818 OFFCURVE",
"521 858 CURVE SMOOTH",
"529 898 OFFCURVE",
"509 931 OFFCURVE",
"466 931 CURVE SMOOTH",
"422 931 OFFCURVE",
"390 898 OFFCURVE",
"382 858 CURVE SMOOTH",
"373 818 OFFCURVE",
"394 786 OFFCURVE",
"437 786 CURVE SMOOTH"
);
}
);
width = 391;
}
);
note = Idieresis;
unicode = 00CF;
},
{
glyphname = Idotaccent;
lastChange = "2015-10-27 16:22:00 +0000";
layers = (
{
layerId = "A20AAD8A-5619-416D-9D3E-77802FB4F06A";
name = "Bold Italic";
paths = (
{
closed = 1;
nodes = (
"329 0 LINE",
"333 23 LINE",
"308 31 OFFCURVE",
"281 41 OFFCURVE",
"261 45 CURVE",
"385 653 LINE",
"467 675 LINE",
"471 700 LINE",
"127 700 LINE",
"122 677 LINE",
"147 669 OFFCURVE",
"175 659 OFFCURVE",
"194 655 CURVE",
"69 47 LINE",
"-11 25 LINE",
"-15 0 LINE"
);
},
{
closed = 1;
nodes = (
"357 786 OFFCURVE",
"390 818 OFFCURVE",
"398 858 CURVE SMOOTH",
"406 898 OFFCURVE",
"386 931 OFFCURVE",
"343 931 CURVE SMOOTH",
"300 931 OFFCURVE",
"267 898 OFFCURVE",
"259 858 CURVE SMOOTH",
"251 818 OFFCURVE",
"271 786 OFFCURVE",
"314 786 CURVE SMOOTH"
);
}
);
width = 391;
}
);
note = Idotaccent;
unicode = 0130;
},
{
glyphname = Idotbelow;
lastChange = "2015-10-27 16:22:00 +0000";
layers = (
{
layerId = "A20AAD8A-5619-416D-9D3E-77802FB4F06A";
name = "Bold Italic";
paths = (
{
closed = 1;
nodes = (
"329 0 LINE",
"333 23 LINE",
"308 31 OFFCURVE",
"281 41 OFFCURVE",
"261 45 CURVE",
"385 653 LINE",
"467 675 LINE",
"471 700 LINE",
"127 700 LINE",
"122 677 LINE",
"147 669 OFFCURVE",
"175 659 OFFCURVE",
"194 655 CURVE",
"69 47 LINE",
"-11 25 LINE",
"-15 0 LINE"
);
},
{
closed = 1;
nodes = (
"160 -195 OFFCURVE",
"194 -163 OFFCURVE",
"202 -123 CURVE SMOOTH",
"210 -83 OFFCURVE",
"190 -50 OFFCURVE",
"147 -50 CURVE SMOOTH",
"104 -50 OFFCURVE",
"71 -83 OFFCURVE",
"62 -123 CURVE SMOOTH",
"55 -163 OFFCURVE",
"74 -195 OFFCURVE",
"117 -195 CURVE SMOOTH"
);
}
);
width = 391;
}
);
note = Idotbelow;
unicode = 1ECA;
},
{
glyphname = Igrave;
lastChange = "2015-10-27 16:21:59 +0000";
layers = (
{
layerId = "A20AAD8A-5619-416D-9D3E-77802FB4F06A";
name = "Bold Italic";
paths = (
{
closed = 1;
nodes = (
"329 0 LINE",
"333 23 LINE",
"308 31 OFFCURVE",
"281 41 OFFCURVE",
"261 45 CURVE",
"385 653 LINE",
"467 675 LINE",
"471 700 LINE",
"127 700 LINE",
"122 677 LINE",
"147 669 OFFCURVE",
"175 659 OFFCURVE",
"194 655 CURVE",
"69 47 LINE",
"-11 25 LINE",
"-15 0 LINE"
);
},
{
closed = 1;
nodes = (
"451 830 LINE",
"358 969 LINE SMOOTH",
"354 975 OFFCURVE",
"332 1011 OFFCURVE",
"293 1011 CURVE SMOOTH",
"251 1011 OFFCURVE",
"228 982 OFFCURVE",
"225 960 CURVE",
"218 931 OFFCURVE",
"235 909 OFFCURVE",
"268 886 CURVE SMOOTH",
"413 786 LINE"
);
}
);
width = 391;
}
);
note = Igrave;
unicode = 00CC;
},
{
glyphname = Ihookabove;
lastChange = "2015-10-27 16:22:00 +0000";
layers = (
{
layerId = "A20AAD8A-5619-416D-9D3E-77802FB4F06A";
name = "Bold Italic";
paths = (
{
closed = 1;
nodes = (
"329 0 LINE",
"333 23 LINE",
"308 31 OFFCURVE",
"281 41 OFFCURVE",
"261 45 CURVE",
"385 653 LINE",
"467 675 LINE",
"471 700 LINE",
"127 700 LINE",
"122 677 LINE",
"147 669 OFFCURVE",
"175 659 OFFCURVE",
"194 655 CURVE",
"69 47 LINE",
"-11 25 LINE",
"-15 0 LINE"
);
},
{
closed = 1;
nodes = (
"361 786 LINE",
"385 859 LINE",
"439 864 OFFCURVE",
"488 883 OFFCURVE",
"502 951 CURVE SMOOTH",
"516 1025 OFFCURVE",
"456 1051 OFFCURVE",
"392 1051 CURVE SMOOTH",
"358 1051 OFFCURVE",
"324 1043 OFFCURVE",
"300 1032 CURVE",
"297 987 LINE",
"320 999 OFFCURVE",
"345 1003 OFFCURVE",
"362 1003 CURVE SMOOTH",
"403 1003 OFFCURVE",
"419 978 OFFCURVE",
"414 952 CURVE SMOOTH",
"405 910 OFFCURVE",
"370 900 OFFCURVE",
"349 900 CURVE SMOOTH",
"304 900 LINE",
"286 786 LINE"
);
}
);
width = 391;
}
);
note = Ihookabove;
unicode = 1EC8;
},
{
glyphname = Iogonek;
lastChange = "2015-10-27 16:21:59 +0000";
layers = (
{
layerId = "A20AAD8A-5619-416D-9D3E-77802FB4F06A";
name = "Bold Italic";
paths = (
{
closed = 1;
nodes = (
"329 0 LINE",
"333 23 LINE",
"308 31 OFFCURVE",
"281 41 OFFCURVE",
"261 45 CURVE",
"385 653 LINE",
"467 675 LINE",
"471 700 LINE",
"127 700 LINE",
"122 677 LINE",
"147 669 OFFCURVE",
"175 659 OFFCURVE",
"194 655 CURVE",
"69 47 LINE",
"-11 25 LINE",
"-15 0 LINE"
);
},
{
closed = 1;
nodes = (
"287 -218 OFFCURVE",
"340 -206 OFFCURVE",
"370 -186 CURVE",
"385 -109 LINE",
"354 -127 OFFCURVE",
"327 -134 OFFCURVE",
"308 -134 CURVE SMOOTH",
"272 -134 OFFCURVE",
"254 -110 OFFCURVE",
"260 -82 CURVE SMOOTH",
"266 -52 OFFCURVE",
"297 -17 OFFCURVE",
"319 0 CURVE",
"234 0 LINE",
"168 -17 OFFCURVE",
"121 -76 OFFCURVE",
"112 -122 CURVE SMOOTH",
"99 -184 OFFCURVE",
"147 -218 OFFCURVE",
"238 -218 CURVE SMOOTH"
);
}
);
width = 391;
}
);
note = Iogonek;
unicode = 012E;
},
{
glyphname = Itilde;
lastChange = "2015-10-27 16:21:59 +0000";
layers = (
{
layerId = "A20AAD8A-5619-416D-9D3E-77802FB4F06A";
name = "Bold Italic";
paths = (
{
closed = 1;
nodes = (
"329 0 LINE",
"333 23 LINE",
"308 31 OFFCURVE",
"281 41 OFFCURVE",
"261 45 CURVE",
"385 653 LINE",
"467 675 LINE",
"471 700 LINE",
"127 700 LINE",
"122 677 LINE",
"147 669 OFFCURVE",
"175 659 OFFCURVE",
"194 655 CURVE",
"69 47 LINE",
"-11 25 LINE",
"-15 0 LINE"
);
},
{
closed = 1;
nodes = (
"193 786 LINE",
"204 817 OFFCURVE",
"224 836 OFFCURVE",
"252 836 CURVE SMOOTH",
"284 836 OFFCURVE",
"338 786 OFFCURVE",
"399 786 CURVE SMOOTH",
"486 786 OFFCURVE",
"534 839 OFFCURVE",
"556 915 CURVE",
"468 915 LINE",
"447 867 OFFCURVE",
"425 864 OFFCURVE",
"404 864 CURVE SMOOTH",
"365 864 OFFCURVE",
"340 914 OFFCURVE",
"262 914 CURVE SMOOTH",
"186 914 OFFCURVE",
"132 869 OFFCURVE",
"104 786 CURVE"
);
}
);
width = 391;
}
);
note = Itilde;
unicode = 0128;
},
{
glyphname = J;
lastChange = "2015-10-27 16:21:59 +0000";
layers = (
{
layerId = "A20AAD8A-5619-416D-9D3E-77802FB4F06A";
name = "Bold Italic";
paths = (
{
closed = 1;
nodes = (
"279 -10 OFFCURVE",
"404 39 OFFCURVE",
"432 176 CURVE SMOOTH",
"529 652 LINE",
"540 654 OFFCURVE",
"575 666 OFFCURVE",
"608 676 CURVE",
"612 700 LINE",
"272 700 LINE",
"267 676 LINE",
"291 667 OFFCURVE",
"311 659 OFFCURVE",
"337 653 CURVE",
"238 165 LINE SMOOTH",
"222 89 OFFCURVE",
"174 62 OFFCURVE",
"128 62 CURVE SMOOTH",
"85 62 OFFCURVE",
"45 82 OFFCURVE",
"25 102 CURVE",
"-12 54 LINE",
"25 12 OFFCURVE",
"98 -10 OFFCURVE",
"168 -10 CURVE SMOOTH"
);
}
);
width = 532;
}
);
leftKerningGroup = J;
note = J;
rightKerningGroup = J;
unicode = 004A;
},
{
glyphname = Jcircumflex;
lastChange = "2015-10-27 16:21:59 +0000";
layers = (
{
layerId = "A20AAD8A-5619-416D-9D3E-77802FB4F06A";
name = "Bold Italic";
paths = (
{
closed = 1;
nodes = (
"279 -10 OFFCURVE",
"404 39 OFFCURVE",
"432 176 CURVE SMOOTH",
"529 652 LINE",
"540 654 OFFCURVE",
"575 666 OFFCURVE",
"608 676 CURVE",
"612 700 LINE",
"272 700 LINE",
"267 676 LINE",
"291 667 OFFCURVE",
"311 659 OFFCURVE",
"337 653 CURVE",
"238 165 LINE SMOOTH",
"222 89 OFFCURVE",
"174 62 OFFCURVE",
"128 62 CURVE SMOOTH",
"85 62 OFFCURVE",
"45 82 OFFCURVE",
"25 102 CURVE",
"-12 54 LINE",
"25 12 OFFCURVE",
"98 -10 OFFCURVE",
"168 -10 CURVE SMOOTH"
);
},
{
closed = 1;
nodes = (
"376 821 OFFCURVE",
"458 891 OFFCURVE",
"487 928 CURVE",
"487 928 OFFCURVE",
"490 928 OFFCURVE",
"490 928 CURVE",
"503 891 OFFCURVE",
"556 821 OFFCURVE",
"591 786 CURVE",
"678 841 LINE",
"638 870 OFFCURVE",
"559 964 OFFCURVE",
"545 997 CURVE",
"545 997 OFFCURVE",
"458 997 OFFCURVE",
"458 997 CURVE",
"431 964 OFFCURVE",
"314 870 OFFCURVE",
"263 841 CURVE",
"328 786 LINE"
);
}
);
width = 532;
}
);
leftKerningGroup = J;
note = Jcircumflex;
rightKerningGroup = J;
unicode = 0134;
},
{
glyphname = K;
lastChange = "2015-10-27 16:21:59 +0000";
layers = (
{
layerId = "A20AAD8A-5619-416D-9D3E-77802FB4F06A";
name = "Bold Italic";
paths = (
{
closed = 1;
nodes = (
"328 0 LINE",
"332 23 LINE",
"308 31 OFFCURVE",
"281 41 OFFCURVE",
"261 45 CURVE",
"385 653 LINE",
"466 675 LINE",
"470 700 LINE",
"127 700 LINE",
"123 678 LINE",
"148 668 OFFCURVE",
"174 660 OFFCURVE",
"194 655 CURVE",
"69 47 LINE",
"69 47 OFFCURVE",
"19 33 OFFCURVE",
"-11 25 CURVE",
"-15 0 LINE"
);
},
{
closed = 1;
nodes = (
"776 0 LINE",
"780 23 LINE",
"747 34 OFFCURVE",
"720 41 OFFCURVE",
"698 46 CURVE",
"501 448 LINE",
"365 329 LINE",
"522 0 LINE"
);
},
{
closed = 1;
nodes = (
"757 641 LINE SMOOTH",
"780 661 OFFCURVE",
"816 661 OFFCURVE",
"843 669 CURVE",
"849 700 LINE",
"606 700 LINE",
"600 669 LINE",
"677 654 LINE",
"244 274 LINE",
"223 171 LINE"
);
}
);
width = 817;
}
);
note = K;
rightKerningGroup = K;
unicode = 004B;
},
{
glyphname = Kcommaaccent;
lastChange = "2015-10-27 16:22:00 +0000";
layers = (
{
layerId = "A20AAD8A-5619-416D-9D3E-77802FB4F06A";
name = "Bold Italic";
paths = (
{
closed = 1;
nodes = (
"328 0 LINE",
"332 23 LINE",
"308 31 OFFCURVE",
"281 41 OFFCURVE",
"261 45 CURVE",
"385 653 LINE",
"466 675 LINE",
"470 700 LINE",
"127 700 LINE",
"123 678 LINE",
"148 668 OFFCURVE",
"174 660 OFFCURVE",
"194 655 CURVE",
"69 47 LINE",
"69 47 OFFCURVE",
"19 33 OFFCURVE",
"-11 25 CURVE",
"-15 0 LINE"
);
},
{
closed = 1;
nodes = (
"344 -356 OFFCURVE",
"412 -264 OFFCURVE",
"431 -174 CURVE SMOOTH",
"440 -130 OFFCURVE",
"420 -89 OFFCURVE",
"360 -89 CURVE SMOOTH",
"316 -89 OFFCURVE",
"271 -119 OFFCURVE",
"261 -168 CURVE SMOOTH",
"252 -209 OFFCURVE",
"280 -246 OFFCURVE",
"321 -251 CURVE",
"302 -297 OFFCURVE",
"251 -344 OFFCURVE",
"222 -368 CURVE",
"270 -412 LINE"
);
},
{
closed = 1;
nodes = (
"776 0 LINE",
"780 23 LINE",
"747 34 OFFCURVE",
"720 41 OFFCURVE",
"698 46 CURVE",
"501 448 LINE",
"365 329 LINE",
"522 0 LINE"
);
},
{
closed = 1;
nodes = (
"757 641 LINE SMOOTH",
"780 661 OFFCURVE",
"816 661 OFFCURVE",
"843 669 CURVE",
"849 700 LINE",
"606 700 LINE",
"600 669 LINE",
"677 654 LINE",
"244 274 LINE",
"223 171 LINE"
);
}
);
width = 817;
}
);
note = Kcommaaccent;
rightKerningGroup = K;
unicode = 0136;
},
{
glyphname = L;
lastChange = "2015-10-27 16:21:59 +0000";
layers = (
{
layerId = "A20AAD8A-5619-416D-9D3E-77802FB4F06A";
name = "Bold Italic";
paths = (
{
closed = 1;
nodes = (
"573 0 LINE",
"633 196 LINE",
"592 196 LINE",
"568 174 OFFCURVE",
"519 99 OFFCURVE",
"508 59 CURVE",
"273 59 LINE",
"394 653 LINE",
"474 675 LINE",
"479 700 LINE",
"135 700 LINE",
"132 678 LINE",
"156 668 OFFCURVE",
"181 660 OFFCURVE",
"203 655 CURVE",
"203 655 OFFCURVE",
"78 45 OFFCURVE",
"78 45 CURVE",
"55 41 OFFCURVE",
"21 33 OFFCURVE",
"-12 22 CURVE",
"-15 0 LINE"
);
}
);
width = 664;
}
);
note = L;
rightKerningGroup = L;
unicode = 004C;
},
{
glyphname = Lacute;
lastChange = "2015-10-27 16:22:00 +0000";
layers = (
{
layerId = "A20AAD8A-5619-416D-9D3E-77802FB4F06A";
name = "Bold Italic";
paths = (
{
closed = 1;
nodes = (
"573 0 LINE",
"633 196 LINE",
"592 196 LINE",
"568 174 OFFCURVE",
"519 99 OFFCURVE",
"508 59 CURVE",
"273 59 LINE",
"394 653 LINE",
"474 675 LINE",
"479 700 LINE",
"135 700 LINE",
"132 678 LINE",
"156 668 OFFCURVE",
"181 660 OFFCURVE",
"203 655 CURVE",
"203 655 OFFCURVE",
"78 45 OFFCURVE",
"78 45 CURVE",
"55 41 OFFCURVE",
"21 33 OFFCURVE",
"-12 22 CURVE",
"-15 0 LINE"
);
},
{
closed = 1;
nodes = (
"427 886 LINE SMOOTH",
"468 909 OFFCURVE",
"493 931 OFFCURVE",
"500 960 CURVE",
"504 982 OFFCURVE",
"493 1011 OFFCURVE",
"452 1011 CURVE SMOOTH",
"413 1011 OFFCURVE",
"377 975 OFFCURVE",
"372 969 CURVE",
"221 830 LINE",
"242 786 LINE"
);
}
);
width = 664;
}
);
note = Lacute;
rightKerningGroup = L;
unicode = 0139;
},
{
glyphname = Lcaron;
lastChange = "2015-10-27 16:21:59 +0000";
layers = (
{
layerId = "A20AAD8A-5619-416D-9D3E-77802FB4F06A";
name = "Bold Italic";
paths = (
{
closed = 1;
nodes = (
"573 0 LINE",
"633 196 LINE",
"592 196 LINE",
"568 174 OFFCURVE",
"519 99 OFFCURVE",
"508 59 CURVE",
"273 59 LINE",
"394 653 LINE",
"474 675 LINE",
"479 700 LINE",
"135 700 LINE",
"132 678 LINE",
"156 668 OFFCURVE",
"181 660 OFFCURVE",
"203 655 CURVE",
"203 655 OFFCURVE",
"78 45 OFFCURVE",
"78 45 CURVE",
"55 41 OFFCURVE",
"21 33 OFFCURVE",
"-12 22 CURVE",
"-15 0 LINE"
);
},
{
closed = 1;
nodes = (
"625 429 OFFCURVE",
"699 522 OFFCURVE",
"718 612 CURVE SMOOTH",
"727 656 OFFCURVE",
"713 710 OFFCURVE",
"643 710 CURVE SMOOTH",
"584 710 OFFCURVE",
"547 664 OFFCURVE",
"537 615 CURVE SMOOTH",
"529 574 OFFCURVE",
"550 534 OFFCURVE",
"602 534 CURVE",
"584 488 OFFCURVE",
"532 441 OFFCURVE",
"503 417 CURVE",
"551 373 LINE"
);
}
);
width = 664;
}
);
note = Lcaron;
rightKerningGroup = L;
unicode = 013D;
},
{
glyphname = Lcommaaccent;
lastChange = "2015-10-27 16:21:59 +0000";
layers = (
{
layerId = "A20AAD8A-5619-416D-9D3E-77802FB4F06A";
name = "Bold Italic";
paths = (
{
closed = 1;
nodes = (
"573 0 LINE",
"633 196 LINE",
"592 196 LINE",
"568 174 OFFCURVE",
"519 99 OFFCURVE",
"508 59 CURVE",
"273 59 LINE",
"394 653 LINE",
"474 675 LINE",
"479 700 LINE",
"135 700 LINE",
"132 678 LINE",
"156 668 OFFCURVE",
"181 660 OFFCURVE",
"203 655 CURVE",
"203 655 OFFCURVE",
"78 45 OFFCURVE",
"78 45 CURVE",
"55 41 OFFCURVE",
"21 33 OFFCURVE",
"-12 22 CURVE",
"-15 0 LINE"
);
},
{
closed = 1;
nodes = (
"267 -356 OFFCURVE",
"335 -264 OFFCURVE",
"354 -174 CURVE SMOOTH",
"363 -130 OFFCURVE",
"343 -89 OFFCURVE",
"283 -89 CURVE SMOOTH",
"239 -89 OFFCURVE",
"194 -119 OFFCURVE",
"184 -168 CURVE SMOOTH",
"176 -209 OFFCURVE",
"204 -246 OFFCURVE",
"244 -251 CURVE",
"226 -297 OFFCURVE",
"174 -344 OFFCURVE",
"145 -368 CURVE",
"193 -412 LINE"
);
}
);
width = 664;
}
);
note = Lcommaaccent;
rightKerningGroup = L;
unicode = 013B;
},
{
glyphname = Ldot;
lastChange = "2015-10-27 16:21:59 +0000";
layers = (
{
layerId = "A20AAD8A-5619-416D-9D3E-77802FB4F06A";
name = "Bold Italic";
paths = (
{
closed = 1;
nodes = (
"573 0 LINE",
"633 196 LINE",
"592 196 LINE",
"568 174 OFFCURVE",
"519 99 OFFCURVE",
"508 59 CURVE",
"273 59 LINE",
"394 653 LINE",
"474 675 LINE",
"479 700 LINE",
"135 700 LINE",
"132 678 LINE",
"156 668 OFFCURVE",
"181 660 OFFCURVE",
"203 655 CURVE",
"203 655 OFFCURVE",
"78 45 OFFCURVE",
"78 45 CURVE",
"55 41 OFFCURVE",
"21 33 OFFCURVE",
"-12 22 CURVE",
"-15 0 LINE"
);
},
{
closed = 1;
nodes = (
"557 325 OFFCURVE",
"590 357 OFFCURVE",
"599 397 CURVE SMOOTH",
"607 437 OFFCURVE",
"587 470 OFFCURVE",
"543 470 CURVE SMOOTH",
"500 470 OFFCURVE",
"468 437 OFFCURVE",
"460 397 CURVE SMOOTH",
"451 357 OFFCURVE",
"470 325 OFFCURVE",
"514 325 CURVE SMOOTH"
);
}
);
width = 664;
}
);
note = Ldot;
rightKerningGroup = L;
unicode = 013F;
},
{
glyphname = Ldotbelow;
lastChange = "2015-10-27 16:21:59 +0000";
layers = (
{
layerId = "A20AAD8A-5619-416D-9D3E-77802FB4F06A";
name = "Bold Italic";
paths = (
{
closed = 1;
nodes = (
"573 0 LINE",
"633 196 LINE",
"592 196 LINE",
"568 174 OFFCURVE",
"519 99 OFFCURVE",
"508 59 CURVE",
"273 59 LINE",
"394 653 LINE",
"474 675 LINE",
"479 700 LINE",
"135 700 LINE",
"132 678 LINE",
"156 668 OFFCURVE",
"181 660 OFFCURVE",
"203 655 CURVE",
"203 655 OFFCURVE",
"78 45 OFFCURVE",
"78 45 CURVE",
"55 41 OFFCURVE",
"21 33 OFFCURVE",
"-12 22 CURVE",
"-15 0 LINE"
);
},
{
closed = 1;
nodes = (
"297 -195 OFFCURVE",
"330 -163 OFFCURVE",
"338 -123 CURVE SMOOTH",
"347 -83 OFFCURVE",
"326 -50 OFFCURVE",
"283 -50 CURVE SMOOTH",
"240 -50 OFFCURVE",
"207 -83 OFFCURVE",
"199 -123 CURVE SMOOTH",
"191 -163 OFFCURVE",
"210 -195 OFFCURVE",
"253 -195 CURVE SMOOTH"
);
}
);
width = 664;
}
);
note = Ldotbelow;
rightKerningGroup = L;
unicode = 1E36;
},
{
glyphname = Ldotbelowmacron;
lastChange = "2015-10-27 16:21:59 +0000";
layers = (
{
layerId = "A20AAD8A-5619-416D-9D3E-77802FB4F06A";
name = "Bold Italic";
paths = (
{
closed = 1;
nodes = (
"573 0 LINE",
"633 196 LINE",
"592 196 LINE",
"568 174 OFFCURVE",
"519 99 OFFCURVE",
"508 59 CURVE",
"273 59 LINE",
"394 653 LINE",
"474 675 LINE",
"479 700 LINE",
"135 700 LINE",
"132 678 LINE",
"156 668 OFFCURVE",
"181 660 OFFCURVE",
"203 655 CURVE",
"203 655 OFFCURVE",
"78 45 OFFCURVE",
"78 45 CURVE",
"55 41 OFFCURVE",
"21 33 OFFCURVE",
"-12 22 CURVE",
"-15 0 LINE"
);
},
{
closed = 1;
nodes = (
"294 -195 OFFCURVE",
"327 -163 OFFCURVE",
"335 -123 CURVE SMOOTH",
"344 -83 OFFCURVE",
"324 -50 OFFCURVE",
"280 -50 CURVE SMOOTH",
"237 -50 OFFCURVE",
"204 -83 OFFCURVE",
"196 -123 CURVE SMOOTH",
"188 -163 OFFCURVE",
"207 -195 OFFCURVE",
"251 -195 CURVE SMOOTH"
);
},
{
closed = 1;
nodes = (
"527 785 LINE",
"539 842 LINE",
"129 842 LINE",
"117 785 LINE"
);
}
);
width = 664;
}
);
note = Ldotbelowmacron;
rightKerningGroup = L;
unicode = 1E38;
},
{
glyphname = Llinebelow;
lastChange = "2015-10-27 16:22:00 +0000";
layers = (
{
layerId = "A20AAD8A-5619-416D-9D3E-77802FB4F06A";
name = "Bold Italic";
paths = (
{
closed = 1;
nodes = (
"573 0 LINE",
"633 196 LINE",
"592 196 LINE",
"568 174 OFFCURVE",
"519 99 OFFCURVE",
"508 59 CURVE",
"273 59 LINE",
"394 653 LINE",
"474 675 LINE",
"479 700 LINE",
"135 700 LINE",
"132 678 LINE",
"156 668 OFFCURVE",
"181 660 OFFCURVE",
"203 655 CURVE",
"203 655 OFFCURVE",
"78 45 OFFCURVE",
"78 45 CURVE",
"55 41 OFFCURVE",
"21 33 OFFCURVE",
"-12 22 CURVE",
"-15 0 LINE"
);
},
{
closed = 1;
nodes = (
"469 -112 LINE",
"481 -55 LINE",
"71 -55 LINE",
"60 -112 LINE"
);
}
);
width = 664;
}
);
note = Llinebelow;
rightKerningGroup = L;
unicode = 1E3A;
},
{
glyphname = Lslash;
lastChange = "2015-10-27 16:22:00 +0000";
layers = (
{
layerId = "A20AAD8A-5619-416D-9D3E-77802FB4F06A";
name = "Bold Italic";
paths = (
{
closed = 1;
nodes = (
"573 0 LINE",
"633 196 LINE",
"592 196 LINE",
"568 174 OFFCURVE",
"519 99 OFFCURVE",
"508 59 CURVE",
"273 59 LINE",
"394 653 LINE",
"474 675 LINE",
"479 700 LINE",
"135 700 LINE",
"132 678 LINE",
"156 668 OFFCURVE",
"181 660 OFFCURVE",
"203 655 CURVE",
"203 655 OFFCURVE",
"78 45 OFFCURVE",
"78 45 CURVE",
"55 41 OFFCURVE",
"21 33 OFFCURVE",
"-12 22 CURVE",
"-15 0 LINE"
);
},
{
closed = 1;
nodes = (
"519 374 LINE",
"536 455 LINE",
"60 291 LINE",
"43 210 LINE"
);
}
);
width = 664;
}
);
note = Lslash;
rightKerningGroup = L;
unicode = 0141;
},
{
glyphname = M;
lastChange = "2015-10-27 16:22:00 +0000";
layers = (
{
layerId = "A20AAD8A-5619-416D-9D3E-77802FB4F06A";
name = "Bold Italic";
paths = (
{
closed = 1;
nodes = (
"206 0 LINE",
"210 22 LINE",
"183 31 OFFCURVE",
"162 38 OFFCURVE",
"140 44 CURVE",
"247 565 LINE",
"338 75 LINE",
"449 75 LINE",
"743 549 LINE",
"640 44 LINE",
"616 38 OFFCURVE",
"591 31 OFFCURVE",
"561 22 CURVE",
"557 0 LINE",
"899 0 LINE",
"902 22 LINE",
"876 31 OFFCURVE",
"854 38 OFFCURVE",
"832 44 CURVE",
"956 652 LINE",
"1037 678 LINE",
"1041 700 LINE",
"770 700 LINE",
"474 219 LINE",
"396 700 LINE",
"127 700 LINE",
"123 678 LINE",
"148 668 OFFCURVE",
"174 660 OFFCURVE",
"194 655 CURVE",
"69 44 LINE",
"45 38 OFFCURVE",
"20 31 OFFCURVE",
"-11 22 CURVE",
"-14 0 LINE"
);
}
);
width = 960;
}
);
note = M;
unicode = 004D;
},
{
glyphname = Mdotbelow;
lastChange = "2015-10-27 16:22:00 +0000";
layers = (
{
layerId = "A20AAD8A-5619-416D-9D3E-77802FB4F06A";
name = "Bold Italic";
paths = (
{
closed = 1;
nodes = (
"206 0 LINE",
"210 22 LINE",
"183 31 OFFCURVE",
"162 38 OFFCURVE",
"140 44 CURVE",
"247 565 LINE",
"338 75 LINE",
"449 75 LINE",
"743 549 LINE",
"640 44 LINE",
"616 38 OFFCURVE",
"591 31 OFFCURVE",
"561 22 CURVE",
"557 0 LINE",
"899 0 LINE",
"902 22 LINE",
"876 31 OFFCURVE",
"854 38 OFFCURVE",
"832 44 CURVE",
"956 652 LINE",
"1037 678 LINE",
"1041 700 LINE",
"770 700 LINE",
"474 219 LINE",
"396 700 LINE",
"127 700 LINE",
"123 678 LINE",
"148 668 OFFCURVE",
"174 660 OFFCURVE",
"194 655 CURVE",
"69 44 LINE",
"45 38 OFFCURVE",
"20 31 OFFCURVE",
"-11 22 CURVE",
"-14 0 LINE"
);
},
{
closed = 1;
nodes = (
"444 -195 OFFCURVE",
"478 -163 OFFCURVE",
"486 -123 CURVE SMOOTH",
"494 -83 OFFCURVE",
"474 -50 OFFCURVE",
"431 -50 CURVE SMOOTH",
"388 -50 OFFCURVE",
"355 -83 OFFCURVE",
"347 -123 CURVE SMOOTH",
"339 -163 OFFCURVE",
"358 -195 OFFCURVE",
"401 -195 CURVE SMOOTH"
);
}
);
width = 960;
}
);
note = Mdotbelow;
unicode = 1E42;
},
{
glyphname = N;
lastChange = "2015-10-27 16:21:59 +0000";
layers = (
{
layerId = "A20AAD8A-5619-416D-9D3E-77802FB4F06A";
name = "Bold Italic";
paths = (
{
closed = 1;
nodes = (
"206 0 LINE",
"210 22 LINE",
"183 31 OFFCURVE",
"162 38 OFFCURVE",
"140 44 CURVE",
"253 602 LINE",
"531 0 LINE",
"624 0 LINE",
"757 656 LINE",
"781 662 OFFCURVE",
"806 669 OFFCURVE",
"837 678 CURVE",
"841 700 LINE",
"620 700 LINE",
"616 678 LINE",
"643 669 OFFCURVE",
"664 662 OFFCURVE",
"686 656 CURVE",
"601 237 LINE",
"389 700 LINE",
"127 700 LINE",
"123 678 LINE",
"148 668 OFFCURVE",
"173 660 OFFCURVE",
"194 655 CURVE",
"69 44 LINE",
"45 38 OFFCURVE",
"20 31 OFFCURVE",
"-11 22 CURVE",
"-14 0 LINE"
);
}
);
width = 760;
}
);
note = N;
unicode = 004E;
},
{
glyphname = Nacute;
lastChange = "2015-10-27 16:22:00 +0000";
layers = (
{
layerId = "A20AAD8A-5619-416D-9D3E-77802FB4F06A";
name = "Bold Italic";
paths = (
{
closed = 1;
nodes = (
"206 0 LINE",
"210 22 LINE",
"183 31 OFFCURVE",
"162 38 OFFCURVE",
"140 44 CURVE",
"253 602 LINE",
"531 0 LINE",
"624 0 LINE",
"757 656 LINE",
"781 662 OFFCURVE",
"806 669 OFFCURVE",
"837 678 CURVE",
"841 700 LINE",
"620 700 LINE",
"616 678 LINE",
"643 669 OFFCURVE",
"664 662 OFFCURVE",
"686 656 CURVE",
"601 237 LINE",
"389 700 LINE",
"127 700 LINE",
"123 678 LINE",
"148 668 OFFCURVE",
"173 660 OFFCURVE",
"194 655 CURVE",
"69 44 LINE",
"45 38 OFFCURVE",
"20 31 OFFCURVE",
"-11 22 CURVE",
"-14 0 LINE"
);
},
{
closed = 1;
nodes = (
"635 886 LINE SMOOTH",
"676 909 OFFCURVE",
"701 931 OFFCURVE",
"708 960 CURVE",
"711 982 OFFCURVE",
"701 1011 OFFCURVE",
"660 1011 CURVE SMOOTH",
"620 1011 OFFCURVE",
"585 975 OFFCURVE",
"579 969 CURVE",
"428 830 LINE",
"449 786 LINE"
);
}
);
width = 760;
}
);
note = Nacute;
unicode = 0143;
},
{
glyphname = Ncaron;
lastChange = "2015-10-27 16:22:00 +0000";
layers = (
{
layerId = "A20AAD8A-5619-416D-9D3E-77802FB4F06A";
name = "Bold Italic";
paths = (
{
closed = 1;
nodes = (
"206 0 LINE",
"210 22 LINE",
"183 31 OFFCURVE",
"162 38 OFFCURVE",
"140 44 CURVE",
"253 602 LINE",
"531 0 LINE",
"624 0 LINE",
"757 656 LINE",
"781 662 OFFCURVE",
"806 669 OFFCURVE",
"837 678 CURVE",
"841 700 LINE",
"620 700 LINE",
"616 678 LINE",
"643 669 OFFCURVE",
"664 662 OFFCURVE",
"686 656 CURVE",
"601 237 LINE",
"389 700 LINE",
"127 700 LINE",
"123 678 LINE",
"148 668 OFFCURVE",
"173 660 OFFCURVE",
"194 655 CURVE",
"69 44 LINE",
"45 38 OFFCURVE",
"20 31 OFFCURVE",
"-11 22 CURVE",
"-14 0 LINE"
);
},
{
closed = 1;
nodes = (
"457 786 OFFCURVE",
"544 786 OFFCURVE",
"544 786 CURVE",
"571 819 OFFCURVE",
"689 913 OFFCURVE",
"740 942 CURVE",
"675 997 LINE",
"626 962 OFFCURVE",
"544 892 OFFCURVE",
"516 855 CURVE",
"516 855 OFFCURVE",
"513 855 OFFCURVE",
"513 855 CURVE",
"499 892 OFFCURVE",
"446 962 OFFCURVE",
"411 997 CURVE",
"325 942 LINE",
"365 913 OFFCURVE",
"444 819 OFFCURVE",
"457 786 CURVE"
);
}
);
width = 760;
}
);
note = Ncaron;
unicode = 0147;
},
{
glyphname = Ncommaaccent;
lastChange = "2015-10-27 16:22:00 +0000";
layers = (
{
layerId = "A20AAD8A-5619-416D-9D3E-77802FB4F06A";
name = "Bold Italic";
paths = (
{
closed = 1;
nodes = (
"206 0 LINE",
"210 22 LINE",
"183 31 OFFCURVE",
"162 38 OFFCURVE",
"140 44 CURVE",
"253 602 LINE",
"531 0 LINE",
"624 0 LINE",
"757 656 LINE",
"781 662 OFFCURVE",
"806 669 OFFCURVE",
"837 678 CURVE",
"841 700 LINE",
"620 700 LINE",
"616 678 LINE",
"643 669 OFFCURVE",
"664 662 OFFCURVE",
"686 656 CURVE",
"601 237 LINE",
"389 700 LINE",
"127 700 LINE",
"123 678 LINE",
"148 668 OFFCURVE",
"173 660 OFFCURVE",
"194 655 CURVE",
"69 44 LINE",
"45 38 OFFCURVE",
"20 31 OFFCURVE",
"-11 22 CURVE",
"-14 0 LINE"
);
},
{
closed = 1;
nodes = (
"317 -356 OFFCURVE",
"385 -264 OFFCURVE",
"404 -174 CURVE SMOOTH",
"413 -130 OFFCURVE",
"393 -89 OFFCURVE",
"333 -89 CURVE SMOOTH",
"289 -89 OFFCURVE",
"244 -119 OFFCURVE",
"234 -168 CURVE SMOOTH",
"226 -209 OFFCURVE",
"253 -246 OFFCURVE",
"294 -251 CURVE",
"276 -297 OFFCURVE",
"224 -344 OFFCURVE",
"195 -368 CURVE",
"243 -412 LINE"
);
}
);
width = 760;
}
);
note = Ncommaaccent;
unicode = 0145;
},
{
glyphname = Ndotaccent;
lastChange = "2015-10-27 16:21:59 +0000";
layers = (
{
layerId = "A20AAD8A-5619-416D-9D3E-77802FB4F06A";
name = "Bold Italic";
paths = (
{
closed = 1;
nodes = (
"206 0 LINE",
"210 22 LINE",
"183 31 OFFCURVE",
"162 38 OFFCURVE",
"140 44 CURVE",
"253 602 LINE",
"531 0 LINE",
"624 0 LINE",
"757 656 LINE",
"781 662 OFFCURVE",
"806 669 OFFCURVE",
"837 678 CURVE",
"841 700 LINE",
"620 700 LINE",
"616 678 LINE",
"643 669 OFFCURVE",
"664 662 OFFCURVE",
"686 656 CURVE",
"601 237 LINE",
"389 700 LINE",
"127 700 LINE",
"123 678 LINE",
"148 668 OFFCURVE",
"173 660 OFFCURVE",
"194 655 CURVE",
"69 44 LINE",
"45 38 OFFCURVE",
"20 31 OFFCURVE",
"-11 22 CURVE",
"-14 0 LINE"
);
},
{
closed = 1;
nodes = (
"543 786 OFFCURVE",
"576 818 OFFCURVE",
"585 858 CURVE SMOOTH",
"592 898 OFFCURVE",
"572 931 OFFCURVE",
"529 931 CURVE SMOOTH",
"486 931 OFFCURVE",
"453 898 OFFCURVE",
"445 858 CURVE SMOOTH",
"437 818 OFFCURVE",
"457 786 OFFCURVE",
"500 786 CURVE SMOOTH"
);
}
);
width = 760;
}
);
note = Ndotaccent;
unicode = 1E44;
},
{
glyphname = Ndotbelow;
lastChange = "2015-10-27 16:21:59 +0000";
layers = (
{
layerId = "A20AAD8A-5619-416D-9D3E-77802FB4F06A";
name = "Bold Italic";
paths = (
{
closed = 1;
nodes = (
"206 0 LINE",
"210 22 LINE",
"183 31 OFFCURVE",
"162 38 OFFCURVE",
"140 44 CURVE",
"253 602 LINE",
"531 0 LINE",
"624 0 LINE",
"757 656 LINE",
"781 662 OFFCURVE",
"806 669 OFFCURVE",
"837 678 CURVE",
"841 700 LINE",
"620 700 LINE",
"616 678 LINE",
"643 669 OFFCURVE",
"664 662 OFFCURVE",
"686 656 CURVE",
"601 237 LINE",
"389 700 LINE",
"127 700 LINE",
"123 678 LINE",
"148 668 OFFCURVE",
"173 660 OFFCURVE",
"194 655 CURVE",
"69 44 LINE",
"45 38 OFFCURVE",
"20 31 OFFCURVE",
"-11 22 CURVE",
"-14 0 LINE"
);
},
{
closed = 1;
nodes = (
"345 -195 OFFCURVE",
"378 -163 OFFCURVE",
"386 -123 CURVE SMOOTH",
"395 -83 OFFCURVE",
"374 -50 OFFCURVE",
"331 -50 CURVE SMOOTH",
"288 -50 OFFCURVE",
"255 -83 OFFCURVE",
"247 -123 CURVE SMOOTH",
"239 -163 OFFCURVE",
"258 -195 OFFCURVE",
"301 -195 CURVE SMOOTH"
);
}
);
width = 760;
}
);
note = uni1E46;
unicode = 1E46;
},
{
glyphname = Eng;
lastChange = "2015-10-27 16:21:58 +0000";
layers = (
{
layerId = "A20AAD8A-5619-416D-9D3E-77802FB4F06A";
name = "Bold Italic";
paths = (
{
closed = 1;
nodes = (
"503 -250 OFFCURVE",
"581 -211 OFFCURVE",
"603 -100 CURVE SMOOTH",
"757 656 LINE",
"781 662 OFFCURVE",
"806 669 OFFCURVE",
"837 678 CURVE",
"841 700 LINE",
"620 700 LINE",
"616 678 LINE",
"643 669 OFFCURVE",
"664 662 OFFCURVE",
"686 656 CURVE",
"601 237 LINE",
"389 700 LINE",
"127 700 LINE",
"123 678 LINE",
"148 668 OFFCURVE",
"173 660 OFFCURVE",
"194 655 CURVE",
"69 44 LINE",
"45 38 OFFCURVE",
"20 31 OFFCURVE",
"-11 22 CURVE",
"-14 0 LINE",
"206 0 LINE",
"210 22 LINE",
"183 31 OFFCURVE",
"162 38 OFFCURVE",
"140 44 CURVE",
"253 602 LINE",
"554 0 LINE",
"532 -105 LINE SMOOTH",
"519 -167 OFFCURVE",
"458 -189 OFFCURVE",
"403 -189 CURVE SMOOTH",
"373 -189 OFFCURVE",
"345 -184 OFFCURVE",
"326 -177 CURVE",
"306 -227 LINE",
"342 -241 OFFCURVE",
"382 -250 OFFCURVE",
"420 -250 CURVE SMOOTH"
);
}
);
width = 760;
}
);
note = Eng;
unicode = 014A;
},
{
glyphname = Nlinebelow;
lastChange = "2015-10-27 16:21:59 +0000";
layers = (
{
layerId = "A20AAD8A-5619-416D-9D3E-77802FB4F06A";
name = "Bold Italic";
paths = (
{
closed = 1;
nodes = (
"206 0 LINE",
"210 22 LINE",
"183 31 OFFCURVE",
"162 38 OFFCURVE",
"140 44 CURVE",
"253 602 LINE",
"531 0 LINE",
"624 0 LINE",
"757 656 LINE",
"781 662 OFFCURVE",
"806 669 OFFCURVE",
"837 678 CURVE",
"841 700 LINE",
"620 700 LINE",
"616 678 LINE",
"643 669 OFFCURVE",
"664 662 OFFCURVE",
"686 656 CURVE",
"601 237 LINE",
"389 700 LINE",
"127 700 LINE",
"123 678 LINE",
"148 668 OFFCURVE",
"173 660 OFFCURVE",
"194 655 CURVE",
"69 44 LINE",
"45 38 OFFCURVE",
"20 31 OFFCURVE",
"-11 22 CURVE",
"-14 0 LINE"
);
},
{
closed = 1;
nodes = (
"524 -112 LINE",
"536 -55 LINE",
"126 -55 LINE",
"114 -112 LINE"
);
}
);
width = 760;
}
);
note = Nlinebelow;
unicode = 1E48;
},
{
glyphname = Ntilde;
lastChange = "2015-10-27 16:21:58 +0000";
layers = (
{
layerId = "A20AAD8A-5619-416D-9D3E-77802FB4F06A";
name = "Bold Italic";
paths = (
{
closed = 1;
nodes = (
"206 0 LINE",
"210 22 LINE",
"183 31 OFFCURVE",
"162 38 OFFCURVE",
"140 44 CURVE",
"253 602 LINE",
"531 0 LINE",
"624 0 LINE",
"757 656 LINE",
"781 662 OFFCURVE",
"806 669 OFFCURVE",
"837 678 CURVE",
"841 700 LINE",
"620 700 LINE",
"616 678 LINE",
"643 669 OFFCURVE",
"664 662 OFFCURVE",
"686 656 CURVE",
"601 237 LINE",
"389 700 LINE",
"127 700 LINE",
"123 678 LINE",
"148 668 OFFCURVE",
"173 660 OFFCURVE",
"194 655 CURVE",
"69 44 LINE",
"45 38 OFFCURVE",
"20 31 OFFCURVE",
"-11 22 CURVE",
"-14 0 LINE"
);
},
{
closed = 1;
nodes = (
"389 786 LINE",
"399 817 OFFCURVE",
"420 836 OFFCURVE",
"447 836 CURVE SMOOTH",
"480 836 OFFCURVE",
"534 786 OFFCURVE",
"595 786 CURVE SMOOTH",
"682 786 OFFCURVE",
"730 839 OFFCURVE",
"752 915 CURVE",
"663 915 LINE",
"643 867 OFFCURVE",
"621 864 OFFCURVE",
"600 864 CURVE SMOOTH",
"561 864 OFFCURVE",
"536 914 OFFCURVE",
"458 914 CURVE SMOOTH",
"382 914 OFFCURVE",
"327 869 OFFCURVE",
"300 786 CURVE"
);
}
);
width = 760;
}
);
note = Ntilde;
unicode = 00D1;
},
{
glyphname = O;
lastChange = "2015-10-27 16:21:59 +0000";
layers = (
{
layerId = "A20AAD8A-5619-416D-9D3E-77802FB4F06A";
name = "Bold Italic";
paths = (
{
closed = 1;
nodes = (
"571 -10 OFFCURVE",
"726 128 OFFCURVE",
"771 350 CURVE SMOOTH",
"816 572 OFFCURVE",
"718 710 OFFCURVE",
"491 710 CURVE SMOOTH",
"260 710 OFFCURVE",
"108 572 OFFCURVE",
"63 350 CURVE SMOOTH",
"18 128 OFFCURVE",
"113 -10 OFFCURVE",
"344 -10 CURVE SMOOTH"
);
},
{
closed = 1;
nodes = (
"247 52 OFFCURVE",
"224 177 OFFCURVE",
"259 350 CURVE SMOOTH",
"295 523 OFFCURVE",
"368 648 OFFCURVE",
"478 648 CURVE SMOOTH",
"587 648 OFFCURVE",
"611 523 OFFCURVE",
"575 350 CURVE SMOOTH",
"540 177 OFFCURVE",
"466 52 OFFCURVE",
"357 52 CURVE SMOOTH"
);
}
);
width = 769;
}
);
leftKerningGroup = O;
note = O;
rightKerningGroup = O;
unicode = 004F;
},
{
glyphname = Oacute;
lastChange = "2015-10-27 16:22:00 +0000";
layers = (
{
layerId = "A20AAD8A-5619-416D-9D3E-77802FB4F06A";
name = "Bold Italic";
paths = (
{
closed = 1;
nodes = (
"571 -10 OFFCURVE",
"726 128 OFFCURVE",
"771 350 CURVE SMOOTH",
"816 572 OFFCURVE",
"718 710 OFFCURVE",
"491 710 CURVE SMOOTH",
"260 710 OFFCURVE",
"108 572 OFFCURVE",
"63 350 CURVE SMOOTH",
"18 128 OFFCURVE",
"113 -10 OFFCURVE",
"344 -10 CURVE SMOOTH"
);
},
{
closed = 1;
nodes = (
"247 52 OFFCURVE",
"224 177 OFFCURVE",
"259 350 CURVE SMOOTH",
"295 523 OFFCURVE",
"368 648 OFFCURVE",
"478 648 CURVE SMOOTH",
"587 648 OFFCURVE",
"611 523 OFFCURVE",
"575 350 CURVE SMOOTH",
"540 177 OFFCURVE",
"466 52 OFFCURVE",
"357 52 CURVE SMOOTH"
);
},
{
closed = 1;
nodes = (
"604 886 LINE SMOOTH",
"645 909 OFFCURVE",
"670 931 OFFCURVE",
"677 960 CURVE",
"681 982 OFFCURVE",
"670 1011 OFFCURVE",
"629 1011 CURVE SMOOTH",
"589 1011 OFFCURVE",
"554 975 OFFCURVE",
"548 969 CURVE",
"397 830 LINE",
"419 786 LINE"
);
}
);
width = 769;
}
);
leftKerningGroup = O;
note = Oacute;
rightKerningGroup = O;
unicode = 00D3;
},
{
glyphname = Obreve;
lastChange = "2015-10-27 16:21:58 +0000";
layers = (
{
layerId = "A20AAD8A-5619-416D-9D3E-77802FB4F06A";
name = "Bold Italic";
paths = (
{
closed = 1;
nodes = (
"571 -10 OFFCURVE",
"726 128 OFFCURVE",
"771 350 CURVE SMOOTH",
"816 572 OFFCURVE",
"718 710 OFFCURVE",
"491 710 CURVE SMOOTH",
"260 710 OFFCURVE",
"108 572 OFFCURVE",
"63 350 CURVE SMOOTH",
"18 128 OFFCURVE",
"113 -10 OFFCURVE",
"344 -10 CURVE SMOOTH"
);
},
{
closed = 1;
nodes = (
"247 52 OFFCURVE",
"224 177 OFFCURVE",
"259 350 CURVE SMOOTH",
"295 523 OFFCURVE",
"368 648 OFFCURVE",
"478 648 CURVE SMOOTH",
"587 648 OFFCURVE",
"611 523 OFFCURVE",
"575 350 CURVE SMOOTH",
"540 177 OFFCURVE",
"466 52 OFFCURVE",
"357 52 CURVE SMOOTH"
);
},
{
closed = 1;
nodes = (
"608 786 OFFCURVE",
"686 831 OFFCURVE",
"724 927 CURVE",
"622 927 LINE",
"601 856 OFFCURVE",
"557 847 OFFCURVE",
"517 847 CURVE SMOOTH",
"478 847 OFFCURVE",
"438 856 OFFCURVE",
"445 927 CURVE",
"345 927 LINE",
"342 831 OFFCURVE",
"402 786 OFFCURVE",
"505 786 CURVE SMOOTH"
);
}
);
width = 769;
}
);
leftKerningGroup = O;
note = Obreve;
rightKerningGroup = O;
unicode = 014E;
},
{
glyphname = Ocaron;
lastChange = "2015-10-27 16:21:58 +0000";
layers = (
{
layerId = "A20AAD8A-5619-416D-9D3E-77802FB4F06A";
name = "Bold Italic";
paths = (
{
closed = 1;
nodes = (
"571 -10 OFFCURVE",
"726 128 OFFCURVE",
"771 350 CURVE SMOOTH",
"816 572 OFFCURVE",
"718 710 OFFCURVE",
"491 710 CURVE SMOOTH",
"260 710 OFFCURVE",
"108 572 OFFCURVE",
"63 350 CURVE SMOOTH",
"18 128 OFFCURVE",
"113 -10 OFFCURVE",
"344 -10 CURVE SMOOTH"
);
},
{
closed = 1;
nodes = (
"247 52 OFFCURVE",
"224 177 OFFCURVE",
"259 350 CURVE SMOOTH",
"295 523 OFFCURVE",
"368 648 OFFCURVE",
"478 648 CURVE SMOOTH",
"587 648 OFFCURVE",
"611 523 OFFCURVE",
"575 350 CURVE SMOOTH",
"540 177 OFFCURVE",
"466 52 OFFCURVE",
"357 52 CURVE SMOOTH"
);
},
{
closed = 1;
nodes = (
"462 786 OFFCURVE",
"549 786 OFFCURVE",
"549 786 CURVE",
"576 819 OFFCURVE",
"694 913 OFFCURVE",
"745 942 CURVE",
"680 997 LINE",
"631 962 OFFCURVE",
"549 892 OFFCURVE",
"520 855 CURVE",
"520 855 OFFCURVE",
"517 855 OFFCURVE",
"517 855 CURVE",
"504 892 OFFCURVE",
"451 962 OFFCURVE",
"416 997 CURVE",
"330 942 LINE",
"370 913 OFFCURVE",
"448 819 OFFCURVE",
"462 786 CURVE"
);
}
);
width = 769;
}
);
leftKerningGroup = O;
note = Ocaron;
rightKerningGroup = O;
unicode = 01D1;
},
{
glyphname = Ocircumflex;
lastChange = "2015-10-27 16:21:59 +0000";
layers = (
{
layerId = "A20AAD8A-5619-416D-9D3E-77802FB4F06A";
name = "Bold Italic";
paths = (
{
closed = 1;
nodes = (
"571 -10 OFFCURVE",
"726 128 OFFCURVE",
"771 350 CURVE SMOOTH",
"816 572 OFFCURVE",
"718 710 OFFCURVE",
"491 710 CURVE SMOOTH",
"260 710 OFFCURVE",
"108 572 OFFCURVE",
"63 350 CURVE SMOOTH",
"18 128 OFFCURVE",
"113 -10 OFFCURVE",
"344 -10 CURVE SMOOTH"
);
},
{
closed = 1;
nodes = (
"247 52 OFFCURVE",
"224 177 OFFCURVE",
"259 350 CURVE SMOOTH",
"295 523 OFFCURVE",
"368 648 OFFCURVE",
"478 648 CURVE SMOOTH",
"587 648 OFFCURVE",
"611 523 OFFCURVE",
"575 350 CURVE SMOOTH",
"540 177 OFFCURVE",
"466 52 OFFCURVE",
"357 52 CURVE SMOOTH"
);
},
{
closed = 1;
nodes = (
"422 821 OFFCURVE",
"504 891 OFFCURVE",
"533 928 CURVE",
"533 928 OFFCURVE",
"536 928 OFFCURVE",
"536 928 CURVE",
"549 891 OFFCURVE",
"602 821 OFFCURVE",
"637 786 CURVE",
"724 841 LINE",
"684 870 OFFCURVE",
"605 964 OFFCURVE",
"591 997 CURVE",
"591 997 OFFCURVE",
"504 997 OFFCURVE",
"504 997 CURVE",
"477 964 OFFCURVE",
"360 870 OFFCURVE",
"309 841 CURVE",
"374 786 LINE"
);
}
);
width = 769;
}
);
leftKerningGroup = O;
note = Ocircumflex;
rightKerningGroup = O;
unicode = 00D4;
},
{
glyphname = Ocircumflexacute;
lastChange = "2015-10-27 16:21:58 +0000";
layers = (
{
layerId = "A20AAD8A-5619-416D-9D3E-77802FB4F06A";
name = "Bold Italic";
paths = (
{
closed = 1;
nodes = (
"571 -10 OFFCURVE",
"726 128 OFFCURVE",
"771 350 CURVE SMOOTH",
"816 572 OFFCURVE",
"718 710 OFFCURVE",
"491 710 CURVE SMOOTH",
"260 710 OFFCURVE",
"108 572 OFFCURVE",
"63 350 CURVE SMOOTH",
"18 128 OFFCURVE",
"113 -10 OFFCURVE",
"344 -10 CURVE SMOOTH"
);
},
{
closed = 1;
nodes = (
"247 52 OFFCURVE",
"224 177 OFFCURVE",
"259 350 CURVE SMOOTH",
"295 523 OFFCURVE",
"368 648 OFFCURVE",
"478 648 CURVE SMOOTH",
"587 648 OFFCURVE",
"611 523 OFFCURVE",
"575 350 CURVE SMOOTH",
"540 177 OFFCURVE",
"466 52 OFFCURVE",
"357 52 CURVE SMOOTH"
);
},
{
closed = 1;
nodes = (
"422 821 OFFCURVE",
"504 891 OFFCURVE",
"533 928 CURVE",
"533 928 OFFCURVE",
"536 928 OFFCURVE",
"536 928 CURVE",
"549 891 OFFCURVE",
"602 821 OFFCURVE",
"637 786 CURVE",
"723 841 LINE",
"684 870 OFFCURVE",
"605 964 OFFCURVE",
"591 997 CURVE",
"591 997 OFFCURVE",
"504 997 OFFCURVE",
"504 997 CURVE",
"477 964 OFFCURVE",
"359 870 OFFCURVE",
"308 841 CURVE",
"373 786 LINE"
);
},
{
closed = 1;
nodes = (
"811 994 LINE SMOOTH",
"854 1014 OFFCURVE",
"885 1039 OFFCURVE",
"892 1068 CURVE",
"896 1090 OFFCURVE",
"886 1123 OFFCURVE",
"844 1123 CURVE SMOOTH",
"811 1123 OFFCURVE",
"780 1093 OFFCURVE",
"761 1074 CURVE SMOOTH",
"666 975 LINE",
"687 937 LINE"
);
}
);
width = 769;
}
);
leftKerningGroup = O;
note = Ocircumflexacute;
rightKerningGroup = O;
unicode = 1ED0;
},
{
glyphname = Ocircumflexdotbelow;
lastChange = "2015-10-27 16:22:00 +0000";
layers = (
{
layerId = "A20AAD8A-5619-416D-9D3E-77802FB4F06A";
name = "Bold Italic";
paths = (
{
closed = 1;
nodes = (
"571 -10 OFFCURVE",
"726 128 OFFCURVE",
"771 350 CURVE SMOOTH",
"816 572 OFFCURVE",
"718 710 OFFCURVE",
"491 710 CURVE SMOOTH",
"260 710 OFFCURVE",
"108 572 OFFCURVE",
"63 350 CURVE SMOOTH",
"18 128 OFFCURVE",
"113 -10 OFFCURVE",
"344 -10 CURVE SMOOTH"
);
},
{
closed = 1;
nodes = (
"349 -195 OFFCURVE",
"383 -163 OFFCURVE",
"391 -123 CURVE SMOOTH",
"399 -83 OFFCURVE",
"379 -50 OFFCURVE",
"336 -50 CURVE SMOOTH",
"293 -50 OFFCURVE",
"260 -83 OFFCURVE",
"252 -123 CURVE SMOOTH",
"244 -163 OFFCURVE",
"263 -195 OFFCURVE",
"306 -195 CURVE SMOOTH"
);
},
{
closed = 1;
nodes = (
"247 52 OFFCURVE",
"224 177 OFFCURVE",
"259 350 CURVE SMOOTH",
"295 523 OFFCURVE",
"368 648 OFFCURVE",
"478 648 CURVE SMOOTH",
"587 648 OFFCURVE",
"611 523 OFFCURVE",
"575 350 CURVE SMOOTH",
"540 177 OFFCURVE",
"466 52 OFFCURVE",
"357 52 CURVE SMOOTH"
);
},
{
closed = 1;
nodes = (
"421 821 OFFCURVE",
"503 891 OFFCURVE",
"532 928 CURVE",
"532 928 OFFCURVE",
"535 928 OFFCURVE",
"535 928 CURVE",
"548 891 OFFCURVE",
"601 821 OFFCURVE",
"636 786 CURVE",
"723 841 LINE",
"684 870 OFFCURVE",
"604 964 OFFCURVE",
"590 997 CURVE",
"590 997 OFFCURVE",
"503 997 OFFCURVE",
"503 997 CURVE",
"476 964 OFFCURVE",
"359 870 OFFCURVE",
"308 841 CURVE",
"373 786 LINE"
);
}
);
width = 769;
}
);
leftKerningGroup = O;
note = Ocircumflexdotbelow;
rightKerningGroup = O;
unicode = 1ED8;
},
{
glyphname = Ocircumflexgrave;
lastChange = "2015-10-27 16:22:00 +0000";
layers = (
{
layerId = "A20AAD8A-5619-416D-9D3E-77802FB4F06A";
name = "Bold Italic";
paths = (
{
closed = 1;
nodes = (
"571 -10 OFFCURVE",
"726 128 OFFCURVE",
"771 350 CURVE SMOOTH",
"816 572 OFFCURVE",
"718 710 OFFCURVE",
"491 710 CURVE SMOOTH",
"260 710 OFFCURVE",
"108 572 OFFCURVE",
"63 350 CURVE SMOOTH",
"18 128 OFFCURVE",
"113 -10 OFFCURVE",
"344 -10 CURVE SMOOTH"
);
},
{
closed = 1;
nodes = (
"247 52 OFFCURVE",
"224 177 OFFCURVE",
"259 350 CURVE SMOOTH",
"295 523 OFFCURVE",
"368 648 OFFCURVE",
"478 648 CURVE SMOOTH",
"587 648 OFFCURVE",
"611 523 OFFCURVE",
"575 350 CURVE SMOOTH",
"540 177 OFFCURVE",
"466 52 OFFCURVE",
"357 52 CURVE SMOOTH"
);
},
{
closed = 1;
nodes = (
"420 975 LINE",
"366 1074 LINE SMOOTH",
"355 1093 OFFCURVE",
"335 1123 OFFCURVE",
"302 1123 CURVE SMOOTH",
"260 1123 OFFCURVE",
"237 1090 OFFCURVE",
"233 1068 CURVE",
"227 1039 OFFCURVE",
"248 1014 OFFCURVE",
"283 994 CURVE SMOOTH",
"384 937 LINE"
);
},
{
closed = 1;
nodes = (
"422 821 OFFCURVE",
"504 891 OFFCURVE",
"533 928 CURVE",
"533 928 OFFCURVE",
"536 928 OFFCURVE",
"536 928 CURVE",
"549 891 OFFCURVE",
"602 821 OFFCURVE",
"637 786 CURVE",
"723 841 LINE",
"684 870 OFFCURVE",
"605 964 OFFCURVE",
"591 997 CURVE",
"591 997 OFFCURVE",
"504 997 OFFCURVE",
"504 997 CURVE",
"477 964 OFFCURVE",
"359 870 OFFCURVE",
"308 841 CURVE",
"373 786 LINE"
);
}
);
width = 769;
}
);
leftKerningGroup = O;
note = Ocircumflexgrave;
rightKerningGroup = O;
unicode = 1ED2;
},
{
glyphname = Ocircumflexhookabove;
lastChange = "2015-10-27 16:22:00 +0000";
layers = (
{
layerId = "A20AAD8A-5619-416D-9D3E-77802FB4F06A";
name = "Bold Italic";
paths = (
{
closed = 1;
nodes = (
"571 -10 OFFCURVE",
"726 128 OFFCURVE",
"771 350 CURVE SMOOTH",
"816 572 OFFCURVE",
"718 710 OFFCURVE",
"491 710 CURVE SMOOTH",
"260 710 OFFCURVE",
"108 572 OFFCURVE",
"63 350 CURVE SMOOTH",
"18 128 OFFCURVE",
"113 -10 OFFCURVE",
"344 -10 CURVE SMOOTH"
);
},
{
closed = 1;
nodes = (
"247 52 OFFCURVE",
"224 177 OFFCURVE",
"259 350 CURVE SMOOTH",
"295 523 OFFCURVE",
"368 648 OFFCURVE",
"478 648 CURVE SMOOTH",
"587 648 OFFCURVE",
"611 523 OFFCURVE",
"575 350 CURVE SMOOTH",
"540 177 OFFCURVE",
"466 52 OFFCURVE",
"357 52 CURVE SMOOTH"
);
},
{
closed = 1;
nodes = (
"422 821 OFFCURVE",
"504 891 OFFCURVE",
"533 928 CURVE",
"533 928 OFFCURVE",
"536 928 OFFCURVE",
"536 928 CURVE",
"549 891 OFFCURVE",
"602 821 OFFCURVE",
"637 786 CURVE",
"723 841 LINE",
"684 870 OFFCURVE",
"605 964 OFFCURVE",
"591 997 CURVE",
"591 997 OFFCURVE",
"504 997 OFFCURVE",
"504 997 CURVE",
"477 964 OFFCURVE",
"359 870 OFFCURVE",
"308 841 CURVE",
"373 786 LINE"
);
},
{
closed = 1;
nodes = (
"733 964 LINE",
"751 1004 LINE",
"798 1009 OFFCURVE",
"842 1026 OFFCURVE",
"854 1088 CURVE SMOOTH",
"868 1156 OFFCURVE",
"814 1180 OFFCURVE",
"757 1180 CURVE SMOOTH",
"729 1180 OFFCURVE",
"699 1173 OFFCURVE",
"678 1163 CURVE",
"675 1121 LINE",
"694 1132 OFFCURVE",
"716 1136 OFFCURVE",
"732 1136 CURVE SMOOTH",
"768 1136 OFFCURVE",
"781 1113 OFFCURVE",
"777 1089 CURVE SMOOTH",
"769 1051 OFFCURVE",
"737 1042 OFFCURVE",
"720 1042 CURVE SMOOTH",
"681 1042 LINE",
"668 964 LINE"
);
}
);
width = 769;
}
);
leftKerningGroup = O;
note = Ocircumflexhookabove;
rightKerningGroup = O;
unicode = 1ED4;
},
{
glyphname = Ocircumflextilde;
lastChange = "2015-10-27 16:22:00 +0000";
layers = (
{
layerId = "A20AAD8A-5619-416D-9D3E-77802FB4F06A";
name = "Bold Italic";
paths = (
{
closed = 1;
nodes = (
"571 -10 OFFCURVE",
"726 128 OFFCURVE",
"771 350 CURVE SMOOTH",
"816 572 OFFCURVE",
"718 710 OFFCURVE",
"491 710 CURVE SMOOTH",
"260 710 OFFCURVE",
"108 572 OFFCURVE",
"63 350 CURVE SMOOTH",
"18 128 OFFCURVE",
"113 -10 OFFCURVE",
"344 -10 CURVE SMOOTH"
);
},
{
closed = 1;
nodes = (
"247 52 OFFCURVE",
"224 177 OFFCURVE",
"259 350 CURVE SMOOTH",
"295 523 OFFCURVE",
"368 648 OFFCURVE",
"478 648 CURVE SMOOTH",
"587 648 OFFCURVE",
"611 523 OFFCURVE",
"575 350 CURVE SMOOTH",
"540 177 OFFCURVE",
"466 52 OFFCURVE",
"357 52 CURVE SMOOTH"
);
},
{
closed = 1;
nodes = (
"422 821 OFFCURVE",
"504 891 OFFCURVE",
"533 928 CURVE",
"533 928 OFFCURVE",
"536 928 OFFCURVE",
"536 928 CURVE",
"549 891 OFFCURVE",
"602 821 OFFCURVE",
"637 786 CURVE",
"723 841 LINE",
"684 870 OFFCURVE",
"605 964 OFFCURVE",
"591 997 CURVE",
"591 997 OFFCURVE",
"504 997 OFFCURVE",
"504 997 CURVE",
"477 964 OFFCURVE",
"359 870 OFFCURVE",
"308 841 CURVE",
"373 786 LINE"
);
},
{
closed = 1;
nodes = (
"438 1040 LINE",
"448 1069 OFFCURVE",
"475 1088 OFFCURVE",
"508 1088 CURVE SMOOTH",
"557 1088 OFFCURVE",
"581 1040 OFFCURVE",
"640 1040 CURVE SMOOTH",
"722 1040 OFFCURVE",
"768 1090 OFFCURVE",
"790 1163 CURVE",
"729 1163 LINE",
"708 1117 OFFCURVE",
"671 1114 OFFCURVE",
"652 1114 CURVE SMOOTH",
"614 1114 OFFCURVE",
"603 1162 OFFCURVE",
"528 1162 CURVE SMOOTH",
"456 1162 OFFCURVE",
"402 1119 OFFCURVE",
"376 1040 CURVE"
);
}
);
width = 769;
}
);
leftKerningGroup = O;
note = Ocircumflextilde;
rightKerningGroup = O;
unicode = 1ED6;
},
{
glyphname = Odieresis;
lastChange = "2015-10-27 16:22:00 +0000";
layers = (
{
layerId = "A20AAD8A-5619-416D-9D3E-77802FB4F06A";
name = "Bold Italic";
paths = (
{
closed = 1;
nodes = (
"571 -10 OFFCURVE",
"726 128 OFFCURVE",
"771 350 CURVE SMOOTH",
"816 572 OFFCURVE",
"718 710 OFFCURVE",
"491 710 CURVE SMOOTH",
"260 710 OFFCURVE",
"108 572 OFFCURVE",
"63 350 CURVE SMOOTH",
"18 128 OFFCURVE",
"113 -10 OFFCURVE",
"344 -10 CURVE SMOOTH"
);
},
{
closed = 1;
nodes = (
"247 52 OFFCURVE",
"224 177 OFFCURVE",
"259 350 CURVE SMOOTH",
"295 523 OFFCURVE",
"368 648 OFFCURVE",
"478 648 CURVE SMOOTH",
"587 648 OFFCURVE",
"611 523 OFFCURVE",
"575 350 CURVE SMOOTH",
"540 177 OFFCURVE",
"466 52 OFFCURVE",
"357 52 CURVE SMOOTH"
);
},
{
closed = 1;
nodes = (
"426 786 OFFCURVE",
"459 818 OFFCURVE",
"468 858 CURVE SMOOTH",
"475 898 OFFCURVE",
"455 931 OFFCURVE",
"412 931 CURVE SMOOTH",
"370 931 OFFCURVE",
"337 898 OFFCURVE",
"329 858 CURVE SMOOTH",
"321 818 OFFCURVE",
"341 786 OFFCURVE",
"384 786 CURVE SMOOTH"
);
},
{
closed = 1;
nodes = (
"669 786 OFFCURVE",
"702 818 OFFCURVE",
"710 858 CURVE SMOOTH",
"718 898 OFFCURVE",
"698 931 OFFCURVE",
"655 931 CURVE SMOOTH",
"612 931 OFFCURVE",
"579 898 OFFCURVE",
"571 858 CURVE SMOOTH",
"563 818 OFFCURVE",
"583 786 OFFCURVE",
"626 786 CURVE SMOOTH"
);
}
);
width = 769;
}
);
leftKerningGroup = O;
note = Odieresis;
rightKerningGroup = O;
unicode = 00D6;
},
{
glyphname = Odotbelow;
lastChange = "2015-10-27 16:21:59 +0000";
layers = (
{
layerId = "A20AAD8A-5619-416D-9D3E-77802FB4F06A";
name = "Bold Italic";
paths = (
{
closed = 1;
nodes = (
"571 -10 OFFCURVE",
"726 128 OFFCURVE",
"771 350 CURVE SMOOTH",
"816 572 OFFCURVE",
"718 710 OFFCURVE",
"491 710 CURVE SMOOTH",
"260 710 OFFCURVE",
"108 572 OFFCURVE",
"63 350 CURVE SMOOTH",
"18 128 OFFCURVE",
"113 -10 OFFCURVE",
"344 -10 CURVE SMOOTH"
);
},
{
closed = 1;
nodes = (
"349 -195 OFFCURVE",
"383 -163 OFFCURVE",
"391 -123 CURVE SMOOTH",
"399 -83 OFFCURVE",
"379 -50 OFFCURVE",
"336 -50 CURVE SMOOTH",
"293 -50 OFFCURVE",
"260 -83 OFFCURVE",
"252 -123 CURVE SMOOTH",
"244 -163 OFFCURVE",
"263 -195 OFFCURVE",
"306 -195 CURVE SMOOTH"
);
},
{
closed = 1;
nodes = (
"247 52 OFFCURVE",
"224 177 OFFCURVE",
"259 350 CURVE SMOOTH",
"295 523 OFFCURVE",
"368 648 OFFCURVE",
"478 648 CURVE SMOOTH",
"587 648 OFFCURVE",
"611 523 OFFCURVE",
"575 350 CURVE SMOOTH",
"540 177 OFFCURVE",
"466 52 OFFCURVE",
"357 52 CURVE SMOOTH"
);
}
);
width = 769;
}
);
leftKerningGroup = O;
note = Odotbelow;
rightKerningGroup = O;
unicode = 1ECC;
},
{
glyphname = Ograve;
lastChange = "2015-10-27 16:22:00 +0000";
layers = (
{
layerId = "A20AAD8A-5619-416D-9D3E-77802FB4F06A";
name = "Bold Italic";
paths = (
{
closed = 1;
nodes = (
"571 -10 OFFCURVE",
"726 128 OFFCURVE",
"771 350 CURVE SMOOTH",
"816 572 OFFCURVE",
"718 710 OFFCURVE",
"491 710 CURVE SMOOTH",
"260 710 OFFCURVE",
"108 572 OFFCURVE",
"63 350 CURVE SMOOTH",
"18 128 OFFCURVE",
"113 -10 OFFCURVE",
"344 -10 CURVE SMOOTH"
);
},
{
closed = 1;
nodes = (
"247 52 OFFCURVE",
"224 177 OFFCURVE",
"259 350 CURVE SMOOTH",
"295 523 OFFCURVE",
"368 648 OFFCURVE",
"478 648 CURVE SMOOTH",
"587 648 OFFCURVE",
"611 523 OFFCURVE",
"575 350 CURVE SMOOTH",
"540 177 OFFCURVE",
"466 52 OFFCURVE",
"357 52 CURVE SMOOTH"
);
},
{
closed = 1;
nodes = (
"632 830 LINE",
"539 969 LINE SMOOTH",
"535 975 OFFCURVE",
"513 1011 OFFCURVE",
"473 1011 CURVE SMOOTH",
"431 1011 OFFCURVE",
"409 982 OFFCURVE",
"405 960 CURVE",
"398 931 OFFCURVE",
"416 909 OFFCURVE",
"448 886 CURVE SMOOTH",
"593 786 LINE"
);
}
);
width = 769;
}
);
leftKerningGroup = O;
note = Ograve;
rightKerningGroup = O;
unicode = 00D2;
},
{
glyphname = Ohookabove;
lastChange = "2015-10-27 16:21:59 +0000";
layers = (
{
layerId = "A20AAD8A-5619-416D-9D3E-77802FB4F06A";
name = "Bold Italic";
paths = (
{
closed = 1;
nodes = (
"571 -10 OFFCURVE",
"726 128 OFFCURVE",
"771 350 CURVE SMOOTH",
"816 572 OFFCURVE",
"718 710 OFFCURVE",
"491 710 CURVE SMOOTH",
"260 710 OFFCURVE",
"108 572 OFFCURVE",
"63 350 CURVE SMOOTH",
"18 128 OFFCURVE",
"113 -10 OFFCURVE",
"344 -10 CURVE SMOOTH"
);
},
{
closed = 1;
nodes = (
"247 52 OFFCURVE",
"224 177 OFFCURVE",
"259 350 CURVE SMOOTH",
"295 523 OFFCURVE",
"368 648 OFFCURVE",
"478 648 CURVE SMOOTH",
"587 648 OFFCURVE",
"611 523 OFFCURVE",
"575 350 CURVE SMOOTH",
"540 177 OFFCURVE",
"466 52 OFFCURVE",
"357 52 CURVE SMOOTH"
);
},
{
closed = 1;
nodes = (
"550 786 LINE",
"574 859 LINE",
"628 864 OFFCURVE",
"677 883 OFFCURVE",
"691 951 CURVE SMOOTH",
"706 1025 OFFCURVE",
"645 1051 OFFCURVE",
"581 1051 CURVE SMOOTH",
"547 1051 OFFCURVE",
"513 1043 OFFCURVE",
"489 1032 CURVE",
"486 987 LINE",
"509 999 OFFCURVE",
"534 1003 OFFCURVE",
"551 1003 CURVE SMOOTH",
"592 1003 OFFCURVE",
"608 978 OFFCURVE",
"603 952 CURVE SMOOTH",
"594 910 OFFCURVE",
"559 900 OFFCURVE",
"539 900 CURVE SMOOTH",
"493 900 LINE",
"475 786 LINE"
);
}
);
width = 769;
}
);
leftKerningGroup = O;
note = Ohookabove;
rightKerningGroup = O;
unicode = 1ECE;
},
{
glyphname = Ohorn;
lastChange = "2015-10-27 16:22:00 +0000";
layers = (
{
layerId = "A20AAD8A-5619-416D-9D3E-77802FB4F06A";
name = "Bold Italic";
paths = (
{
closed = 1;
nodes = (
"571 -10 OFFCURVE",
"726 128 OFFCURVE",
"771 350 CURVE SMOOTH",
"816 572 OFFCURVE",
"718 710 OFFCURVE",
"491 710 CURVE SMOOTH",
"260 710 OFFCURVE",
"108 572 OFFCURVE",
"63 350 CURVE SMOOTH",
"18 128 OFFCURVE",
"113 -10 OFFCURVE",
"344 -10 CURVE SMOOTH"
);
},
{
closed = 1;
nodes = (
"247 52 OFFCURVE",
"224 177 OFFCURVE",
"259 350 CURVE SMOOTH",
"295 523 OFFCURVE",
"368 648 OFFCURVE",
"478 648 CURVE SMOOTH",
"587 648 OFFCURVE",
"611 523 OFFCURVE",
"575 350 CURVE SMOOTH",
"540 177 OFFCURVE",
"466 52 OFFCURVE",
"357 52 CURVE SMOOTH"
);
},
{
closed = 1;
nodes = (
"886 524 OFFCURVE",
"945 595 OFFCURVE",
"956 653 CURVE SMOOTH",
"963 682 OFFCURVE",
"972 745 OFFCURVE",
"888 745 CURVE SMOOTH",
"819 745 OFFCURVE",
"796 699 OFFCURVE",
"790 669 CURVE SMOOTH",
"780 624 OFFCURVE",
"802 596 OFFCURVE",
"843 596 CURVE SMOOTH",
"848 596 OFFCURVE",
"852 596 OFFCURVE",
"857 597 CURVE",
"832 547 OFFCURVE",
"750 496 OFFCURVE",
"727 483 CURVE",
"752 441 LINE"
);
}
);
width = 828;
}
);
leftKerningGroup = O;
note = Ohorn;
rightKerningGroup = O;
unicode = 01A0;
},
{
glyphname = Ohornacute;
lastChange = "2015-10-27 16:21:59 +0000";
layers = (
{
layerId = "A20AAD8A-5619-416D-9D3E-77802FB4F06A";
name = "Bold Italic";
paths = (
{
closed = 1;
nodes = (
"571 -10 OFFCURVE",
"726 128 OFFCURVE",
"771 350 CURVE SMOOTH",
"816 572 OFFCURVE",
"718 710 OFFCURVE",
"491 710 CURVE SMOOTH",
"260 710 OFFCURVE",
"108 572 OFFCURVE",
"63 350 CURVE SMOOTH",
"18 128 OFFCURVE",
"113 -10 OFFCURVE",
"344 -10 CURVE SMOOTH"
);
},
{
closed = 1;
nodes = (
"247 52 OFFCURVE",
"224 177 OFFCURVE",
"259 350 CURVE SMOOTH",
"295 523 OFFCURVE",
"368 648 OFFCURVE",
"478 648 CURVE SMOOTH",
"587 648 OFFCURVE",
"611 523 OFFCURVE",
"575 350 CURVE SMOOTH",
"540 177 OFFCURVE",
"466 52 OFFCURVE",
"357 52 CURVE SMOOTH"
);
},
{
closed = 1;
nodes = (
"605 885 LINE SMOOTH",
"646 908 OFFCURVE",
"671 930 OFFCURVE",
"678 959 CURVE",
"682 981 OFFCURVE",
"671 1010 OFFCURVE",
"630 1010 CURVE SMOOTH",
"590 1010 OFFCURVE",
"555 974 OFFCURVE",
"549 968 CURVE",
"398 829 LINE",
"420 785 LINE"
);
},
{
closed = 1;
nodes = (
"886 524 OFFCURVE",
"945 595 OFFCURVE",
"956 653 CURVE SMOOTH",
"963 682 OFFCURVE",
"972 745 OFFCURVE",
"888 745 CURVE SMOOTH",
"819 745 OFFCURVE",
"796 699 OFFCURVE",
"790 669 CURVE SMOOTH",
"780 624 OFFCURVE",
"802 596 OFFCURVE",
"843 596 CURVE SMOOTH",
"848 596 OFFCURVE",
"852 596 OFFCURVE",
"857 597 CURVE",
"832 547 OFFCURVE",
"750 496 OFFCURVE",
"727 483 CURVE",
"752 441 LINE"
);
}
);
width = 828;
}
);
leftKerningGroup = O;
note = Ohornacute;
rightKerningGroup = O;
unicode = 1EDA;
},
{
glyphname = Ohorndotbelow;
lastChange = "2015-10-27 16:22:00 +0000";
layers = (
{
layerId = "A20AAD8A-5619-416D-9D3E-77802FB4F06A";
name = "Bold Italic";
paths = (
{
closed = 1;
nodes = (
"571 -10 OFFCURVE",
"726 128 OFFCURVE",
"771 350 CURVE SMOOTH",
"816 572 OFFCURVE",
"718 710 OFFCURVE",
"491 710 CURVE SMOOTH",
"260 710 OFFCURVE",
"108 572 OFFCURVE",
"63 350 CURVE SMOOTH",
"18 128 OFFCURVE",
"113 -10 OFFCURVE",
"344 -10 CURVE SMOOTH"
);
},
{
closed = 1;
nodes = (
"349 -195 OFFCURVE",
"383 -163 OFFCURVE",
"391 -123 CURVE SMOOTH",
"399 -83 OFFCURVE",
"379 -50 OFFCURVE",
"336 -50 CURVE SMOOTH",
"293 -50 OFFCURVE",
"260 -83 OFFCURVE",
"252 -123 CURVE SMOOTH",
"244 -163 OFFCURVE",
"263 -195 OFFCURVE",
"306 -195 CURVE SMOOTH"
);
},
{
closed = 1;
nodes = (
"247 52 OFFCURVE",
"224 177 OFFCURVE",
"259 350 CURVE SMOOTH",
"295 523 OFFCURVE",
"368 648 OFFCURVE",
"478 648 CURVE SMOOTH",
"587 648 OFFCURVE",
"611 523 OFFCURVE",
"575 350 CURVE SMOOTH",
"540 177 OFFCURVE",
"466 52 OFFCURVE",
"357 52 CURVE SMOOTH"
);
},
{
closed = 1;
nodes = (
"886 524 OFFCURVE",
"945 595 OFFCURVE",
"956 653 CURVE SMOOTH",
"963 682 OFFCURVE",
"972 745 OFFCURVE",
"888 745 CURVE SMOOTH",
"819 745 OFFCURVE",
"796 699 OFFCURVE",
"790 669 CURVE SMOOTH",
"780 624 OFFCURVE",
"802 596 OFFCURVE",
"843 596 CURVE SMOOTH",
"848 596 OFFCURVE",
"852 596 OFFCURVE",
"857 597 CURVE",
"832 547 OFFCURVE",
"750 496 OFFCURVE",
"727 483 CURVE",
"752 441 LINE"
);
}
);
width = 828;
}
);
leftKerningGroup = O;
note = Ohorndotbelow;
rightKerningGroup = O;
unicode = 1EE2;
},
{
glyphname = Ohorngrave;
lastChange = "2015-10-27 16:22:00 +0000";
layers = (
{
layerId = "A20AAD8A-5619-416D-9D3E-77802FB4F06A";
name = "Bold Italic";
paths = (
{
closed = 1;
nodes = (
"571 -10 OFFCURVE",
"726 128 OFFCURVE",
"771 350 CURVE SMOOTH",
"816 572 OFFCURVE",
"718 710 OFFCURVE",
"491 710 CURVE SMOOTH",
"260 710 OFFCURVE",
"108 572 OFFCURVE",
"63 350 CURVE SMOOTH",
"18 128 OFFCURVE",
"113 -10 OFFCURVE",
"344 -10 CURVE SMOOTH"
);
},
{
closed = 1;
nodes = (
"247 52 OFFCURVE",
"224 177 OFFCURVE",
"259 350 CURVE SMOOTH",
"295 523 OFFCURVE",
"368 648 OFFCURVE",
"478 648 CURVE SMOOTH",
"587 648 OFFCURVE",
"611 523 OFFCURVE",
"575 350 CURVE SMOOTH",
"540 177 OFFCURVE",
"466 52 OFFCURVE",
"357 52 CURVE SMOOTH"
);
},
{
closed = 1;
nodes = (
"632 829 LINE",
"539 968 LINE SMOOTH",
"535 974 OFFCURVE",
"513 1010 OFFCURVE",
"473 1010 CURVE SMOOTH",
"431 1010 OFFCURVE",
"409 981 OFFCURVE",
"405 959 CURVE",
"398 930 OFFCURVE",
"416 908 OFFCURVE",
"448 885 CURVE SMOOTH",
"593 785 LINE"
);
},
{
closed = 1;
nodes = (
"886 524 OFFCURVE",
"945 595 OFFCURVE",
"956 653 CURVE SMOOTH",
"963 682 OFFCURVE",
"972 745 OFFCURVE",
"888 745 CURVE SMOOTH",
"819 745 OFFCURVE",
"796 699 OFFCURVE",
"790 669 CURVE SMOOTH",
"780 624 OFFCURVE",
"802 596 OFFCURVE",
"843 596 CURVE SMOOTH",
"848 596 OFFCURVE",
"852 596 OFFCURVE",
"857 597 CURVE",
"832 547 OFFCURVE",
"750 496 OFFCURVE",
"727 483 CURVE",
"752 441 LINE"
);
}
);
width = 828;
}
);
leftKerningGroup = O;
note = Ohorngrave;
rightKerningGroup = O;
unicode = 1EDC;
},
{
glyphname = Ohornhookabove;
lastChange = "2015-10-27 16:22:00 +0000";
layers = (
{
layerId = "A20AAD8A-5619-416D-9D3E-77802FB4F06A";
name = "Bold Italic";
paths = (
{
closed = 1;
nodes = (
"571 -10 OFFCURVE",
"726 128 OFFCURVE",
"771 350 CURVE SMOOTH",
"816 572 OFFCURVE",
"718 710 OFFCURVE",
"491 710 CURVE SMOOTH",
"260 710 OFFCURVE",
"108 572 OFFCURVE",
"63 350 CURVE SMOOTH",
"18 128 OFFCURVE",
"113 -10 OFFCURVE",
"344 -10 CURVE SMOOTH"
);
},
{
closed = 1;
nodes = (
"247 52 OFFCURVE",
"224 177 OFFCURVE",
"259 350 CURVE SMOOTH",
"295 523 OFFCURVE",
"368 648 OFFCURVE",
"478 648 CURVE SMOOTH",
"587 648 OFFCURVE",
"611 523 OFFCURVE",
"575 350 CURVE SMOOTH",
"540 177 OFFCURVE",
"466 52 OFFCURVE",
"357 52 CURVE SMOOTH"
);
},
{
closed = 1;
nodes = (
"886 524 OFFCURVE",
"945 595 OFFCURVE",
"956 653 CURVE SMOOTH",
"963 682 OFFCURVE",
"972 745 OFFCURVE",
"888 745 CURVE SMOOTH",
"819 745 OFFCURVE",
"796 699 OFFCURVE",
"790 669 CURVE SMOOTH",
"780 624 OFFCURVE",
"802 596 OFFCURVE",
"843 596 CURVE SMOOTH",
"848 596 OFFCURVE",
"852 596 OFFCURVE",
"857 597 CURVE",
"832 547 OFFCURVE",
"750 496 OFFCURVE",
"727 483 CURVE",
"752 441 LINE"
);
},
{
closed = 1;
nodes = (
"540 781 LINE",
"564 854 LINE",
"617 859 OFFCURVE",
"666 878 OFFCURVE",
"681 946 CURVE SMOOTH",
"695 1020 OFFCURVE",
"635 1046 OFFCURVE",
"570 1046 CURVE SMOOTH",
"537 1046 OFFCURVE",
"502 1038 OFFCURVE",
"478 1027 CURVE",
"475 982 LINE",
"498 994 OFFCURVE",
"523 998 OFFCURVE",
"540 998 CURVE SMOOTH",
"582 998 OFFCURVE",
"597 973 OFFCURVE",
"592 947 CURVE SMOOTH",
"584 905 OFFCURVE",
"548 895 OFFCURVE",
"528 895 CURVE SMOOTH",
"483 895 LINE",
"465 781 LINE"
);
}
);
width = 828;
}
);
leftKerningGroup = O;
note = Ohornhookabove;
rightKerningGroup = O;
unicode = 1EDE;
},
{
glyphname = Ohorntilde;
lastChange = "2015-10-27 16:21:58 +0000";
layers = (
{
layerId = "A20AAD8A-5619-416D-9D3E-77802FB4F06A";
name = "Bold Italic";
paths = (
{
closed = 1;
nodes = (
"571 -10 OFFCURVE",
"726 128 OFFCURVE",
"771 350 CURVE SMOOTH",
"816 572 OFFCURVE",
"718 710 OFFCURVE",
"491 710 CURVE SMOOTH",
"260 710 OFFCURVE",
"108 572 OFFCURVE",
"63 350 CURVE SMOOTH",
"18 128 OFFCURVE",
"113 -10 OFFCURVE",
"344 -10 CURVE SMOOTH"
);
},
{
closed = 1;
nodes = (
"247 52 OFFCURVE",
"224 177 OFFCURVE",
"259 350 CURVE SMOOTH",
"295 523 OFFCURVE",
"368 648 OFFCURVE",
"478 648 CURVE SMOOTH",
"587 648 OFFCURVE",
"611 523 OFFCURVE",
"575 350 CURVE SMOOTH",
"540 177 OFFCURVE",
"466 52 OFFCURVE",
"357 52 CURVE SMOOTH"
);
},
{
closed = 1;
nodes = (
"383 786 LINE",
"394 817 OFFCURVE",
"414 836 OFFCURVE",
"442 836 CURVE SMOOTH",
"474 836 OFFCURVE",
"528 786 OFFCURVE",
"589 786 CURVE SMOOTH",
"676 786 OFFCURVE",
"724 839 OFFCURVE",
"746 915 CURVE",
"658 915 LINE",
"637 867 OFFCURVE",
"615 864 OFFCURVE",
"594 864 CURVE SMOOTH",
"555 864 OFFCURVE",
"530 914 OFFCURVE",
"452 914 CURVE SMOOTH",
"376 914 OFFCURVE",
"322 869 OFFCURVE",
"294 786 CURVE"
);
},
{
closed = 1;
nodes = (
"886 524 OFFCURVE",
"945 595 OFFCURVE",
"956 653 CURVE SMOOTH",
"963 682 OFFCURVE",
"972 745 OFFCURVE",
"888 745 CURVE SMOOTH",
"819 745 OFFCURVE",
"796 699 OFFCURVE",
"790 669 CURVE SMOOTH",
"780 624 OFFCURVE",
"802 596 OFFCURVE",
"843 596 CURVE SMOOTH",
"848 596 OFFCURVE",
"852 596 OFFCURVE",
"857 597 CURVE",
"832 547 OFFCURVE",
"750 496 OFFCURVE",
"727 483 CURVE",
"752 441 LINE"
);
}
);
width = 828;
}
);
leftKerningGroup = O;
note = Ohorntilde;
rightKerningGroup = O;
unicode = 1EE0;
},
{
glyphname = Ohungarumlaut;
lastChange = "2015-10-27 16:21:58 +0000";
layers = (
{
layerId = "A20AAD8A-5619-416D-9D3E-77802FB4F06A";
name = "Bold Italic";
paths = (
{
closed = 1;
nodes = (
"571 -10 OFFCURVE",
"726 128 OFFCURVE",
"771 350 CURVE SMOOTH",
"816 572 OFFCURVE",
"718 710 OFFCURVE",
"491 710 CURVE SMOOTH",
"260 710 OFFCURVE",
"108 572 OFFCURVE",
"63 350 CURVE SMOOTH",
"18 128 OFFCURVE",
"113 -10 OFFCURVE",
"344 -10 CURVE SMOOTH"
);
},
{
closed = 1;
nodes = (
"247 52 OFFCURVE",
"224 177 OFFCURVE",
"259 350 CURVE SMOOTH",
"295 523 OFFCURVE",
"368 648 OFFCURVE",
"478 648 CURVE SMOOTH",
"587 648 OFFCURVE",
"611 523 OFFCURVE",
"575 350 CURVE SMOOTH",
"540 177 OFFCURVE",
"466 52 OFFCURVE",
"357 52 CURVE SMOOTH"
);
},
{
closed = 1;
nodes = (
"525 884 LINE SMOOTH",
"567 907 OFFCURVE",
"593 929 OFFCURVE",
"599 958 CURVE SMOOTH",
"604 980 OFFCURVE",
"593 1009 OFFCURVE",
"551 1009 CURVE SMOOTH",
"512 1009 OFFCURVE",
"475 973 OFFCURVE",
"469 967 CURVE",
"321 828 LINE",
"341 784 LINE"
);
},
{
closed = 1;
nodes = (
"750 884 LINE SMOOTH",
"792 907 OFFCURVE",
"818 929 OFFCURVE",
"824 958 CURVE SMOOTH",
"828 980 OFFCURVE",
"818 1009 OFFCURVE",
"776 1009 CURVE SMOOTH",
"736 1009 OFFCURVE",
"700 973 OFFCURVE",
"694 967 CURVE",
"544 828 LINE",
"564 784 LINE"
);
}
);
width = 769;
}
);
leftKerningGroup = O;
note = Ohungarumlaut;
rightKerningGroup = O;
unicode = 0150;
},
{
glyphname = Omacron;
lastChange = "2015-10-27 16:22:00 +0000";
layers = (
{
layerId = "A20AAD8A-5619-416D-9D3E-77802FB4F06A";
name = "Bold Italic";
paths = (
{
closed = 1;
nodes = (
"571 -10 OFFCURVE",
"726 128 OFFCURVE",
"771 350 CURVE SMOOTH",
"816 572 OFFCURVE",
"718 710 OFFCURVE",
"491 710 CURVE SMOOTH",
"260 710 OFFCURVE",
"108 572 OFFCURVE",
"63 350 CURVE SMOOTH",
"18 128 OFFCURVE",
"113 -10 OFFCURVE",
"344 -10 CURVE SMOOTH"
);
},
{
closed = 1;
nodes = (
"247 52 OFFCURVE",
"224 177 OFFCURVE",
"259 350 CURVE SMOOTH",
"295 523 OFFCURVE",
"368 648 OFFCURVE",
"478 648 CURVE SMOOTH",
"587 648 OFFCURVE",
"611 523 OFFCURVE",
"575 350 CURVE SMOOTH",
"540 177 OFFCURVE",
"466 52 OFFCURVE",
"357 52 CURVE SMOOTH"
);
},
{
closed = 1;
nodes = (
"710 786 LINE",
"722 843 LINE",
"312 843 LINE",
"300 786 LINE"
);
}
);
width = 769;
}
);
leftKerningGroup = O;
note = Omacron;
rightKerningGroup = O;
unicode = 014C;
},
{
glyphname = Oslash;
lastChange = "2015-10-27 16:21:58 +0000";
layers = (
{
layerId = "A20AAD8A-5619-416D-9D3E-77802FB4F06A";
name = "Bold Italic";
paths = (
{
closed = 1;
nodes = (
"808 688 LINE",
"767 728 LINE",
"4 0 LINE",
"40 -39 LINE"
);
},
{
closed = 1;
nodes = (
"571 -10 OFFCURVE",
"726 128 OFFCURVE",
"771 350 CURVE SMOOTH",
"816 572 OFFCURVE",
"718 710 OFFCURVE",
"491 710 CURVE SMOOTH",
"260 710 OFFCURVE",
"108 572 OFFCURVE",
"63 350 CURVE SMOOTH",
"18 128 OFFCURVE",
"113 -10 OFFCURVE",
"344 -10 CURVE SMOOTH"
);
},
{
closed = 1;
nodes = (
"247 52 OFFCURVE",
"224 177 OFFCURVE",
"259 350 CURVE SMOOTH",
"295 523 OFFCURVE",
"368 648 OFFCURVE",
"478 648 CURVE SMOOTH",
"587 648 OFFCURVE",
"611 523 OFFCURVE",
"575 350 CURVE SMOOTH",
"540 177 OFFCURVE",
"466 52 OFFCURVE",
"357 52 CURVE SMOOTH"
);
}
);
width = 769;
}
);
leftKerningGroup = O;
note = Oslash;
rightKerningGroup = O;
unicode = 00D8;
},
{
glyphname = Oslashacute;
lastChange = "2015-10-27 16:22:00 +0000";
layers = (
{
layerId = "A20AAD8A-5619-416D-9D3E-77802FB4F06A";
name = "Bold Italic";
paths = (
{
closed = 1;
nodes = (
"808 688 LINE",
"767 728 LINE",
"4 0 LINE",
"40 -39 LINE"
);
},
{
closed = 1;
nodes = (
"571 -10 OFFCURVE",
"726 128 OFFCURVE",
"771 350 CURVE SMOOTH",
"816 572 OFFCURVE",
"718 710 OFFCURVE",
"491 710 CURVE SMOOTH",
"260 710 OFFCURVE",
"108 572 OFFCURVE",
"63 350 CURVE SMOOTH",
"18 128 OFFCURVE",
"113 -10 OFFCURVE",
"344 -10 CURVE SMOOTH"
);
},
{
closed = 1;
nodes = (
"247 52 OFFCURVE",
"224 177 OFFCURVE",
"259 350 CURVE SMOOTH",
"295 523 OFFCURVE",
"368 648 OFFCURVE",
"478 648 CURVE SMOOTH",
"587 648 OFFCURVE",
"611 523 OFFCURVE",
"575 350 CURVE SMOOTH",
"540 177 OFFCURVE",
"466 52 OFFCURVE",
"357 52 CURVE SMOOTH"
);
},
{
closed = 1;
nodes = (
"604 886 LINE SMOOTH",
"645 909 OFFCURVE",
"670 931 OFFCURVE",
"677 960 CURVE",
"681 982 OFFCURVE",
"670 1011 OFFCURVE",
"629 1011 CURVE SMOOTH",
"589 1011 OFFCURVE",
"554 975 OFFCURVE",
"548 969 CURVE",
"397 830 LINE",
"419 786 LINE"
);
}
);
width = 769;
}
);
leftKerningGroup = O;
note = Oslashacute;
rightKerningGroup = O;
unicode = 01FE;
},
{
glyphname = Otilde;
lastChange = "2015-10-27 16:22:00 +0000";
layers = (
{
layerId = "A20AAD8A-5619-416D-9D3E-77802FB4F06A";
name = "Bold Italic";
paths = (
{
closed = 1;
nodes = (
"571 -10 OFFCURVE",
"726 128 OFFCURVE",
"771 350 CURVE SMOOTH",
"816 572 OFFCURVE",
"718 710 OFFCURVE",
"491 710 CURVE SMOOTH",
"260 710 OFFCURVE",
"108 572 OFFCURVE",
"63 350 CURVE SMOOTH",
"18 128 OFFCURVE",
"113 -10 OFFCURVE",
"344 -10 CURVE SMOOTH"
);
},
{
closed = 1;
nodes = (
"247 52 OFFCURVE",
"224 177 OFFCURVE",
"259 350 CURVE SMOOTH",
"295 523 OFFCURVE",
"368 648 OFFCURVE",
"478 648 CURVE SMOOTH",
"587 648 OFFCURVE",
"611 523 OFFCURVE",
"575 350 CURVE SMOOTH",
"540 177 OFFCURVE",
"466 52 OFFCURVE",
"357 52 CURVE SMOOTH"
);
},
{
closed = 1;
nodes = (
"382 786 LINE",
"393 817 OFFCURVE",
"413 836 OFFCURVE",
"441 836 CURVE SMOOTH",
"473 836 OFFCURVE",
"527 786 OFFCURVE",
"588 786 CURVE SMOOTH",
"675 786 OFFCURVE",
"723 839 OFFCURVE",
"745 915 CURVE",
"657 915 LINE",
"636 867 OFFCURVE",
"614 864 OFFCURVE",
"593 864 CURVE SMOOTH",
"554 864 OFFCURVE",
"529 914 OFFCURVE",
"451 914 CURVE SMOOTH",
"375 914 OFFCURVE",
"321 869 OFFCURVE",
"293 786 CURVE"
);
}
);
width = 769;
}
);
leftKerningGroup = O;
note = Otilde;
rightKerningGroup = O;
unicode = 00D5;
},
{
glyphname = OE;
lastChange = "2015-10-27 16:21:59 +0000";
layers = (
{
layerId = "A20AAD8A-5619-416D-9D3E-77802FB4F06A";
name = "Bold Italic";
paths = (
{
closed = 1;
nodes = (
"385 -10 OFFCURVE",
"437 8 OFFCURVE",
"492 59 CURVE",
"480 0 LINE",
"984 0 LINE",
"1044 196 LINE",
"1003 196 LINE",
"979 174 OFFCURVE",
"930 99 OFFCURVE",
"919 59 CURVE",
"684 59 LINE",
"739 330 LINE",
"882 330 LINE",
"880 313 OFFCURVE",
"881 274 OFFCURVE",
"885 241 CURVE",
"915 241 LINE",
"963 477 LINE",
"933 477 LINE",
"915 446 OFFCURVE",
"900 407 OFFCURVE",
"894 389 CURVE",
"751 389 LINE",
"803 641 LINE",
"1030 641 LINE",
"1025 607 OFFCURVE",
"1037 527 OFFCURVE",
"1046 503 CURVE",
"1087 503 LINE",
"1127 700 LINE",
"622 700 LINE",
"610 637 LINE",
"584 682 OFFCURVE",
"532 710 OFFCURVE",
"455 710 CURVE SMOOTH",
"225 710 OFFCURVE",
"98 520 OFFCURVE",
"63 350 CURVE SMOOTH",
"29 180 OFFCURVE",
"78 -10 OFFCURVE",
"308 -10 CURVE SMOOTH"
);
},
{
closed = 1;
nodes = (
"247 52 OFFCURVE",
"224 177 OFFCURVE",
"259 350 CURVE SMOOTH",
"295 523 OFFCURVE",
"368 648 OFFCURVE",
"478 648 CURVE SMOOTH",
"540 648 OFFCURVE",
"583 600 OFFCURVE",
"591 547 CURVE",
"511 152 LINE",
"472 93 OFFCURVE",
"420 52 OFFCURVE",
"357 52 CURVE SMOOTH"
);
}
);
width = 1075;
}
);
note = OE;
unicode = 0152;
},
{
glyphname = P;
lastChange = "2015-10-27 16:22:00 +0000";
layers = (
{
layerId = "A20AAD8A-5619-416D-9D3E-77802FB4F06A";
name = "Bold Italic";
paths = (
{
closed = 1;
nodes = (
"330 0 LINE",
"334 23 LINE",
"309 31 OFFCURVE",
"282 41 OFFCURVE",
"262 45 CURVE",
"307 268 LINE",
"423 268 LINE SMOOTH",
"578 268 OFFCURVE",
"676 376 OFFCURVE",
"701 496 CURVE SMOOTH",
"723 605 OFFCURVE",
"689 700 OFFCURVE",
"509 700 CURVE SMOOTH",
"129 700 LINE",
"124 677 LINE",
"151 667 OFFCURVE",
"174 660 OFFCURVE",
"195 655 CURVE",
"70 47 LINE",
"70 47 OFFCURVE",
"19 33 OFFCURVE",
"-11 25 CURVE",
"-15 0 LINE"
);
},
{
closed = 1;
nodes = (
"384 641 LINE",
"446 641 LINE SMOOTH",
"512 641 OFFCURVE",
"530 589 OFFCURVE",
"511 498 CURVE SMOOTH",
"492 409 OFFCURVE",
"452 326 OFFCURVE",
"382 326 CURVE SMOOTH",
"320 326 LINE"
);
}
);
width = 652;
}
);
note = P;
unicode = 0050;
},
{
glyphname = Thorn;
lastChange = "2015-10-27 16:21:59 +0000";
layers = (
{
layerId = "A20AAD8A-5619-416D-9D3E-77802FB4F06A";
name = "Bold Italic";
paths = (
{
closed = 1;
nodes = (
"321 0 LINE",
"324 23 LINE",
"300 31 OFFCURVE",
"273 41 OFFCURVE",
"252 45 CURVE",
"275 154 LINE",
"391 154 LINE SMOOTH",
"545 154 OFFCURVE",
"643 262 OFFCURVE",
"668 382 CURVE SMOOTH",
"690 491 OFFCURVE",
"657 586 OFFCURVE",
"476 586 CURVE SMOOTH",
"363 586 LINE",
"386 700 LINE",
"119 700 LINE",
"114 677 LINE",
"141 667 OFFCURVE",
"164 660 OFFCURVE",
"185 655 CURVE",
"60 47 LINE",
"60 47 OFFCURVE",
"10 33 OFFCURVE",
"-20 25 CURVE",
"-25 0 LINE"
);
},
{
closed = 1;
nodes = (
"351 527 LINE",
"414 527 LINE SMOOTH",
"479 527 OFFCURVE",
"496 475 OFFCURVE",
"478 384 CURVE SMOOTH",
"460 295 OFFCURVE",
"420 212 OFFCURVE",
"349 212 CURVE SMOOTH",
"287 212 LINE"
);
}
);
width = 642;
}
);
note = Thorn;
unicode = 00DE;
},
{
glyphname = Q;
lastChange = "2015-10-27 16:21:59 +0000";
layers = (
{
layerId = "A20AAD8A-5619-416D-9D3E-77802FB4F06A";
name = "Bold Italic";
paths = (
{
closed = 1;
nodes = (
"571 -10 OFFCURVE",
"726 128 OFFCURVE",
"771 350 CURVE SMOOTH",
"816 572 OFFCURVE",
"718 710 OFFCURVE",
"491 710 CURVE SMOOTH",
"260 710 OFFCURVE",
"108 572 OFFCURVE",
"63 350 CURVE SMOOTH",
"18 128 OFFCURVE",
"113 -10 OFFCURVE",
"344 -10 CURVE SMOOTH"
);
},
{
closed = 1;
nodes = (
"580 -222 OFFCURVE",
"634 -152 OFFCURVE",
"649 -78 CURVE SMOOTH",
"651 -69 OFFCURVE",
"653 -56 OFFCURVE",
"653 -46 CURVE",
"619 -46 LINE",
"594 -93 OFFCURVE",
"567 -111 OFFCURVE",
"518 -111 CURVE SMOOTH",
"427 -111 OFFCURVE",
"375 -46 OFFCURVE",
"276 -46 CURVE SMOOTH",
"264 -46 LINE",
"298 -22 OFFCURVE",
"321 -8 OFFCURVE",
"348 2 CURVE",
"267 2 LINE",
"210 -15 OFFCURVE",
"149 -60 OFFCURVE",
"108 -96 CURVE",
"123 -125 LINE",
"151 -110 OFFCURVE",
"177 -104 OFFCURVE",
"201 -104 CURVE SMOOTH",
"304 -104 OFFCURVE",
"365 -222 OFFCURVE",
"470 -222 CURVE SMOOTH"
);
},
{
closed = 1;
nodes = (
"247 52 OFFCURVE",
"224 177 OFFCURVE",
"259 350 CURVE SMOOTH",
"295 523 OFFCURVE",
"368 648 OFFCURVE",
"478 648 CURVE SMOOTH",
"587 648 OFFCURVE",
"611 523 OFFCURVE",
"575 350 CURVE SMOOTH",
"540 177 OFFCURVE",
"466 52 OFFCURVE",
"357 52 CURVE SMOOTH"
);
}
);
width = 769;
}
);
leftKerningGroup = O;
note = Q;
rightKerningGroup = O;
unicode = 0051;
},
{
glyphname = R;
lastChange = "2015-10-27 16:22:00 +0000";
layers = (
{
layerId = "A20AAD8A-5619-416D-9D3E-77802FB4F06A";
name = "Bold Italic";
paths = (
{
closed = 1;
nodes = (
"330 0 LINE",
"334 23 LINE",
"309 31 OFFCURVE",
"282 41 OFFCURVE",
"262 45 CURVE",
"314 298 LINE",
"445 298 LINE SMOOTH",
"577 298 OFFCURVE",
"686 378 OFFCURVE",
"712 506 CURVE SMOOTH",
"734 615 OFFCURVE",
"707 700 OFFCURVE",
"526 700 CURVE SMOOTH",
"129 700 LINE",
"124 677 LINE",
"151 667 OFFCURVE",
"174 660 OFFCURVE",
"195 655 CURVE",
"70 47 LINE",
"70 47 OFFCURVE",
"19 33 OFFCURVE",
"-11 25 CURVE",
"-15 0 LINE"
);
},
{
closed = 1;
nodes = (
"675 0 LINE",
"679 22 LINE",
"654 33 OFFCURVE",
"630 40 OFFCURVE",
"608 46 CURVE",
"524 318 LINE",
"360 318 LINE",
"444 0 LINE"
);
},
{
closed = 1;
nodes = (
"384 641 LINE",
"446 641 LINE SMOOTH",
"518 641 OFFCURVE",
"541 599 OFFCURVE",
"522 508 CURVE SMOOTH",
"505 419 OFFCURVE",
"465 356 OFFCURVE",
"388 356 CURVE SMOOTH",
"325 356 LINE"
);
}
);
width = 727;
}
);
note = R;
rightKerningGroup = R;
unicode = 0052;
},
{
glyphname = Racute;
lastChange = "2015-10-27 16:22:00 +0000";
layers = (
{
layerId = "A20AAD8A-5619-416D-9D3E-77802FB4F06A";
name = "Bold Italic";
paths = (
{
closed = 1;
nodes = (
"330 0 LINE",
"334 23 LINE",
"309 31 OFFCURVE",
"282 41 OFFCURVE",
"262 45 CURVE",
"314 298 LINE",
"445 298 LINE SMOOTH",
"577 298 OFFCURVE",
"686 378 OFFCURVE",
"712 506 CURVE SMOOTH",
"734 615 OFFCURVE",
"707 700 OFFCURVE",
"526 700 CURVE SMOOTH",
"129 700 LINE",
"124 677 LINE",
"151 667 OFFCURVE",
"174 660 OFFCURVE",
"195 655 CURVE",
"70 47 LINE",
"70 47 OFFCURVE",
"19 33 OFFCURVE",
"-11 25 CURVE",
"-15 0 LINE"
);
},
{
closed = 1;
nodes = (
"675 0 LINE",
"679 22 LINE",
"654 33 OFFCURVE",
"630 40 OFFCURVE",
"608 46 CURVE",
"524 318 LINE",
"360 318 LINE",
"444 0 LINE"
);
},
{
closed = 1;
nodes = (
"384 641 LINE",
"446 641 LINE SMOOTH",
"518 641 OFFCURVE",
"541 599 OFFCURVE",
"522 508 CURVE SMOOTH",
"505 419 OFFCURVE",
"465 356 OFFCURVE",
"388 356 CURVE SMOOTH",
"325 356 LINE"
);
},
{
closed = 1;
nodes = (
"578 886 LINE SMOOTH",
"619 909 OFFCURVE",
"644 931 OFFCURVE",
"651 960 CURVE",
"655 982 OFFCURVE",
"644 1011 OFFCURVE",
"603 1011 CURVE SMOOTH",
"564 1011 OFFCURVE",
"528 975 OFFCURVE",
"522 969 CURVE",
"372 830 LINE",
"393 786 LINE"
);
}
);
width = 727;
}
);
note = Racute;
rightKerningGroup = R;
unicode = 0154;
},
{
glyphname = Rcaron;
lastChange = "2015-10-27 16:22:00 +0000";
layers = (
{
layerId = "A20AAD8A-5619-416D-9D3E-77802FB4F06A";
name = "Bold Italic";
paths = (
{
closed = 1;
nodes = (
"330 0 LINE",
"334 23 LINE",
"309 31 OFFCURVE",
"282 41 OFFCURVE",
"262 45 CURVE",
"314 298 LINE",
"445 298 LINE SMOOTH",
"577 298 OFFCURVE",
"686 378 OFFCURVE",
"712 506 CURVE SMOOTH",
"734 615 OFFCURVE",
"707 700 OFFCURVE",
"526 700 CURVE SMOOTH",
"129 700 LINE",
"124 677 LINE",
"151 667 OFFCURVE",
"174 660 OFFCURVE",
"195 655 CURVE",
"70 47 LINE",
"70 47 OFFCURVE",
"19 33 OFFCURVE",
"-11 25 CURVE",
"-15 0 LINE"
);
},
{
closed = 1;
nodes = (
"675 0 LINE",
"679 22 LINE",
"654 33 OFFCURVE",
"630 40 OFFCURVE",
"608 46 CURVE",
"524 318 LINE",
"360 318 LINE",
"444 0 LINE"
);
},
{
closed = 1;
nodes = (
"384 641 LINE",
"446 641 LINE SMOOTH",
"518 641 OFFCURVE",
"541 599 OFFCURVE",
"522 508 CURVE SMOOTH",
"505 419 OFFCURVE",
"465 356 OFFCURVE",
"388 356 CURVE SMOOTH",
"325 356 LINE"
);
},
{
closed = 1;
nodes = (
"445 786 OFFCURVE",
"533 786 OFFCURVE",
"533 786 CURVE",
"560 819 OFFCURVE",
"678 913 OFFCURVE",
"729 942 CURVE",
"663 997 LINE",
"614 962 OFFCURVE",
"533 892 OFFCURVE",
"504 855 CURVE",
"504 855 OFFCURVE",
"501 855 OFFCURVE",
"501 855 CURVE",
"488 892 OFFCURVE",
"435 962 OFFCURVE",
"399 997 CURVE",
"314 942 LINE",
"353 913 OFFCURVE",
"432 819 OFFCURVE",
"445 786 CURVE"
);
}
);
width = 727;
}
);
note = Rcaron;
rightKerningGroup = R;
unicode = 0158;
},
{
glyphname = Rcommaaccent;
lastChange = "2015-10-27 16:21:59 +0000";
layers = (
{
layerId = "A20AAD8A-5619-416D-9D3E-77802FB4F06A";
name = "Bold Italic";
paths = (
{
closed = 1;
nodes = (
"330 0 LINE",
"334 23 LINE",
"309 31 OFFCURVE",
"282 41 OFFCURVE",
"262 45 CURVE",
"314 298 LINE",
"445 298 LINE SMOOTH",
"577 298 OFFCURVE",
"686 378 OFFCURVE",
"712 506 CURVE SMOOTH",
"734 615 OFFCURVE",
"707 700 OFFCURVE",
"526 700 CURVE SMOOTH",
"129 700 LINE",
"124 677 LINE",
"151 667 OFFCURVE",
"174 660 OFFCURVE",
"195 655 CURVE",
"70 47 LINE",
"70 47 OFFCURVE",
"19 33 OFFCURVE",
"-11 25 CURVE",
"-15 0 LINE"
);
},
{
closed = 1;
nodes = (
"308 -356 OFFCURVE",
"376 -264 OFFCURVE",
"396 -174 CURVE SMOOTH",
"404 -130 OFFCURVE",
"384 -89 OFFCURVE",
"324 -89 CURVE SMOOTH",
"280 -89 OFFCURVE",
"235 -119 OFFCURVE",
"226 -168 CURVE SMOOTH",
"217 -209 OFFCURVE",
"245 -246 OFFCURVE",
"285 -251 CURVE",
"267 -297 OFFCURVE",
"215 -344 OFFCURVE",
"186 -368 CURVE",
"234 -412 LINE"
);
},
{
closed = 1;
nodes = (
"675 0 LINE",
"679 22 LINE",
"654 33 OFFCURVE",
"630 40 OFFCURVE",
"608 46 CURVE",
"524 318 LINE",
"360 318 LINE",
"444 0 LINE"
);
},
{
closed = 1;
nodes = (
"384 641 LINE",
"446 641 LINE SMOOTH",
"518 641 OFFCURVE",
"541 599 OFFCURVE",
"522 508 CURVE SMOOTH",
"505 419 OFFCURVE",
"465 356 OFFCURVE",
"388 356 CURVE SMOOTH",
"325 356 LINE"
);
}
);
width = 727;
}
);
note = Rcommaaccent;
rightKerningGroup = R;
unicode = 0156;
},
{
glyphname = Rdotbelow;
lastChange = "2015-10-27 16:21:59 +0000";
layers = (
{
layerId = "A20AAD8A-5619-416D-9D3E-77802FB4F06A";
name = "Bold Italic";
paths = (
{
closed = 1;
nodes = (
"330 0 LINE",
"334 23 LINE",
"309 31 OFFCURVE",
"282 41 OFFCURVE",
"262 45 CURVE",
"314 298 LINE",
"445 298 LINE SMOOTH",
"577 298 OFFCURVE",
"686 378 OFFCURVE",
"712 506 CURVE SMOOTH",
"734 615 OFFCURVE",
"707 700 OFFCURVE",
"526 700 CURVE SMOOTH",
"129 700 LINE",
"124 677 LINE",
"151 667 OFFCURVE",
"174 660 OFFCURVE",
"195 655 CURVE",
"70 47 LINE",
"70 47 OFFCURVE",
"19 33 OFFCURVE",
"-11 25 CURVE",
"-15 0 LINE"
);
},
{
closed = 1;
nodes = (
"328 -195 OFFCURVE",
"362 -163 OFFCURVE",
"370 -123 CURVE SMOOTH",
"378 -83 OFFCURVE",
"358 -50 OFFCURVE",
"315 -50 CURVE SMOOTH",
"272 -50 OFFCURVE",
"239 -83 OFFCURVE",
"230 -123 CURVE SMOOTH",
"223 -163 OFFCURVE",
"242 -195 OFFCURVE",
"285 -195 CURVE SMOOTH"
);
},
{
closed = 1;
nodes = (
"675 0 LINE",
"679 22 LINE",
"654 33 OFFCURVE",
"630 40 OFFCURVE",
"608 46 CURVE",
"524 318 LINE",
"360 318 LINE",
"444 0 LINE"
);
},
{
closed = 1;
nodes = (
"384 641 LINE",
"446 641 LINE SMOOTH",
"518 641 OFFCURVE",
"541 599 OFFCURVE",
"522 508 CURVE SMOOTH",
"505 419 OFFCURVE",
"465 356 OFFCURVE",
"388 356 CURVE SMOOTH",
"325 356 LINE"
);
}
);
width = 727;
}
);
note = Rdotbelow;
rightKerningGroup = R;
unicode = 1E5A;
},
{
glyphname = Rdotbelowmacron;
lastChange = "2015-10-27 16:21:59 +0000";
layers = (
{
layerId = "A20AAD8A-5619-416D-9D3E-77802FB4F06A";
name = "Bold Italic";
paths = (
{
closed = 1;
nodes = (
"330 0 LINE",
"334 23 LINE",
"309 31 OFFCURVE",
"282 41 OFFCURVE",
"262 45 CURVE",
"314 298 LINE",
"445 298 LINE SMOOTH",
"577 298 OFFCURVE",
"686 378 OFFCURVE",
"712 506 CURVE SMOOTH",
"734 615 OFFCURVE",
"707 700 OFFCURVE",
"526 700 CURVE SMOOTH",
"129 700 LINE",
"124 677 LINE",
"151 667 OFFCURVE",
"174 660 OFFCURVE",
"195 655 CURVE",
"70 47 LINE",
"70 47 OFFCURVE",
"19 33 OFFCURVE",
"-11 25 CURVE",
"-15 0 LINE"
);
},
{
closed = 1;
nodes = (
"328 -195 OFFCURVE",
"362 -163 OFFCURVE",
"370 -123 CURVE SMOOTH",
"378 -83 OFFCURVE",
"358 -50 OFFCURVE",
"315 -50 CURVE SMOOTH",
"272 -50 OFFCURVE",
"239 -83 OFFCURVE",
"230 -123 CURVE SMOOTH",
"223 -163 OFFCURVE",
"242 -195 OFFCURVE",
"285 -195 CURVE SMOOTH"
);
},
{
closed = 1;
nodes = (
"675 0 LINE",
"679 22 LINE",
"654 33 OFFCURVE",
"630 40 OFFCURVE",
"608 46 CURVE",
"524 318 LINE",
"360 318 LINE",
"444 0 LINE"
);
},
{
closed = 1;
nodes = (
"384 641 LINE",
"446 641 LINE SMOOTH",
"518 641 OFFCURVE",
"541 599 OFFCURVE",
"522 508 CURVE SMOOTH",
"505 419 OFFCURVE",
"465 356 OFFCURVE",
"388 356 CURVE SMOOTH",
"325 356 LINE"
);
},
{
closed = 1;
nodes = (
"675 785 LINE",
"687 843 LINE",
"232 843 LINE",
"220 785 LINE"
);
}
);
width = 727;
}
);
note = Rdotbelowmacron;
rightKerningGroup = R;
unicode = 1E5C;
},
{
glyphname = Rlinebelow;
lastChange = "2015-10-27 16:21:59 +0000";
layers = (
{
layerId = "A20AAD8A-5619-416D-9D3E-77802FB4F06A";
name = "Bold Italic";
paths = (
{
closed = 1;
nodes = (
"330 0 LINE",
"334 23 LINE",
"309 31 OFFCURVE",
"282 41 OFFCURVE",
"262 45 CURVE",
"314 298 LINE",
"445 298 LINE SMOOTH",
"577 298 OFFCURVE",
"686 378 OFFCURVE",
"712 506 CURVE SMOOTH",
"734 615 OFFCURVE",
"707 700 OFFCURVE",
"526 700 CURVE SMOOTH",
"129 700 LINE",
"124 677 LINE",
"151 667 OFFCURVE",
"174 660 OFFCURVE",
"195 655 CURVE",
"70 47 LINE",
"70 47 OFFCURVE",
"19 33 OFFCURVE",
"-11 25 CURVE",
"-15 0 LINE"
);
},
{
closed = 1;
nodes = (
"476 -112 LINE",
"488 -55 LINE",
"78 -55 LINE",
"66 -112 LINE"
);
},
{
closed = 1;
nodes = (
"675 0 LINE",
"679 22 LINE",
"654 33 OFFCURVE",
"630 40 OFFCURVE",
"608 46 CURVE",
"524 318 LINE",
"360 318 LINE",
"444 0 LINE"
);
},
{
closed = 1;
nodes = (
"384 641 LINE",
"446 641 LINE SMOOTH",
"518 641 OFFCURVE",
"541 599 OFFCURVE",
"522 508 CURVE SMOOTH",
"505 419 OFFCURVE",
"465 356 OFFCURVE",
"388 356 CURVE SMOOTH",
"325 356 LINE"
);
}
);
width = 727;
}
);
note = Rlinebelow;
rightKerningGroup = R;
unicode = 1E5E;
},
{
glyphname = S;
lastChange = "2015-10-27 16:22:00 +0000";
layers = (
{
layerId = "A20AAD8A-5619-416D-9D3E-77802FB4F06A";
name = "Bold Italic";
paths = (
{
closed = 1;
nodes = (
"411 -10 OFFCURVE",
"554 63 OFFCURVE",
"583 203 CURVE SMOOTH",
"639 482 OFFCURVE",
"282 421 OFFCURVE",
"309 554 CURVE SMOOTH",
"324 626 OFFCURVE",
"386 648 OFFCURVE",
"446 648 CURVE SMOOTH",
"491 648 OFFCURVE",
"535 637 OFFCURVE",
"557 616 CURVE",
"551 563 OFFCURVE",
"552 527 OFFCURVE",
"556 486 CURVE",
"600 486 LINE",
"647 636 LINE",
"601 689 OFFCURVE",
"531 710 OFFCURVE",
"420 710 CURVE SMOOTH",
"257 710 OFFCURVE",
"133 648 OFFCURVE",
"108 521 CURVE SMOOTH",
"54 256 OFFCURVE",
"416 347 OFFCURVE",
"381 177 CURVE SMOOTH",
"363 89 OFFCURVE",
"288 52 OFFCURVE",
"214 52 CURVE SMOOTH",
"167 52 OFFCURVE",
"122 71 OFFCURVE",
"98 100 CURVE",
"104 153 OFFCURVE",
"108 199 OFFCURVE",
"105 240 CURVE",
"60 240 LINE",
"12 87 LINE",
"44 28 OFFCURVE",
"140 -10 OFFCURVE",
"252 -10 CURVE SMOOTH"
);
}
);
width = 612;
}
);
leftKerningGroup = S;
note = S;
rightKerningGroup = S;
unicode = 0053;
},
{
glyphname = Sacute;
lastChange = "2015-10-27 16:21:59 +0000";
layers = (
{
layerId = "A20AAD8A-5619-416D-9D3E-77802FB4F06A";
name = "Bold Italic";
paths = (
{
closed = 1;
nodes = (
"411 -10 OFFCURVE",
"554 63 OFFCURVE",
"583 203 CURVE SMOOTH",
"639 482 OFFCURVE",
"282 421 OFFCURVE",
"309 554 CURVE SMOOTH",
"324 626 OFFCURVE",
"386 648 OFFCURVE",
"446 648 CURVE SMOOTH",
"491 648 OFFCURVE",
"535 637 OFFCURVE",
"557 616 CURVE",
"551 563 OFFCURVE",
"552 527 OFFCURVE",
"556 486 CURVE",
"600 486 LINE",
"647 636 LINE",
"601 689 OFFCURVE",
"531 710 OFFCURVE",
"420 710 CURVE SMOOTH",
"257 710 OFFCURVE",
"133 648 OFFCURVE",
"108 521 CURVE SMOOTH",
"54 256 OFFCURVE",
"416 347 OFFCURVE",
"381 177 CURVE SMOOTH",
"363 89 OFFCURVE",
"288 52 OFFCURVE",
"214 52 CURVE SMOOTH",
"167 52 OFFCURVE",
"122 71 OFFCURVE",
"98 100 CURVE",
"104 153 OFFCURVE",
"108 199 OFFCURVE",
"105 240 CURVE",
"60 240 LINE",
"12 87 LINE",
"44 28 OFFCURVE",
"140 -10 OFFCURVE",
"252 -10 CURVE SMOOTH"
);
},
{
closed = 1;
nodes = (
"516 886 LINE SMOOTH",
"558 909 OFFCURVE",
"583 931 OFFCURVE",
"589 960 CURVE",
"593 982 OFFCURVE",
"583 1011 OFFCURVE",
"541 1011 CURVE SMOOTH",
"502 1011 OFFCURVE",
"467 975 OFFCURVE",
"461 969 CURVE",
"310 830 LINE",
"331 786 LINE"
);
}
);
width = 612;
}
);
leftKerningGroup = S;
note = Sacute;
rightKerningGroup = S;
unicode = 015A;
},
{
glyphname = Scaron;
lastChange = "2015-10-27 16:22:00 +0000";
layers = (
{
layerId = "A20AAD8A-5619-416D-9D3E-77802FB4F06A";
name = "Bold Italic";
paths = (
{
closed = 1;
nodes = (
"411 -10 OFFCURVE",
"554 63 OFFCURVE",
"583 203 CURVE SMOOTH",
"639 482 OFFCURVE",
"282 421 OFFCURVE",
"309 554 CURVE SMOOTH",
"324 626 OFFCURVE",
"386 648 OFFCURVE",
"446 648 CURVE SMOOTH",
"491 648 OFFCURVE",
"535 637 OFFCURVE",
"557 616 CURVE",
"551 563 OFFCURVE",
"552 527 OFFCURVE",
"556 486 CURVE",
"600 486 LINE",
"647 636 LINE",
"601 689 OFFCURVE",
"531 710 OFFCURVE",
"420 710 CURVE SMOOTH",
"257 710 OFFCURVE",
"133 648 OFFCURVE",
"108 521 CURVE SMOOTH",
"54 256 OFFCURVE",
"416 347 OFFCURVE",
"381 177 CURVE SMOOTH",
"363 89 OFFCURVE",
"288 52 OFFCURVE",
"214 52 CURVE SMOOTH",
"167 52 OFFCURVE",
"122 71 OFFCURVE",
"98 100 CURVE",
"104 153 OFFCURVE",
"108 199 OFFCURVE",
"105 240 CURVE",
"60 240 LINE",
"12 87 LINE",
"44 28 OFFCURVE",
"140 -10 OFFCURVE",
"252 -10 CURVE SMOOTH"
);
},
{
closed = 1;
nodes = (
"383 786 OFFCURVE",
"470 786 OFFCURVE",
"470 786 CURVE",
"497 819 OFFCURVE",
"615 913 OFFCURVE",
"666 942 CURVE",
"601 997 LINE",
"552 962 OFFCURVE",
"470 892 OFFCURVE",
"442 855 CURVE",
"442 855 OFFCURVE",
"439 855 OFFCURVE",
"439 855 CURVE",
"425 892 OFFCURVE",
"372 962 OFFCURVE",
"337 997 CURVE",
"252 942 LINE",
"291 913 OFFCURVE",
"370 819 OFFCURVE",
"383 786 CURVE"
);
}
);
width = 612;
}
);
leftKerningGroup = S;
note = Scaron;
rightKerningGroup = S;
unicode = 0160;
},
{
glyphname = Scedilla;
lastChange = "2015-10-27 16:22:00 +0000";
layers = (
{
layerId = "A20AAD8A-5619-416D-9D3E-77802FB4F06A";
name = "Bold Italic";
paths = (
{
closed = 1;
nodes = (
"411 -10 OFFCURVE",
"554 63 OFFCURVE",
"583 203 CURVE SMOOTH",
"639 482 OFFCURVE",
"282 421 OFFCURVE",
"309 554 CURVE SMOOTH",
"324 626 OFFCURVE",
"386 648 OFFCURVE",
"446 648 CURVE SMOOTH",
"491 648 OFFCURVE",
"535 637 OFFCURVE",
"557 616 CURVE",
"551 563 OFFCURVE",
"552 527 OFFCURVE",
"556 486 CURVE",
"600 486 LINE",
"647 636 LINE",
"601 689 OFFCURVE",
"531 710 OFFCURVE",
"420 710 CURVE SMOOTH",
"257 710 OFFCURVE",
"133 648 OFFCURVE",
"108 521 CURVE SMOOTH",
"54 256 OFFCURVE",
"416 347 OFFCURVE",
"381 177 CURVE SMOOTH",
"363 89 OFFCURVE",
"288 52 OFFCURVE",
"214 52 CURVE SMOOTH",
"167 52 OFFCURVE",
"122 71 OFFCURVE",
"98 100 CURVE",
"104 153 OFFCURVE",
"108 199 OFFCURVE",
"105 240 CURVE",
"60 240 LINE",
"12 87 LINE",
"44 28 OFFCURVE",
"140 -10 OFFCURVE",
"252 -10 CURVE SMOOTH"
);
},
{
closed = 1;
nodes = (
"282 -274 OFFCURVE",
"362 -233 OFFCURVE",
"378 -154 CURVE SMOOTH",
"386 -114 OFFCURVE",
"370 -66 OFFCURVE",
"294 -58 CURVE",
"289 -58 OFFCURVE",
"278 -57 OFFCURVE",
"274 -57 CURVE",
"335 32 LINE",
"258 32 LINE",
"187 -71 LINE",
"207 -108 LINE",
"214 -107 OFFCURVE",
"222 -107 OFFCURVE",
"228 -107 CURVE SMOOTH",
"260 -107 OFFCURVE",
"297 -116 OFFCURVE",
"289 -154 CURVE SMOOTH",
"279 -198 OFFCURVE",
"238 -211 OFFCURVE",
"196 -211 CURVE SMOOTH",
"164 -211 OFFCURVE",
"132 -202 OFFCURVE",
"115 -188 CURVE",
"78 -234 LINE",
"106 -259 OFFCURVE",
"156 -274 OFFCURVE",
"199 -274 CURVE SMOOTH"
);
}
);
width = 612;
}
);
leftKerningGroup = S;
note = Scedilla;
rightKerningGroup = S;
unicode = 015E;
},
{
glyphname = Scircumflex;
lastChange = "2015-10-27 16:21:59 +0000";
layers = (
{
layerId = "A20AAD8A-5619-416D-9D3E-77802FB4F06A";
name = "Bold Italic";
paths = (
{
closed = 1;
nodes = (
"411 -10 OFFCURVE",
"554 63 OFFCURVE",
"583 203 CURVE SMOOTH",
"639 482 OFFCURVE",
"282 421 OFFCURVE",
"309 554 CURVE SMOOTH",
"324 626 OFFCURVE",
"386 648 OFFCURVE",
"446 648 CURVE SMOOTH",
"491 648 OFFCURVE",
"535 637 OFFCURVE",
"557 616 CURVE",
"551 563 OFFCURVE",
"552 527 OFFCURVE",
"556 486 CURVE",
"600 486 LINE",
"647 636 LINE",
"601 689 OFFCURVE",
"531 710 OFFCURVE",
"420 710 CURVE SMOOTH",
"257 710 OFFCURVE",
"133 648 OFFCURVE",
"108 521 CURVE SMOOTH",
"54 256 OFFCURVE",
"416 347 OFFCURVE",
"381 177 CURVE SMOOTH",
"363 89 OFFCURVE",
"288 52 OFFCURVE",
"214 52 CURVE SMOOTH",
"167 52 OFFCURVE",
"122 71 OFFCURVE",
"98 100 CURVE",
"104 153 OFFCURVE",
"108 199 OFFCURVE",
"105 240 CURVE",
"60 240 LINE",
"12 87 LINE",
"44 28 OFFCURVE",
"140 -10 OFFCURVE",
"252 -10 CURVE SMOOTH"
);
},
{
closed = 1;
nodes = (
"344 821 OFFCURVE",
"425 891 OFFCURVE",
"454 928 CURVE",
"454 928 OFFCURVE",
"457 928 OFFCURVE",
"457 928 CURVE",
"470 891 OFFCURVE",
"523 821 OFFCURVE",
"559 786 CURVE",
"645 841 LINE",
"606 870 OFFCURVE",
"526 964 OFFCURVE",
"513 997 CURVE",
"513 997 OFFCURVE",
"425 997 OFFCURVE",
"425 997 CURVE",
"398 964 OFFCURVE",
"281 870 OFFCURVE",
"230 841 CURVE",
"296 786 LINE"
);
}
);
width = 612;
}
);
leftKerningGroup = S;
note = Scircumflex;
rightKerningGroup = S;
unicode = 015C;
},
{
glyphname = Scommaaccent;
lastChange = "2015-10-27 16:21:59 +0000";
layers = (
{
layerId = "A20AAD8A-5619-416D-9D3E-77802FB4F06A";
name = "Bold Italic";
paths = (
{
closed = 1;
nodes = (
"411 -10 OFFCURVE",
"554 63 OFFCURVE",
"583 203 CURVE SMOOTH",
"639 482 OFFCURVE",
"282 421 OFFCURVE",
"309 554 CURVE SMOOTH",
"324 626 OFFCURVE",
"386 648 OFFCURVE",
"446 648 CURVE SMOOTH",
"491 648 OFFCURVE",
"535 637 OFFCURVE",
"557 616 CURVE",
"551 563 OFFCURVE",
"552 527 OFFCURVE",
"556 486 CURVE",
"600 486 LINE",
"647 636 LINE",
"601 689 OFFCURVE",
"531 710 OFFCURVE",
"420 710 CURVE SMOOTH",
"257 710 OFFCURVE",
"133 648 OFFCURVE",
"108 521 CURVE SMOOTH",
"54 256 OFFCURVE",
"416 347 OFFCURVE",
"381 177 CURVE SMOOTH",
"363 89 OFFCURVE",
"288 52 OFFCURVE",
"214 52 CURVE SMOOTH",
"167 52 OFFCURVE",
"122 71 OFFCURVE",
"98 100 CURVE",
"104 153 OFFCURVE",
"108 199 OFFCURVE",
"105 240 CURVE",
"60 240 LINE",
"12 87 LINE",
"44 28 OFFCURVE",
"140 -10 OFFCURVE",
"252 -10 CURVE SMOOTH"
);
},
{
closed = 1;
nodes = (
"242 -323 OFFCURVE",
"313 -225 OFFCURVE",
"331 -135 CURVE SMOOTH",
"340 -91 OFFCURVE",
"320 -50 OFFCURVE",
"260 -50 CURVE SMOOTH",
"216 -50 OFFCURVE",
"171 -80 OFFCURVE",
"161 -129 CURVE SMOOTH",
"153 -170 OFFCURVE",
"181 -207 OFFCURVE",
"221 -212 CURVE",
"204 -258 OFFCURVE",
"149 -311 OFFCURVE",
"120 -335 CURVE",
"168 -379 LINE"
);
}
);
width = 612;
}
);
leftKerningGroup = S;
note = Scommaaccent;
rightKerningGroup = S;
unicode = 0218;
},
{
glyphname = Sdotaccent;
lastChange = "2015-10-27 16:21:59 +0000";
layers = (
{
layerId = "A20AAD8A-5619-416D-9D3E-77802FB4F06A";
name = "Bold Italic";
paths = (
{
closed = 1;
nodes = (
"411 -10 OFFCURVE",
"554 63 OFFCURVE",
"583 203 CURVE SMOOTH",
"639 482 OFFCURVE",
"282 421 OFFCURVE",
"309 554 CURVE SMOOTH",
"324 626 OFFCURVE",
"386 648 OFFCURVE",
"446 648 CURVE SMOOTH",
"491 648 OFFCURVE",
"535 637 OFFCURVE",
"557 616 CURVE",
"551 563 OFFCURVE",
"552 527 OFFCURVE",
"556 486 CURVE",
"600 486 LINE",
"647 636 LINE",
"601 689 OFFCURVE",
"531 710 OFFCURVE",
"420 710 CURVE SMOOTH",
"257 710 OFFCURVE",
"133 648 OFFCURVE",
"108 521 CURVE SMOOTH",
"54 256 OFFCURVE",
"416 347 OFFCURVE",
"381 177 CURVE SMOOTH",
"363 89 OFFCURVE",
"288 52 OFFCURVE",
"214 52 CURVE SMOOTH",
"167 52 OFFCURVE",
"122 71 OFFCURVE",
"98 100 CURVE",
"104 153 OFFCURVE",
"108 199 OFFCURVE",
"105 240 CURVE",
"60 240 LINE",
"12 87 LINE",
"44 28 OFFCURVE",
"140 -10 OFFCURVE",
"252 -10 CURVE SMOOTH"
);
},
{
closed = 1;
nodes = (
"490 786 OFFCURVE",
"522 818 OFFCURVE",
"531 858 CURVE SMOOTH",
"539 898 OFFCURVE",
"518 931 OFFCURVE",
"475 931 CURVE SMOOTH",
"432 931 OFFCURVE",
"399 898 OFFCURVE",
"392 858 CURVE SMOOTH",
"383 818 OFFCURVE",
"403 786 OFFCURVE",
"446 786 CURVE SMOOTH"
);
}
);
width = 612;
}
);
leftKerningGroup = S;
note = Sdotaccent;
rightKerningGroup = S;
unicode = 1E60;
},
{
glyphname = Sdotbelow;
lastChange = "2015-10-27 16:21:59 +0000";
layers = (
{
layerId = "A20AAD8A-5619-416D-9D3E-77802FB4F06A";
name = "Bold Italic";
paths = (
{
closed = 1;
nodes = (
"411 -10 OFFCURVE",
"554 63 OFFCURVE",
"583 203 CURVE SMOOTH",
"639 482 OFFCURVE",
"282 421 OFFCURVE",
"309 554 CURVE SMOOTH",
"324 626 OFFCURVE",
"386 648 OFFCURVE",
"446 648 CURVE SMOOTH",
"491 648 OFFCURVE",
"535 637 OFFCURVE",
"557 616 CURVE",
"551 563 OFFCURVE",
"552 527 OFFCURVE",
"556 486 CURVE",
"600 486 LINE",
"647 636 LINE",
"601 689 OFFCURVE",
"531 710 OFFCURVE",
"420 710 CURVE SMOOTH",
"257 710 OFFCURVE",
"133 648 OFFCURVE",
"108 521 CURVE SMOOTH",
"54 256 OFFCURVE",
"416 347 OFFCURVE",
"381 177 CURVE SMOOTH",
"363 89 OFFCURVE",
"288 52 OFFCURVE",
"214 52 CURVE SMOOTH",
"167 52 OFFCURVE",
"122 71 OFFCURVE",
"98 100 CURVE",
"104 153 OFFCURVE",
"108 199 OFFCURVE",
"105 240 CURVE",
"60 240 LINE",
"12 87 LINE",
"44 28 OFFCURVE",
"140 -10 OFFCURVE",
"252 -10 CURVE SMOOTH"
);
},
{
closed = 1;
nodes = (
"284 -195 OFFCURVE",
"318 -163 OFFCURVE",
"325 -123 CURVE SMOOTH",
"334 -83 OFFCURVE",
"314 -50 OFFCURVE",
"271 -50 CURVE SMOOTH",
"228 -50 OFFCURVE",
"195 -83 OFFCURVE",
"186 -123 CURVE SMOOTH",
"179 -163 OFFCURVE",
"198 -195 OFFCURVE",
"241 -195 CURVE SMOOTH"
);
}
);
width = 612;
}
);
leftKerningGroup = S;
note = Sdotbelow;
rightKerningGroup = S;
unicode = 1E62;
},
{
glyphname = Germandbls;
lastChange = "2015-10-27 16:21:59 +0000";
layers = (
{
layerId = "A20AAD8A-5619-416D-9D3E-77802FB4F06A";
name = "Bold Italic";
paths = (
{
closed = 1;
nodes = (
"621 -10 OFFCURVE",
"729 91 OFFCURVE",
"753 208 CURVE SMOOTH",
"773 309 OFFCURVE",
"704 381 OFFCURVE",
"572 404 CURVE",
"742 552 LINE",
"734 627 OFFCURVE",
"657 710 OFFCURVE",
"495 710 CURVE SMOOTH",
"294 710 OFFCURVE",
"186 631 OFFCURVE",
"157 493 CURVE SMOOTH",
"66 47 LINE",
"-14 25 LINE",
"-19 0 LINE",
"246 0 LINE",
"356 544 LINE SMOOTH",
"371 614 OFFCURVE",
"414 648 OFFCURVE",
"473 648 CURVE SMOOTH",
"543 648 OFFCURVE",
"564 599 OFFCURVE",
"564 546 CURVE",
"374 379 LINE",
"369 351 LINE",
"477 351 LINE SMOOTH",
"553 351 OFFCURVE",
"581 292 OFFCURVE",
"564 208 CURVE SMOOTH",
"544 114 OFFCURVE",
"493 49 OFFCURVE",
"428 49 CURVE SMOOTH",
"398 49 OFFCURVE",
"369 53 OFFCURVE",
"339 60 CURVE",
"326 -1 LINE",
"354 -7 OFFCURVE",
"385 -10 OFFCURVE",
"420 -10 CURVE SMOOTH"
);
}
);
width = 778;
}
);
note = uni1E9E;
unicode = 1E9E;
},
{
glyphname = Schwa;
lastChange = "2015-10-27 16:22:00 +0000";
layers = (
{
layerId = "A20AAD8A-5619-416D-9D3E-77802FB4F06A";
name = "Bold Italic";
paths = (
{
closed = 1;
nodes = (
"544 -10 OFFCURVE",
"715 112 OFFCURVE",
"763 344 CURVE SMOOTH",
"806 559 OFFCURVE",
"697 710 OFFCURVE",
"444 710 CURVE SMOOTH",
"281 710 OFFCURVE",
"184 657 OFFCURVE",
"132 625 CURVE",
"144 564 LINE",
"259 633 OFFCURVE",
"332 648 OFFCURVE",
"417 648 CURVE SMOOTH",
"564 648 OFFCURVE",
"606 483 OFFCURVE",
"574 326 CURVE SMOOTH",
"545 184 OFFCURVE",
"455 48 OFFCURVE",
"326 48 CURVE SMOOTH",
"230 48 OFFCURVE",
"212 176 OFFCURVE",
"235 290 CURVE",
"578 290 LINE",
"590 351 LINE",
"61 351 LINE",
"54 313 LINE SMOOTH",
"18 139 OFFCURVE",
"86 -10 OFFCURVE",
"318 -10 CURVE SMOOTH"
);
}
);
width = 760;
}
);
note = uni018F;
unicode = 018F;
},
{
glyphname = T;
lastChange = "2015-10-27 16:21:59 +0000";
layers = (
{
layerId = "A20AAD8A-5619-416D-9D3E-77802FB4F06A";
name = "Bold Italic";
paths = (
{
closed = 1;
nodes = (
"482 0 LINE",
"486 23 LINE",
"461 31 OFFCURVE",
"424 41 OFFCURVE",
"404 45 CURVE",
"526 641 LINE",
"660 641 LINE",
"655 607 OFFCURVE",
"660 497 OFFCURVE",
"670 473 CURVE",
"710 473 LINE",
"756 700 LINE",
"127 700 LINE",
"81 473 LINE",
"121 473 LINE",
"141 497 OFFCURVE",
"192 607 OFFCURVE",
"201 641 CURVE",
"334 641 LINE",
"212 47 LINE",
"123 25 LINE",
"118 0 LINE"
);
}
);
width = 676;
}
);
leftKerningGroup = T;
note = T;
rightKerningGroup = T;
unicode = 0054;
},
{
glyphname = Tbar;
lastChange = "2015-10-27 16:22:00 +0000";
layers = (
{
layerId = "A20AAD8A-5619-416D-9D3E-77802FB4F06A";
name = "Bold Italic";
paths = (
{
closed = 1;
nodes = (
"482 0 LINE",
"486 23 LINE",
"461 31 OFFCURVE",
"424 41 OFFCURVE",
"404 45 CURVE",
"526 641 LINE",
"660 641 LINE",
"655 607 OFFCURVE",
"660 497 OFFCURVE",
"670 473 CURVE",
"710 473 LINE",
"756 700 LINE",
"127 700 LINE",
"81 473 LINE",
"121 473 LINE",
"141 497 OFFCURVE",
"192 607 OFFCURVE",
"201 641 CURVE",
"334 641 LINE",
"212 47 LINE",
"123 25 LINE",
"118 0 LINE"
);
},
{
closed = 1;
nodes = (
"590 280 LINE",
"603 338 LINE",
"148 338 LINE",
"135 280 LINE"
);
}
);
width = 676;
}
);
leftKerningGroup = T;
note = Tbar;
rightKerningGroup = T;
unicode = 0166;
},
{
glyphname = Tcaron;
lastChange = "2015-10-27 16:21:59 +0000";
layers = (
{
layerId = "A20AAD8A-5619-416D-9D3E-77802FB4F06A";
name = "Bold Italic";
paths = (
{
closed = 1;
nodes = (
"482 0 LINE",
"486 23 LINE",
"461 31 OFFCURVE",
"424 41 OFFCURVE",
"404 45 CURVE",
"526 641 LINE",
"660 641 LINE",
"655 607 OFFCURVE",
"660 497 OFFCURVE",
"670 473 CURVE",
"710 473 LINE",
"756 700 LINE",
"127 700 LINE",
"81 473 LINE",
"121 473 LINE",
"141 497 OFFCURVE",
"192 607 OFFCURVE",
"201 641 CURVE",
"334 641 LINE",
"212 47 LINE",
"123 25 LINE",
"118 0 LINE"
);
},
{
closed = 1;
nodes = (
"414 786 OFFCURVE",
"501 786 OFFCURVE",
"501 786 CURVE",
"528 819 OFFCURVE",
"646 913 OFFCURVE",
"697 942 CURVE",
"632 997 LINE",
"583 962 OFFCURVE",
"501 892 OFFCURVE",
"472 855 CURVE",
"472 855 OFFCURVE",
"469 855 OFFCURVE",
"469 855 CURVE",
"456 892 OFFCURVE",
"403 962 OFFCURVE",
"368 997 CURVE",
"282 942 LINE",
"322 913 OFFCURVE",
"400 819 OFFCURVE",
"414 786 CURVE"
);
}
);
width = 676;
}
);
leftKerningGroup = T;
note = Tcaron;
rightKerningGroup = T;
unicode = 0164;
},
{
glyphname = Tcedilla;
lastChange = "2015-10-27 16:22:00 +0000";
layers = (
{
layerId = "A20AAD8A-5619-416D-9D3E-77802FB4F06A";
name = "Bold Italic";
paths = (
{
closed = 1;
nodes = (
"482 0 LINE",
"486 23 LINE",
"461 31 OFFCURVE",
"424 41 OFFCURVE",
"404 45 CURVE",
"526 641 LINE",
"660 641 LINE",
"655 607 OFFCURVE",
"660 497 OFFCURVE",
"670 473 CURVE",
"710 473 LINE",
"756 700 LINE",
"127 700 LINE",
"81 473 LINE",
"121 473 LINE",
"141 497 OFFCURVE",
"192 607 OFFCURVE",
"201 641 CURVE",
"334 641 LINE",
"212 47 LINE",
"123 25 LINE",
"118 0 LINE"
);
},
{
closed = 1;
nodes = (
"292 -274 OFFCURVE",
"372 -233 OFFCURVE",
"388 -154 CURVE SMOOTH",
"396 -114 OFFCURVE",
"379 -66 OFFCURVE",
"303 -58 CURVE",
"299 -58 OFFCURVE",
"288 -57 OFFCURVE",
"283 -57 CURVE",
"345 32 LINE",
"268 32 LINE",
"196 -71 LINE",
"216 -108 LINE",
"223 -107 OFFCURVE",
"230 -107 OFFCURVE",
"237 -107 CURVE SMOOTH",
"270 -107 OFFCURVE",
"306 -116 OFFCURVE",
"299 -154 CURVE SMOOTH",
"289 -198 OFFCURVE",
"247 -211 OFFCURVE",
"204 -211 CURVE SMOOTH",
"173 -211 OFFCURVE",
"141 -202 OFFCURVE",
"124 -188 CURVE",
"86 -234 LINE",
"114 -259 OFFCURVE",
"164 -274 OFFCURVE",
"207 -274 CURVE SMOOTH"
);
}
);
width = 676;
}
);
leftKerningGroup = T;
note = Tcedilla;
rightKerningGroup = T;
unicode = 0162;
},
{
glyphname = Tcommaaccent;
lastChange = "2015-10-27 16:21:59 +0000";
layers = (
{
layerId = "A20AAD8A-5619-416D-9D3E-77802FB4F06A";
name = "Bold Italic";
paths = (
{
closed = 1;
nodes = (
"482 0 LINE",
"486 23 LINE",
"461 31 OFFCURVE",
"424 41 OFFCURVE",
"404 45 CURVE",
"526 641 LINE",
"660 641 LINE",
"655 607 OFFCURVE",
"660 497 OFFCURVE",
"670 473 CURVE",
"710 473 LINE",
"756 700 LINE",
"127 700 LINE",
"81 473 LINE",
"121 473 LINE",
"141 497 OFFCURVE",
"192 607 OFFCURVE",
"201 641 CURVE",
"334 641 LINE",
"212 47 LINE",
"123 25 LINE",
"118 0 LINE"
);
},
{
closed = 1;
nodes = (
"263 -356 OFFCURVE",
"331 -264 OFFCURVE",
"350 -174 CURVE SMOOTH",
"359 -130 OFFCURVE",
"339 -89 OFFCURVE",
"279 -89 CURVE SMOOTH",
"235 -89 OFFCURVE",
"190 -119 OFFCURVE",
"180 -168 CURVE SMOOTH",
"172 -209 OFFCURVE",
"200 -246 OFFCURVE",
"240 -251 CURVE",
"222 -297 OFFCURVE",
"170 -344 OFFCURVE",
"141 -368 CURVE",
"189 -412 LINE"
);
}
);
width = 676;
}
);
leftKerningGroup = T;
note = Tcommaaccent;
rightKerningGroup = T;
unicode = 021A;
},
{
glyphname = Tdotbelow;
lastChange = "2015-10-27 16:21:59 +0000";
layers = (
{
layerId = "A20AAD8A-5619-416D-9D3E-77802FB4F06A";
name = "Bold Italic";
paths = (
{
closed = 1;
nodes = (
"482 0 LINE",
"486 23 LINE",
"461 31 OFFCURVE",
"424 41 OFFCURVE",
"404 45 CURVE",
"526 641 LINE",
"660 641 LINE",
"655 607 OFFCURVE",
"660 497 OFFCURVE",
"670 473 CURVE",
"710 473 LINE",
"756 700 LINE",
"127 700 LINE",
"81 473 LINE",
"121 473 LINE",
"141 497 OFFCURVE",
"192 607 OFFCURVE",
"201 641 CURVE",
"334 641 LINE",
"212 47 LINE",
"123 25 LINE",
"118 0 LINE"
);
},
{
closed = 1;
nodes = (
"302 -195 OFFCURVE",
"336 -163 OFFCURVE",
"344 -123 CURVE SMOOTH",
"352 -83 OFFCURVE",
"332 -50 OFFCURVE",
"289 -50 CURVE SMOOTH",
"246 -50 OFFCURVE",
"213 -83 OFFCURVE",
"204 -123 CURVE SMOOTH",
"197 -163 OFFCURVE",
"216 -195 OFFCURVE",
"259 -195 CURVE SMOOTH"
);
}
);
width = 676;
}
);
leftKerningGroup = T;
note = Tdotbelow;
rightKerningGroup = T;
unicode = 1E6C;
},
{
glyphname = Tlinebelow;
lastChange = "2015-10-27 16:22:00 +0000";
layers = (
{
layerId = "A20AAD8A-5619-416D-9D3E-77802FB4F06A";
name = "Bold Italic";
paths = (
{
closed = 1;
nodes = (
"482 0 LINE",
"486 23 LINE",
"461 31 OFFCURVE",
"424 41 OFFCURVE",
"404 45 CURVE",
"526 641 LINE",
"660 641 LINE",
"655 607 OFFCURVE",
"660 497 OFFCURVE",
"670 473 CURVE",
"710 473 LINE",
"756 700 LINE",
"127 700 LINE",
"81 473 LINE",
"121 473 LINE",
"141 497 OFFCURVE",
"192 607 OFFCURVE",
"201 641 CURVE",
"334 641 LINE",
"212 47 LINE",
"123 25 LINE",
"118 0 LINE"
);
},
{
closed = 1;
nodes = (
"482 -112 LINE",
"493 -55 LINE",
"84 -55 LINE",
"72 -112 LINE"
);
}
);
width = 676;
}
);
leftKerningGroup = T;
note = Tlinebelow;
rightKerningGroup = T;
unicode = 1E6E;
},
{
glyphname = U;
lastChange = "2015-10-27 16:22:00 +0000";
layers = (
{
layerId = "A20AAD8A-5619-416D-9D3E-77802FB4F06A";
name = "Bold Italic";
paths = (
{
closed = 1;
nodes = (
"558 -10 OFFCURVE",
"673 76 OFFCURVE",
"703 225 CURVE SMOOTH",
"790 653 LINE",
"799 655 OFFCURVE",
"830 664 OFFCURVE",
"873 678 CURVE",
"876 700 LINE",
"652 700 LINE",
"648 678 LINE",
"674 668 OFFCURVE",
"697 661 OFFCURVE",
"720 656 CURVE",
"629 209 LINE SMOOTH",
"605 91 OFFCURVE",
"510 52 OFFCURVE",
"425 52 CURVE SMOOTH",
"342 52 OFFCURVE",
"265 87 OFFCURVE",
"290 209 CURVE SMOOTH",
"380 653 LINE",
"461 675 LINE",
"466 700 LINE",
"121 700 LINE",
"117 678 LINE",
"143 668 OFFCURVE",
"168 660 OFFCURVE",
"189 655 CURVE",
"101 225 LINE SMOOTH",
"68 64 OFFCURVE",
"164 -10 OFFCURVE",
"364 -10 CURVE SMOOTH"
);
}
);
width = 790;
}
);
leftKerningGroup = U;
note = U;
rightKerningGroup = U;
unicode = 0055;
},
{
glyphname = Uacute;
lastChange = "2015-10-27 16:21:59 +0000";
layers = (
{
layerId = "A20AAD8A-5619-416D-9D3E-77802FB4F06A";
name = "Bold Italic";
paths = (
{
closed = 1;
nodes = (
"558 -10 OFFCURVE",
"673 76 OFFCURVE",
"703 225 CURVE SMOOTH",
"790 653 LINE",
"799 655 OFFCURVE",
"830 664 OFFCURVE",
"873 678 CURVE",
"876 700 LINE",
"652 700 LINE",
"648 678 LINE",
"674 668 OFFCURVE",
"697 661 OFFCURVE",
"720 656 CURVE",
"629 209 LINE SMOOTH",
"605 91 OFFCURVE",
"510 52 OFFCURVE",
"425 52 CURVE SMOOTH",
"342 52 OFFCURVE",
"265 87 OFFCURVE",
"290 209 CURVE SMOOTH",
"380 653 LINE",
"461 675 LINE",
"466 700 LINE",
"121 700 LINE",
"117 678 LINE",
"143 668 OFFCURVE",
"168 660 OFFCURVE",
"189 655 CURVE",
"101 225 LINE SMOOTH",
"68 64 OFFCURVE",
"164 -10 OFFCURVE",
"364 -10 CURVE SMOOTH"
);
},
{
closed = 1;
nodes = (
"665 886 LINE SMOOTH",
"707 909 OFFCURVE",
"732 931 OFFCURVE",
"738 960 CURVE",
"742 982 OFFCURVE",
"732 1011 OFFCURVE",
"690 1011 CURVE SMOOTH",
"651 1011 OFFCURVE",
"615 975 OFFCURVE",
"610 969 CURVE",
"459 830 LINE",
"480 786 LINE"
);
}
);
width = 790;
}
);
leftKerningGroup = U;
note = Uacute;
rightKerningGroup = U;
unicode = 00DA;
},
{
glyphname = Ubreve;
lastChange = "2015-10-27 16:22:00 +0000";
layers = (
{
layerId = "A20AAD8A-5619-416D-9D3E-77802FB4F06A";
name = "Bold Italic";
paths = (
{
closed = 1;
nodes = (
"558 -10 OFFCURVE",
"673 76 OFFCURVE",
"703 225 CURVE SMOOTH",
"790 653 LINE",
"799 655 OFFCURVE",
"830 664 OFFCURVE",
"873 678 CURVE",
"876 700 LINE",
"652 700 LINE",
"648 678 LINE",
"674 668 OFFCURVE",
"697 661 OFFCURVE",
"720 656 CURVE",
"629 209 LINE SMOOTH",
"605 91 OFFCURVE",
"510 52 OFFCURVE",
"425 52 CURVE SMOOTH",
"342 52 OFFCURVE",
"265 87 OFFCURVE",
"290 209 CURVE SMOOTH",
"380 653 LINE",
"461 675 LINE",
"466 700 LINE",
"121 700 LINE",
"117 678 LINE",
"143 668 OFFCURVE",
"168 660 OFFCURVE",
"189 655 CURVE",
"101 225 LINE SMOOTH",
"68 64 OFFCURVE",
"164 -10 OFFCURVE",
"364 -10 CURVE SMOOTH"
);
},
{
closed = 1;
nodes = (
"633 786 OFFCURVE",
"711 831 OFFCURVE",
"749 927 CURVE",
"647 927 LINE",
"626 856 OFFCURVE",
"582 847 OFFCURVE",
"542 847 CURVE SMOOTH",
"503 847 OFFCURVE",
"463 856 OFFCURVE",
"470 927 CURVE",
"370 927 LINE",
"367 831 OFFCURVE",
"427 786 OFFCURVE",
"530 786 CURVE SMOOTH"
);
}
);
width = 790;
}
);
leftKerningGroup = U;
note = Ubreve;
rightKerningGroup = U;
unicode = 016C;
},
{
glyphname = Ucaron;
lastChange = "2015-10-27 16:22:00 +0000";
layers = (
{
layerId = "A20AAD8A-5619-416D-9D3E-77802FB4F06A";
name = "Bold Italic";
paths = (
{
closed = 1;
nodes = (
"558 -10 OFFCURVE",
"673 76 OFFCURVE",
"703 225 CURVE SMOOTH",
"790 653 LINE",
"799 655 OFFCURVE",
"830 664 OFFCURVE",
"873 678 CURVE",
"876 700 LINE",
"652 700 LINE",
"648 678 LINE",
"674 668 OFFCURVE",
"697 661 OFFCURVE",
"720 656 CURVE",
"629 209 LINE SMOOTH",
"605 91 OFFCURVE",
"510 52 OFFCURVE",
"425 52 CURVE SMOOTH",
"342 52 OFFCURVE",
"265 87 OFFCURVE",
"290 209 CURVE SMOOTH",
"380 653 LINE",
"461 675 LINE",
"466 700 LINE",
"121 700 LINE",
"117 678 LINE",
"143 668 OFFCURVE",
"168 660 OFFCURVE",
"189 655 CURVE",
"101 225 LINE SMOOTH",
"68 64 OFFCURVE",
"164 -10 OFFCURVE",
"364 -10 CURVE SMOOTH"
);
},
{
closed = 1;
nodes = (
"472 786 OFFCURVE",
"560 786 OFFCURVE",
"560 786 CURVE",
"587 819 OFFCURVE",
"705 913 OFFCURVE",
"756 942 CURVE",
"690 997 LINE",
"641 962 OFFCURVE",
"560 892 OFFCURVE",
"531 855 CURVE",
"531 855 OFFCURVE",
"528 855 OFFCURVE",
"528 855 CURVE",
"515 892 OFFCURVE",
"462 962 OFFCURVE",
"426 997 CURVE",
"341 942 LINE",
"380 913 OFFCURVE",
"459 819 OFFCURVE",
"472 786 CURVE"
);
}
);
width = 790;
}
);
leftKerningGroup = U;
note = Ucaron;
rightKerningGroup = U;
unicode = 01D3;
},
{
glyphname = Ucircumflex;
lastChange = "2015-10-27 16:21:59 +0000";
layers = (
{
layerId = "A20AAD8A-5619-416D-9D3E-77802FB4F06A";
name = "Bold Italic";
paths = (
{
closed = 1;
nodes = (
"558 -10 OFFCURVE",
"673 76 OFFCURVE",
"703 225 CURVE SMOOTH",
"790 653 LINE",
"799 655 OFFCURVE",
"830 664 OFFCURVE",
"873 678 CURVE",
"876 700 LINE",
"652 700 LINE",
"648 678 LINE",
"674 668 OFFCURVE",
"697 661 OFFCURVE",
"720 656 CURVE",
"629 209 LINE SMOOTH",
"605 91 OFFCURVE",
"510 52 OFFCURVE",
"425 52 CURVE SMOOTH",
"342 52 OFFCURVE",
"265 87 OFFCURVE",
"290 209 CURVE SMOOTH",
"380 653 LINE",
"461 675 LINE",
"466 700 LINE",
"121 700 LINE",
"117 678 LINE",
"143 668 OFFCURVE",
"168 660 OFFCURVE",
"189 655 CURVE",
"101 225 LINE SMOOTH",
"68 64 OFFCURVE",
"164 -10 OFFCURVE",
"364 -10 CURVE SMOOTH"
);
},
{
closed = 1;
nodes = (
"435 821 OFFCURVE",
"516 891 OFFCURVE",
"545 928 CURVE",
"545 928 OFFCURVE",
"548 928 OFFCURVE",
"548 928 CURVE",
"562 891 OFFCURVE",
"614 821 OFFCURVE",
"650 786 CURVE",
"736 841 LINE",
"697 870 OFFCURVE",
"617 964 OFFCURVE",
"604 997 CURVE",
"604 997 OFFCURVE",
"516 997 OFFCURVE",
"516 997 CURVE",
"490 964 OFFCURVE",
"372 870 OFFCURVE",
"322 841 CURVE",
"387 786 LINE"
);
}
);
width = 790;
}
);
leftKerningGroup = U;
note = Ucircumflex;
rightKerningGroup = U;
unicode = 00DB;
},
{
glyphname = Udieresis;
lastChange = "2015-10-27 16:22:00 +0000";
layers = (
{
layerId = "A20AAD8A-5619-416D-9D3E-77802FB4F06A";
name = "Bold Italic";
paths = (
{
closed = 1;
nodes = (
"558 -10 OFFCURVE",
"673 76 OFFCURVE",
"703 225 CURVE SMOOTH",
"790 653 LINE",
"799 655 OFFCURVE",
"830 664 OFFCURVE",
"873 678 CURVE",
"876 700 LINE",
"652 700 LINE",
"648 678 LINE",
"674 668 OFFCURVE",
"697 661 OFFCURVE",
"720 656 CURVE",
"629 209 LINE SMOOTH",
"605 91 OFFCURVE",
"510 52 OFFCURVE",
"425 52 CURVE SMOOTH",
"342 52 OFFCURVE",
"265 87 OFFCURVE",
"290 209 CURVE SMOOTH",
"380 653 LINE",
"461 675 LINE",
"466 700 LINE",
"121 700 LINE",
"117 678 LINE",
"143 668 OFFCURVE",
"168 660 OFFCURVE",
"189 655 CURVE",
"101 225 LINE SMOOTH",
"68 64 OFFCURVE",
"164 -10 OFFCURVE",
"364 -10 CURVE SMOOTH"
);
},
{
closed = 1;
nodes = (
"468 786 OFFCURVE",
"500 818 OFFCURVE",
"509 858 CURVE SMOOTH",
"516 898 OFFCURVE",
"496 931 OFFCURVE",
"453 931 CURVE SMOOTH",
"411 931 OFFCURVE",
"378 898 OFFCURVE",
"371 858 CURVE SMOOTH",
"362 818 OFFCURVE",
"382 786 OFFCURVE",
"425 786 CURVE SMOOTH"
);
},
{
closed = 1;
nodes = (
"710 786 OFFCURVE",
"743 818 OFFCURVE",
"752 858 CURVE SMOOTH",
"759 898 OFFCURVE",
"739 931 OFFCURVE",
"696 931 CURVE SMOOTH",
"653 931 OFFCURVE",
"620 898 OFFCURVE",
"612 858 CURVE SMOOTH",
"604 818 OFFCURVE",
"624 786 OFFCURVE",
"667 786 CURVE SMOOTH"
);
}
);
width = 790;
}
);
leftKerningGroup = U;
note = Udieresis;
rightKerningGroup = U;
unicode = 00DC;
},
{
glyphname = Udieresisacute;
lastChange = "2015-10-27 16:21:58 +0000";
layers = (
{
layerId = "A20AAD8A-5619-416D-9D3E-77802FB4F06A";
name = "Bold Italic";
paths = (
{
closed = 1;
nodes = (
"558 -10 OFFCURVE",
"673 76 OFFCURVE",
"703 225 CURVE SMOOTH",
"790 653 LINE",
"799 655 OFFCURVE",
"830 664 OFFCURVE",
"873 678 CURVE",
"876 700 LINE",
"652 700 LINE",
"648 678 LINE",
"674 668 OFFCURVE",
"697 661 OFFCURVE",
"720 656 CURVE",
"629 209 LINE SMOOTH",
"605 91 OFFCURVE",
"510 52 OFFCURVE",
"425 52 CURVE SMOOTH",
"342 52 OFFCURVE",
"265 87 OFFCURVE",
"290 209 CURVE SMOOTH",
"380 653 LINE",
"461 675 LINE",
"466 700 LINE",
"121 700 LINE",
"117 678 LINE",
"143 668 OFFCURVE",
"168 660 OFFCURVE",
"189 655 CURVE",
"101 225 LINE SMOOTH",
"68 64 OFFCURVE",
"164 -10 OFFCURVE",
"364 -10 CURVE SMOOTH"
);
},
{
closed = 1;
nodes = (
"468 786 OFFCURVE",
"500 818 OFFCURVE",
"509 858 CURVE SMOOTH",
"516 898 OFFCURVE",
"496 931 OFFCURVE",
"453 931 CURVE SMOOTH",
"411 931 OFFCURVE",
"378 898 OFFCURVE",
"371 858 CURVE SMOOTH",
"362 818 OFFCURVE",
"382 786 OFFCURVE",
"425 786 CURVE SMOOTH"
);
},
{
closed = 1;
nodes = (
"710 786 OFFCURVE",
"743 818 OFFCURVE",
"752 858 CURVE SMOOTH",
"759 898 OFFCURVE",
"739 931 OFFCURVE",
"696 931 CURVE SMOOTH",
"653 931 OFFCURVE",
"620 898 OFFCURVE",
"612 858 CURVE SMOOTH",
"604 818 OFFCURVE",
"624 786 OFFCURVE",
"667 786 CURVE SMOOTH"
);
},
{
closed = 1;
nodes = (
"677 1095 LINE SMOOTH",
"718 1118 OFFCURVE",
"743 1140 OFFCURVE",
"750 1169 CURVE",
"754 1191 OFFCURVE",
"743 1220 OFFCURVE",
"702 1220 CURVE SMOOTH",
"662 1220 OFFCURVE",
"627 1184 OFFCURVE",
"621 1178 CURVE",
"470 1039 LINE",
"492 995 LINE"
);
}
);
width = 790;
}
);
leftKerningGroup = U;
note = Udieresisacute;
rightKerningGroup = U;
unicode = 01D7;
},
